<mxfile host="app.diagrams.net" agent="Mozilla/5.0 (Macintosh; Intel Mac OS X 10_15_7) AppleWebKit/537.36 (KHTML, like Gecko) Chrome/135.0.0.0 Safari/537.36" version="26.0.4">
  <diagram name="第 1 页" id="CSb6wpCthCy3614bJASQ">
    <mxGraphModel dx="5385" dy="2071" grid="1" gridSize="10" guides="1" tooltips="1" connect="1" arrows="1" fold="1" page="1" pageScale="1" pageWidth="827" pageHeight="1169" math="0" shadow="0">
      <root>
        <mxCell id="0" />
        <mxCell id="1" parent="0" />
        <mxCell id="VSkgPnNJodsaqvErD4WI-2" value="" style="shape=image;verticalLabelPosition=bottom;labelBackgroundColor=default;verticalAlign=top;aspect=fixed;imageAspect=0;image=data:image/jpeg,/9j/4AAQSkZJRgABAQAASABIAAD/4QBARXhpZgAATU0AKgAAAAgAAYdpAAQAAAABAAAAGgAAAAAAAqACAAQAAAABAAALrqADAAQAAAABAAAAlAAAAAD/4g0gSUNDX1BST0ZJTEUAAQEAAA0QYXBwbAIQAABtbnRyUkdCIFhZWiAH6QABABQAEgAeABthY3NwQVBQTAAAAABBUFBMAAAAAAAAAAAAAAAAAAAAAAAA9tYAAQAAAADTLWFwcGwAAAAAAAAAAAAAAAAAAAAAAAAAAAAAAAAAAAAAAAAAAAAAAAAAAAAAAAAAAAAAABFkZXNjAAABUAAAAGJkc2NtAAABtAAAAepjcHJ0AAADoAAAACN3dHB0AAADxAAAABRyWFlaAAAD2AAAABRnWFlaAAAD7AAAABRiWFlaAAAEAAAAABRyVFJDAAAEFAAACAxhYXJnAAAMIAAAACB2Y2d0AAAMQAAAADBuZGluAAAMcAAAAD5tbW9kAAAMsAAAACh2Y2dwAAAM2AAAADhiVFJDAAAEFAAACAxnVFJDAAAEFAAACAxhYWJnAAAMIAAAACBhYWdnAAAMIAAAACBkZXNjAAAAAAAAAAhEaXNwbGF5AAAAAAAAAAAAAAAAAAAAAAAAAAAAAAAAAAAAAAAAAAAAAAAAAAAAAAAAAAAAAAAAAAAAAAAAAAAAAAAAAAAAAAAAAAAAAAAAAAAAAAAAAAAAbWx1YwAAAAAAAAAmAAAADGhySFIAAAASAAAB2GtvS1IAAAASAAAB2G5iTk8AAAASAAAB2GlkAAAAAAASAAAB2Gh1SFUAAAASAAAB2GNzQ1oAAAASAAAB2GRhREsAAAASAAAB2G5sTkwAAAASAAAB2GZpRkkAAAASAAAB2Gl0SVQAAAASAAAB2GVzRVMAAAASAAAB2HJvUk8AAAASAAAB2GZyQ0EAAAASAAAB2GFyAAAAAAASAAAB2HVrVUEAAAASAAAB2GhlSUwAAAASAAAB2HpoVFcAAAASAAAB2HZpVk4AAAASAAAB2HNrU0sAAAASAAAB2HpoQ04AAAASAAAB2HJ1UlUAAAASAAAB2GVuR0IAAAASAAAB2GZyRlIAAAASAAAB2G1zAAAAAAASAAAB2GhpSU4AAAASAAAB2HRoVEgAAAASAAAB2GNhRVMAAAASAAAB2GVuQVUAAAASAAAB2GVzWEwAAAASAAAB2GRlREUAAAASAAAB2GVuVVMAAAASAAAB2HB0QlIAAAASAAAB2HBsUEwAAAASAAAB2GVsR1IAAAASAAAB2HN2U0UAAAASAAAB2HRyVFIAAAASAAAB2HB0UFQAAAASAAAB2GphSlAAAAASAAAB2ABDAG8AbABvAHIAIABMAEMARAAAdGV4dAAAAABDb3B5cmlnaHQgQXBwbGUgSW5jLiwgMjAyNQAAWFlaIAAAAAAAAPMWAAEAAAABFspYWVogAAAAAAAAgyEAAD15////vFhZWiAAAAAAAABL0AAAs70AAAraWFlaIAAAAAAAACflAAAOygAAyJdjdXJ2AAAAAAAABAAAAAAFAAoADwAUABkAHgAjACgALQAyADYAOwBAAEUASgBPAFQAWQBeAGMAaABtAHIAdwB8AIEAhgCLAJAAlQCaAJ8AowCoAK0AsgC3ALwAwQDGAMsA0ADVANsA4ADlAOsA8AD2APsBAQEHAQ0BEwEZAR8BJQErATIBOAE+AUUBTAFSAVkBYAFnAW4BdQF8AYMBiwGSAZoBoQGpAbEBuQHBAckB0QHZAeEB6QHyAfoCAwIMAhQCHQImAi8COAJBAksCVAJdAmcCcQJ6AoQCjgKYAqICrAK2AsECywLVAuAC6wL1AwADCwMWAyEDLQM4A0MDTwNaA2YDcgN+A4oDlgOiA64DugPHA9MD4APsA/kEBgQTBCAELQQ7BEgEVQRjBHEEfgSMBJoEqAS2BMQE0wThBPAE/gUNBRwFKwU6BUkFWAVnBXcFhgWWBaYFtQXFBdUF5QX2BgYGFgYnBjcGSAZZBmoGewaMBp0GrwbABtEG4wb1BwcHGQcrBz0HTwdhB3QHhgeZB6wHvwfSB+UH+AgLCB8IMghGCFoIbgiCCJYIqgi+CNII5wj7CRAJJQk6CU8JZAl5CY8JpAm6Cc8J5Qn7ChEKJwo9ClQKagqBCpgKrgrFCtwK8wsLCyILOQtRC2kLgAuYC7ALyAvhC/kMEgwqDEMMXAx1DI4MpwzADNkM8w0NDSYNQA1aDXQNjg2pDcMN3g34DhMOLg5JDmQOfw6bDrYO0g7uDwkPJQ9BD14Peg+WD7MPzw/sEAkQJhBDEGEQfhCbELkQ1xD1ERMRMRFPEW0RjBGqEckR6BIHEiYSRRJkEoQSoxLDEuMTAxMjE0MTYxODE6QTxRPlFAYUJxRJFGoUixStFM4U8BUSFTQVVhV4FZsVvRXgFgMWJhZJFmwWjxayFtYW+hcdF0EXZReJF64X0hf3GBsYQBhlGIoYrxjVGPoZIBlFGWsZkRm3Gd0aBBoqGlEadxqeGsUa7BsUGzsbYxuKG7Ib2hwCHCocUhx7HKMczBz1HR4dRx1wHZkdwx3sHhYeQB5qHpQevh7pHxMfPh9pH5Qfvx/qIBUgQSBsIJggxCDwIRwhSCF1IaEhziH7IiciVSKCIq8i3SMKIzgjZiOUI8Ij8CQfJE0kfCSrJNolCSU4JWgllyXHJfcmJyZXJocmtyboJxgnSSd6J6sn3CgNKD8ocSiiKNQpBik4KWspnSnQKgIqNSpoKpsqzysCKzYraSudK9EsBSw5LG4soizXLQwtQS12Last4S4WLkwugi63Lu4vJC9aL5Evxy/+MDUwbDCkMNsxEjFKMYIxujHyMioyYzKbMtQzDTNGM38zuDPxNCs0ZTSeNNg1EzVNNYc1wjX9Njc2cjauNuk3JDdgN5w31zgUOFA4jDjIOQU5Qjl/Obw5+To2OnQ6sjrvOy07azuqO+g8JzxlPKQ84z0iPWE9oT3gPiA+YD6gPuA/IT9hP6I/4kAjQGRApkDnQSlBakGsQe5CMEJyQrVC90M6Q31DwEQDREdEikTORRJFVUWaRd5GIkZnRqtG8Ec1R3tHwEgFSEtIkUjXSR1JY0mpSfBKN0p9SsRLDEtTS5pL4kwqTHJMuk0CTUpNk03cTiVObk63TwBPSU+TT91QJ1BxULtRBlFQUZtR5lIxUnxSx1MTU19TqlP2VEJUj1TbVShVdVXCVg9WXFapVvdXRFeSV+BYL1h9WMtZGllpWbhaB1pWWqZa9VtFW5Vb5Vw1XIZc1l0nXXhdyV4aXmxevV8PX2Ffs2AFYFdgqmD8YU9homH1YklinGLwY0Njl2PrZEBklGTpZT1lkmXnZj1mkmboZz1nk2fpaD9olmjsaUNpmmnxakhqn2r3a09rp2v/bFdsr20IbWBtuW4SbmtuxG8eb3hv0XArcIZw4HE6cZVx8HJLcqZzAXNdc7h0FHRwdMx1KHWFdeF2Pnabdvh3VnezeBF4bnjMeSp5iXnnekZ6pXsEe2N7wnwhfIF84X1BfaF+AX5ifsJ/I3+Ef+WAR4CogQqBa4HNgjCCkoL0g1eDuoQdhICE44VHhauGDoZyhteHO4efiASIaYjOiTOJmYn+imSKyoswi5aL/IxjjMqNMY2Yjf+OZo7OjzaPnpAGkG6Q1pE/kaiSEZJ6kuOTTZO2lCCUipT0lV+VyZY0lp+XCpd1l+CYTJi4mSSZkJn8mmia1ZtCm6+cHJyJnPedZJ3SnkCerp8dn4uf+qBpoNihR6G2oiailqMGo3aj5qRWpMelOKWpphqmi6b9p26n4KhSqMSpN6mpqhyqj6sCq3Wr6axcrNCtRK24ri2uoa8Wr4uwALB1sOqxYLHWskuywrM4s660JbSctRO1irYBtnm28Ldot+C4WbjRuUq5wro7urW7LrunvCG8m70VvY++Cr6Evv+/er/1wHDA7MFnwePCX8Lbw1jD1MRRxM7FS8XIxkbGw8dBx7/IPci8yTrJuco4yrfLNsu2zDXMtc01zbXONs62zzfPuNA50LrRPNG+0j/SwdNE08bUSdTL1U7V0dZV1tjXXNfg2GTY6Nls2fHadtr724DcBdyK3RDdlt4c3qLfKd+v4DbgveFE4cziU+Lb42Pj6+Rz5PzlhOYN5pbnH+ep6DLovOlG6dDqW+rl63Dr++yG7RHtnO4o7rTvQO/M8Fjw5fFy8f/yjPMZ86f0NPTC9VD13vZt9vv3ivgZ+Kj5OPnH+lf65/t3/Af8mP0p/br+S/7c/23//3BhcmEAAAAAAAMAAAACZmYAAPKnAAANWQAAE9AAAApbdmNndAAAAAAAAAABAAEAAAAAAAAAAQAAAAEAAAAAAAAAAQAAAAEAAAAAAAAAAQAAbmRpbgAAAAAAAAA2AACuAAAAUgAAAEPAAACwwAAAJoAAAA3AAABQAAAAVEAAAjMzAAIzMwACMzMAAAAAAAAAAG1tb2QAAAAAAAAGEAAAoEQAAAAA2ZNdgAAAAAAAAAAAAAAAAAAAAAB2Y2dwAAAAAAADAAAAAmZmAAMAAAACZmYAAwAAAAJmZgAAAAIzMzQAAAAAAjMzNAAAAAACMzM0AP/AABEIAJQLrgMBIgACEQEDEQH/xAAfAAABBQEBAQEBAQAAAAAAAAAAAQIDBAUGBwgJCgv/xAC1EAACAQMDAgQDBQUEBAAAAX0BAgMABBEFEiExQQYTUWEHInEUMoGRoQgjQrHBFVLR8CQzYnKCCQoWFxgZGiUmJygpKjQ1Njc4OTpDREVGR0hJSlNUVVZXWFlaY2RlZmdoaWpzdHV2d3h5eoOEhYaHiImKkpOUlZaXmJmaoqOkpaanqKmqsrO0tba3uLm6wsPExcbHyMnK0tPU1dbX2Nna4eLj5OXm5+jp6vHy8/T19vf4+fr/xAAfAQADAQEBAQEBAQEBAAAAAAAAAQIDBAUGBwgJCgv/xAC1EQACAQIEBAMEBwUEBAABAncAAQIDEQQFITEGEkFRB2FxEyIygQgUQpGhscEJIzNS8BVictEKFiQ04SXxFxgZGiYnKCkqNTY3ODk6Q0RFRkdISUpTVFVWV1hZWmNkZWZnaGlqc3R1dnd4eXqCg4SFhoeIiYqSk5SVlpeYmZqio6Slpqeoqaqys7S1tre4ubrCw8TFxsfIycrS09TV1tfY2dri4+Tl5ufo6ery8/T19vf4+fr/2wBDAAICAgICAgMCAgMFAwMDBQYFBQUFBggGBgYGBggKCAgICAgICgoKCgoKCgoMDAwMDAwODg4ODg8PDw8PDw8PDw//2wBDAQICAgQEBAcEBAcQCwkLEBAQEBAQEBAQEBAQEBAQEBAQEBAQEBAQEBAQEBAQEBAQEBAQEBAQEBAQEBAQEBAQEBD/3QAEALv/2gAMAwEAAhEDEQA/AP38ooooAKKKKACiiigAooooAKKKKACiiigAooooAKKKKACiiigAooooAKKKKACiiigAooooAKKKKACiiigAooooAKKKKACiiigAooooAKKKKACiiigAooooAKKKKACiiigAooooAKKKKACiiigAooooAKKKKACiiigAooooAKKKKACiiigAooooAKKKKACiiigAooooAKKKKACiiigAooooAKKKKACiiigAooooAKKKKACiiigAooooAKKKKACiiigAooooAKKKKACiiigAooooAKKKKACiiigAooooAKKKKACiiigAooooAKKKKACiiigAooooAKKKKACiiigAooooAKKKKACiiigAooooAKKKKACiiigAooooAKKKKACiiigAooooAKKKKACiiigAooooAKKKKACiiigAooooAKKKKACiiigAooooAKKKKACiiigAooooAKKKKACiiigAooooAKKKKACiiigAooooAKKKKACiiigAooooAKKKKACiiigAooooAKKKKACiiigAooooAKKKKACiiigAooooAKKKKACiiigAooooAKKKKACiiigAooooAKKKKACiiigAooooAKKKKACiiigAooooAKKKKACiiigAooooAKKKKACiiigAooooAKKKKACiiigAooooAKKKKACiiigAooooAKKKKACiiigAooooAKKKKACiiigAooooAKKKKACiiigAooooAKKKKACiiigAooooAKKKKACiiigAooooAKKKKACiiigAooooAKKKKACiiigAooooAKKKKACiiigAooooAKKKKACiiigAooooAKKKKACiiigAooooAKKKKACiiigAooooAKKKKACiiigAooooAKKKKACiiigAooooAKKKKACiiigAooooAKKKKACiiigAooooAKKKKACiiigAooooAKKKKACiiigAooooAKKKKACiiigAooooAKKKKACiiigAooooAKKKKACiiigAqGf7g+tTVDP9wfWgD//Q/fyiiigAooooAKKKKACiiigAooooAKKKKACiiigAooooAKKKKACiiigAooooAKKKKACiiigAooooAKKKKACiiigAooooAKKKKACiiigAooooAKKKKACiiigAooooAKKKKACiiigAooooAK5Dw/4/8E+Kta1rw74a1yz1PVPDkwt9StreZZJbOZskJOinKMcHAbrXhX7WP7TPh/8AZp+HEmuPA2seLNYcWPh/Rbf57rUNQmOyJVjGWKKxBcgE4+VQzFVPxv8ABD9nX9t34K+CdW1yH4i+D9IvPEtxN4h12TUtKuLu4S7nQPMJrgTIrLCAVGBgAccUAfrZRXwz+wT8Z/i78e/hbrXxD+KFzZ31lNrFxa6Hd2VobJLuxtQsbT+Szu6h5g+A+GwOQK+mfi1f/FnTvCD3PwW0zStW8S+dEFg1i4ktrQwk/vCZIlZtwH3RjrQBu6/8QvAvhTXtE8L+JvEFhpWr+JXki0y0uriOGe9eLbvW3jYhpCu5chQcZHqK7CvyV/aD+Fn7eP7Q/hHT/Dmv+EPA+jX2ialaatpeqWOs3YvLC8tHDpLCZbZ1yRlTlTwfXBq98Y/2nf25/gJ4X0nVvG/gnwLeXms31rpOn2ljqd3Ne39/cnYiQQMse4lsFgG+UGgD9XK5nwr4z8J+OLG41PwdrFrrVpaXM1nNLZzLMkdzbnbLEzISA6HhlPIPWvPviZF8Y9R+FXm/DzVdN8L+M1hgnmmvbZr60iKJvuIxGrAtkgqrZ4681+Q37Ot9+094H+CetftN+CPGfh3UbTxpcSeLL7wZZaUz3l1dBgk9taCN2MMlyI/mZY3IJ37SQQQD9tdM8deDNa8T6z4K0jXLK81/w6IDqVhDOj3VmLlPMhM8QO6MSKdybgMjkV1eQelfgP4XWD4Zjxb8XPi3+1DF8JviP46uZdY17w9plvYapd2q7m+zWhDo8zSQxYTy0XCkFQCRk/o5+xvqXiPxj4a8Q+Lb74l+J/HelXzxWlk3iLQk0R4TErM1zaBY4zLFOsiYYggFMZzkAA+3M1yumeOfButeJtZ8F6Rrdne694eEDalYQzo91Zi5TfCZ4lJaPzF+ZNwG4civyJ+NNvefBH4h6d8K7n4tfG3xjrl/ph1RI/DsNhqJS2STySZEW38373VtpX1bJAPyv8OF8f6J448feMfEI+P2n3HiK/i+yXWmaCDeXVjBGFjOoGW2Kecp4Ai+QL70Af0kUmQK/Or9j3w1cfES30743aP8WPiHq2lWF7qNhLofimSxVJZrbzLWQXEVvCGGxzvQbwwZRuA5WvJf2jPh/o3h34r/ABP+M/7R/jrxH4Q+HcNlpg8ORaN4hlsHvrxI5ftUMVrG2WkO2MAbRySc4zgA/UE+P/BI8aj4cHXLMeKjafbxpZnQXps92zzxDneY93y78YzxnNdduHv+VfzN/BPTPC3jzTrj4p+NvB3xi1rUHnuoNI1LwvqU19HFpJIKwyX8lxkyBt3nBSiAjJUDmvo74a+ALD45aJYeP/2XdY+JQv8Awn4v0e11KHxL4iZ7aSzSWOa92qk7xSCOP5XXcTnI2njIB+5V5qOn6ft+3XMVvvzt8x1TOOuNxGapf8JH4f8A+gna/wDf+P8Axr8v/wDgo9YfCnUPiB8DI/jlateeA4L3XrjWI0E+77Nb6a8pI+ykTcMqn5Dnj0rwPxb8E/8Agm34X+JegaKfAVlP4B1HwnN4rvdfTWNYlW3gaZYbRVEVww/fHccHB49jQB+3n/CR+H/+gna/9/4/8a145EljWWJg6OAVYHIIPQgiv5//ANoj9mv9j/w1qvxF+H3w0+F0OfD3wzvfGcPiGLWdRnW3uyzrZRrG1w8bh1QyDdlSMcEGv2h/Z5JPwH+HZP8A0L+l/wDpMlAHsVFFFABWVrmuaN4Z0a+8ReIr2HTdL0yGS5urq4dYoYIYlLPJI7YCqqgkknAHNatfCv7f/ir40fD74Hax8Q/hfrGkWekaHZ3H9s2Op6eb1r+O5aKGNIm3hY9oZy25TuyOmMEA+1NC13RfE+i2PiPw7fQ6lpepwx3NrdW7iSGeGVQySRuuQyspBBHBHSs/wt408JeOLCbVPB2sWmtWdtcS2ks1nMkyJcQNtliZkJAdG4ZeoPWvx0021/a5/ZO+A+geBPBHi/S/inZ3sD6LpGn2FlMbvT5dSV5Yry6vA8nl2tnlvv8AlxqoUF1VQK878MzfDv8AZt8Caf4K0P8AbPu4p1mBn0rw9pdlrEsmo3ZDTeWqpNO/mSk4ZyScjNAH72Xd7Z2Fs95fTpbwR43SSMERcnAyzEAcmsLxR4z8J+CbCDVPF+sWujWdzcQ2kU13MsMb3Fw22KJWYgF3Y4UdSelfGN4nwym/Y2urr9rDxPqXijwZriLLe3viTTjpeowpdTqttHLbwKDFLDKV2MoB3bWHY18UftKeAfjvpvwL+HXwE8IfEXSPH/w5+I2qabpWka7fpLJrMchaXULSZLy2mETwxR26Ksmxmb2UgAA/aTxX408JeBdLTW/GesWuiafJPFbLcXkywxGadtkUYZyBudjhR1J6V0/vX4R/tD+JP2h/GXxL8Ffs8fFvxX4P8P3vgy7svGNx4hSC7ttItlg3Q6fa3UVxKy3Es9wNypvVTgDacEV96/s1eKvjJ4o8c3q+MPjZ4Q+JGj2diXl0/QLFYLmGWaQCCd3WRyI/kkXBxk/SgD7NfxH4fjdo5NTtVZCQQZ4wQRwQRntTf+Em8Of9BS1/7/x/41+GPgL4BfBPxhp/xE+IHjP4G6p8W9duPiN4qsGbR7v7PLbQQXjuhlVry1Qgl2AI3Nxg8AV1P/DOf7OX/Rk3jP8A8GcP/wAtqAP2ttdb0a9mFvZ30E8rZIWOVGY468A5rUr8dPhN8GPhV8Lf2t/gprXw2+HF38MJ/E/h/wAUy3+lahcNcXaPaSQRRGQ/aLlBlSWXY/3WG4BsgfobpHxwW7/aM139n3VtK+wXFlodrr2m3vnFxqEEkrQ3KhDGoRrd/LyA75D5O3HIB6Q/xJ+Hyad4h1d/EmnLY+EpJItYnN1GItPkiQSyLdNuxEVjZXYPjCkE8Guq0/ULHVrC21TTLhLqzvI0mhmiYPHJHIAyurDgqwIII6ivx2X/AJN6/bp/7Deuf+mq3r6xl+Oi/Af9lf4N6vaaXHruseJLfwroOm6c9yLRrm51GOGLCPsk5RSX2heQp6DkAH3JXH6x8QPA/h/xPo/grXNesbDX/EPmHTbCe4SO5vPJGZPIiYhpNg5baDgda5T4yaj8atM8M20/wK0jRtZ15rtFmh1u6mtLdbQo5d1eFHYyBwgCkAYJOeAD+d3x1+Fn7evxzh8L3d/4S8D6Fr3gvVYdX0nVLHWbwXFvPF96M7oCGhlX5ZEPDAD0FAH62UEgDJr8o/i5+1F+3N8F38L6Z4k8BeCNR1rxjqEemaVp2n6neT3t3cMPmZYikYEScGSQsFQEbiMivtD9qX4teKvgd+zl4w+LXhy1s7jXfDtlFcRQ3aySWpleaONg4jeN2UbzjDqelAHsfhfxv4P8bafc6r4Q1qz1mzsria0nmtJ0mjiuLc7ZYnZCQroeGU8jvW1/amm/8/UX/fxf8a/K/wAUn4Cfs4/FTxNf+O/Et7pvhn4+6ALvUPCGlaXqE6SXxGy8v4J7Al7YusgVtgVySWLZCkYfwr+Hf/BN74y+N4vh54I0rxM+uz2s14kN7f8AiuwDQW5USMHubiNTtLqMA55oA/XaGeG4TzIJFkXOMqQwz9RUtfnr+wBo1l4YtvjT4R0hpxpWg/EDV7CyjuLma6aK2txGkaCSd5HIAHUsSTyeSSf0KoAKKKKAOU1Lx14M0bxTo/gfVtcs7PxB4gWd9O0+WdEurxbZC8xgiJ3SCNQWfaDgcnipPFPjTwj4HtLS+8Y6zaaLb391DY28l5MkKS3VwSIoULkBpHIIVRye1fjj8ZNM/aX8fftw6H8MLv4h+GtEvfAunXPjjw/qcmlmPyba4u2sV0+dvMVpcxNl+Qr4JIrnfi7F8WPjN480fwp+0l8SdM+Hng/4QXz6jH4yW3js7bXNbl2SWf2C2uj5TizjfaXDSDJOfmcBQD91sj1qsL2zN2dPE8f2pUEpi3DzBGTgNtznbnjOMZr8gPhd8Q7vxz8YdJ8C+Bf2qPFnxBlhvYXujYeGLWbSFjj/AHzR3V9FCI445lUx7lfhmx1r6Q+M3gn4UeOv2m/D7+CPHR8DfHrw1Yx30YiyP7V0dzIPsVxHIBHcRMyEsFy8YywHQ0AfaOm+NvCGseJdV8G6VrNpd67oSQyX9jFMj3NqlwCYmmjB3IHAJUkDOOKbYeOPB+q+KdU8EabrVpdeINEjhlvrCOZGurWO4GYmliB3IHHKkjntX44+C4v20NT/AGjvi98YLfXfBWn654F0+18Na0Gsb99OuIIoV1JJ44luPN81Fk2ZL9Mjb3rgfgX8QPjF4n1fxj+0HpXxc8F/Ca/+Kd5FfHRtdtxe3yWVtGIbaT946GKOUBnRBuBUq2454AP3tu72zsIvPvZ0t48gbpGCLk9BliBWZ/wk3hz/AKClr/3/AI/8a/ND9rWy8ReJP2J/Ddn8UPEGm+N7zWPEfh4XOpaZB9nsL21utUTyzHGGbCmBlUkH5jkjGa8j8S/svfs06D4i1PRLL9jfxZq9vYXMsEd7a6nH5F0kbFVmi36qrbJANy7lDYI3AHIAB+xf/CTeHP8AoKWv/f8Aj/xrTtby0voRcWUyXERJG6Ng65HXkZFfjV4P/ZW/Zj8T+KNM8Pap+yB4p8O2moTrDJqF7qQNtbK2f3kvk6o8m0d9qk177+wvNcfD/wDZB8Sz+C9JTUJfDmteLDYac0zQpN9kvZvKg83ZKyhgoXdsYjrgmgD9BPEnifw54P0iXX/Fep22j6bAyLJc3cqwwq0jBEBdyACzMFHqSBUM3jDwrbeI7HwhcavaR65qdvJd2ti0yC5nt4SBJLHETuZELDcwGBkZ6ivzT/az+LFj8cP+Cddh8WdPthZJ4ml8M3clt5gmFtM+qWwmh8zau7y3DKG2qSBnAzivRvF3/J/nwW/7EbXf/Q4aAP0Jrm9Z8Y+FPD2q6PoWu6va2Go+IJng063nmWOW7ljQuyQoTl2VQWIXOAM15L4G+N7eO/jj8QvhLpmjj+zfh/Dpyz6stxuEt9fI0rWph2Da0SAEtvOc4wK+Rv2vdE+JfjT9rP4C+GPhR4gtvD2vabY+JNWjuby1F7bwskUNuJJIMjdlJpEX5hhmDdqAP03or4H/AOFX/wDBQb/ouHhn/wAJb/7bXpXwm8D/ALW+h+M4NR+L3xO0XxR4bSGZZLGx0MWEzSsMRv529sBTyRxmgD6urmNd8aeEvDGoaPpPiPWLTTLzxBcfZNOhuJliku7jG7yoVYgu+Odq5OK+Gv2yPD8ngDT9Q+OOr/FXx/oWkPPp1gui+FpLJkE1y6WyNFFcxEks5DON+Sc7QTgV+YPjs/EjxV8T/AGqn/hfeo+GfDct3fXNxf6BnVLS+Mey2k04R2whGc4lMufl+6M0Af0lZpCcV+LPwfN18Y/iVJ8JI/iv8cPBuvHTJdURfEcFhpoltopFiYxq9v5jYZx8wXHvmvs39rv4V+N/iJo/wy0HQtY1LTdB0zXkl8TalZar/ZU8Wkx2U6yTSTh0JHmbCQA3zEEjGSAD6u8YeO/Bvw+0pNc8ca1aaDp8s0dstxezLBEZpjiOMO+Buc8KOpPSur3D3/Kv5mtZn+C3xT+N+o/DrwJJ8Svin8MPD1uz30mm61c6tfXeoxyAQTW8EjrGlrGwbEzqSxAZdqlGf3zwVpvwQ8bfFrTPgPb/APC8vDfizV7aee3i1bXHhSCKKF3Wa4RLh5YomZdisyAEkduaAP3qrlvGXjfwf8O9AuPFfjvWrPw/o1qUWa9v50t7eMysEQNJIQo3MQoyeSQOteAfsteFvjD4C/Za8MeHPiCj3HxCsNOuTMmo3humN2zySRJPcKz7hyqsVZsDgE4zXg3j20/b4+JngnWfAHjD4c/Dy80jX7SSzuozrF9ykq4JXMBwyn5lPOCAaAP0ZtLq2vrWG9s5Vnt7hFkjkQhldHGVZSOCCDkGrFfkt4Y139vf9lz4CxWXi/SvAuo6B4D09w2p6jrV2Lg2sA/dI5ECq7gYRehY4HU191fsx/Ej4ifFv4KeH/iN8T9Ag8Nazrqy3C2UBcqto0rC2kIkJdTJFtfDYIzyFPAAPU08d+C5PGcvw6j12ybxTDaDUH0sXCfbVtCwQTmDO/y9xC7sYycVvvqNhG5je5jVlOCC6gg/TNfkTr/izTviH4T8K/tveOvEcHw08RfDPxhqGh3V/pOmXF8NT0OLUHsxp01ssryOZztG87hGzMyKpIIwvEXiv/gmT4x8VXfiPxHaeLP7V8SagZJppD4utIXu76boAJI4Yg0j4VVCqvAUAACgD9l4b20uGKQTJIwGcKwY4/Co73UtP01UbULqK2EhwpldUBI9NxGa/NDwZ8GfAHwJ/bz8JeGPhjb3unaXq3gfWLu5guNTvr9ZJ47y3jV/9MnmKkLkfLgfjUn/AAUh8N3fiD/hUEo0hNV06x8QXMt6bnQrvxDZxRGxmUNc2NmPNkQuVAAI+bB7GgD9G/8AhJ/Df/QVtP8Av/H/APFVbs9Z0jUJTBYXsFzIo3FY5UdgvTOFJOOa/AL/AIRPwH/0LXg3/wAMt4m/+Lr2L9iLwfPpn7aOqeIdH0G0sNBfwLdWxudK8Iaj4TsPtR1Gyby2i1DLSTFQTuDYIHA4NAH7G+KfFfhnwRoN34o8YapbaLo9goe4u7yVYIIlJxl5HIVRk45NbqSJKiyRsGRwCCOhB6GvzB/4KNfFa7Hw4+InwQg0mN7dvBo1+fUTcESRE332eOEW/lkMHKMd/mgjptPUd14R+J/7UHxgg1nw58Nb3wv4Q174fatd6PrcGqWd5qEUyGOGbTprZ45YCA8Dkybgfmxt46gH3J4X8X+FvG2mNrPhDVrXWbBZprcz2kqzRCa3cxyx7kJG5HBVh1BGDzWvfahYaZB9q1K5jtYdyrvldY13OdqjLEDJJAA7mvwd+EPxK/at+B37KWo/Fjw3rfhW48L6f4svra4sp9NupL2Se91sWlw8cwuEjCGWVnQFchMAknmv2M+LHgL4bfGL4azeCfi3BbzaNrMcZZZJRAyTBd6SQyEgpJGfmRgcgigD2HNcv/wm/g8+Mj8PBrVn/wAJQLL+0v7L89Ptn2LzPK+0eTnf5XmfJvxt3cZzX5o/E7wFqvwn/Zw0Sy+LfxR8YeNLPQfESWGhXXgu6gstYurW/P2OytL+ad2junjZ+WynO3rtyfz4XwzqB/a7bRf7M+Nef+ENE/2f+09P/wCEp/4/du/zvM8n+z8cbN2/zecYoA/permrbxl4TvPFV54HtdYtJvEOn28d3c6ekyG6ht5jtjleIHcqMeFYjBPSvh/9mfxLo/hr9nHx58TfBF/4u1eayuNVd7Tx1exXl5bXujxm3kgBtvlSIyQklQxO4scjOK+MvDnxJ/a6+Gtpqv7cmt+F/CWoab8WYvDCbft121zZ6fdPHBawQQBFA+acO+6RiGzyQAKAP2o1Txz4N0TxNo3gvWNbs7LXvEInOm2E06Jc3gtl3zGCJiGk8tfmfaDtHJ4rqq/H658RftAfG39r3xB8cf2c9F0PxD4b+G9g/g+0m1y9lt7Oa9lZbi/uLXyYnLOrbYSQ23anctx9I/Bv4+ftE6j+0jJ8Afjr4Z8O6RI3hmfxDDPod1cXRIiu4LZUczBQM+axI29hzQB94UUUUAFITilr4q/a80r9n28k8Kz/ABy+KeqfDNv9MWw/s7XZNG+3AeUZhIEyJfKymDgFd/X5sUAfaZdVBZjgDkk8CuYvfG/g3Tbq1sdQ1yxt7m+mW3t4pLmNXlmfhURS2WY9gOa/BT49/wDDH+haP4S/4Vl8dta8S3F74l0m21eObxde3WNGlnUXzuqOu1ViyWcYKjkV9d/Dqy/4JM+CNetr7wfqHhC71t7qOS3uL69k1W6F1vBjeOS9eZ1k34KlSCD0oA/UXXNc0fwzo194i8Q3sOm6XpkElzdXVw6xQwQRKWeSR2wqoqgliTgDk03Qte0XxRotj4j8OX0Op6VqcMdxa3Vu4lhnhlAZJI3XIZWBBBBwRXxj+314q+M3w++Bms/EP4XavpNlpmhWdwdYstTsDem/huGjhSOI7gse3cxbcDuyPTn4x0m1/a4/ZM+AugeCfA/i7S/irZ3kD6NpGm2FlM13YTakryxXd1eB5PLtbPJ+/wCXGqhVLqABQB+xfhbxp4S8cWNxqfg7WLTWrS1uZbOWWzmSZI7iBtssTMhIDoeGU8g9a3ru8tLC2e8vp0t4I+WkkYIignHLHAHNfgp4Zl+Hn7NvgSx8G6L+2fdw3PnhrjS/D2l2WsTSaldkNMY1VJp5N8p4ZyScjPWvv+4Hwyn/AGNr29/av8T6n4p8F64glvbzxJpp0vUYUuZ1W3jltoFVopYpdvlsoB3bWHY0AfZ/ijxn4T8E6fDq3i/WLXRrK4uIbWOa7mWGN57htkUasxALuxwo6k9KTxZ408JeBNKXXfGesWmiac80VuLi8mWGIzTtsiTc5A3OxAUdzwK/Fn9pXwF8dNI+A3w7+A3g/wCImkfEH4b/ABH1TTdJ0jW9QSWXWI5HeXULOaO8tphE8MKW8aq+xmb2UhRQ/aJ8SftD+L/iN4J/Z1+LXizwfoF74Pu7HxjceIUgu7bSbVLffDYW13HcSMlxLPcDcqb1UlQNpwQAD93Ac8ik3D1r4X/Zq8VfGTxR47vE8X/G3wh8SNHsrFnm0/QLFILmGSZwIJndZHIj+SRcHGT64r5t/a+034o/DTwZ8RPiH8PP2nNSHiHRZJL+Lw1LPp0aQQmVZZbZFCGbMVux8oEFmwoOck0Afqb4f8feCvFesa54e8Na3aanqXhmdbbU7e3lWSSzmcErHMoOUYgE4PpXW5HrX4M/ELwhonwn+GnjD9qfwV+1Xqt/4u1rRbWZlik03ztSkRP9DgkRFLcM+3IXcATn3+4v2avDXiTSta8Ma343/aRuvHWs3dgouvDslxp727XssAeVY/JAlbyWDFfUDJ70Aff1xc29pCbi6lWGJcZZ2CqM8Dk8Vm/8JFoH/QStv+/yf418Pf8ABTJNNk/ZF8QxayVGnvqugLclyVXyTqtt5m4joNuc18j23wX/AOCMTW0TT6p4d8wou7/ip9SHzY54+2etAH7SWmp6dfllsrqK4KckRur4z67SatySRwxtLKwREBZieAAOSTX5E/sFaL8DPDv7VXxz0f8AZwltJvAcGleG/sTWV1JewmRlmafE8zyO5EpbO5jjoOABXvf/AAUT+P1r8I/gZd+BtEvlg8a/EvOhaQgkMckS3RWG5uyUBdEhSTAdRkSMgHNAH2z4R8ZeE/H3h608WeCNYtNe0W+DGC8spkuIJdjFG2yISpwwIPPBBB5pPC3jTwl44tLu/wDB2s2mtW9hdTWNxJZzJOkV1bkCWFyhIWRCQGU8jvX5Y/ExviD+x34c8LeFbL4/aF8NfA0lslnodheeGP7SnzawxG5L3CODIxkfcXZQTuAOTkn5M+H/AMcdM+F2qeK9W8GftdeG7FvGOotq1/CPBk7Qfa3UK7xRb9se8AFgo+Y8nmgD+iesjXtf0Twvot94j8R30OmaVpkL3F1dXLiKGCGMbnkkdsBVUDJJOAK8u+A1t8SI/h9aX/xM8Y2njm/1Mi8ttRstPGmxNZzorwqIATg4Ock555r8Y/B/w48RfGGDx5c+J/AfxJ8f2UvinX7Pz9J8W29npjwQX8qJALS6u4yBGAFI2beOKAP3u0PXtG8TaNY+IvD17FqWl6nDHc2t1buJYZ4JVDJJG65DKykFSOCORWtX4C/FL4UeJvAHwk8T67o3w2+LXhkaDpNxNb3d143tXsrIQRkrJJDDflmijxkqik4GAK/YL9lrUL/V/wBmX4S6rqtzLe3t54S0KaeeZ2klllksYWd3diWZmYkkkkk8mgD2CTxDoMMjQy6lbI6EqytMgII6ggng0z/hJfDv/QUtf+/8f/xVfz6/DX4YeFPG3xF+PWr+If2c7r4ySWnxF8RxDU7XUrexFoi3LObVkluIGdgW8zcFYYcLuyNo2NM0L9m7WPhNL8cdN/Yv1CbwRDZT6i2pDW4BGLW23GWTyzdiXC7WyNmeOAaAP39s9W0vUHaOwu4blkGWEciuQD3IUmrjyxxnDsFz6kCvyo/YE+F9zoPxU8bfFXwx8K7j4X/D7xnoGiPo1tNdQXQmKmSWSQNHNK48xZFcbwpwcY4r1f8AaB8T/sL/ABK8VRaZ8YPifY6brfhVrixe2tvEs2lSwuzjzY5ktpoiWVkAw+duDjvQB9+/abf/AJ6r/wB9D/GnpNFIcI4Y+xBr8hP+EO/4Jgf9FdX/AMLrUP8A5Lr1n4Lax/wT9+GHjiDV/hp8VLS817Uk/s6CG68V3WpCQ3LoAiQXFxIhkZgoUhd3YHk0Afo1dajYWRVby4jgLZIEjqmcemTVX+3tE/6CFv8A9/k/xr4W/wCCgXgH4VXXw0t/jD8Rvh/L48XwVIiTJFq19pb2mmXk8X22cCzkTzigRW2N6ZBHIPxh+1b+yB+yx4M8I/CLxT8K/D88Fp408ZaBp88w1jU51uNM1EsXQeddPt3rj5lww7EUAftx/b2if9BC3/7/ACf41qI6yIsiEMrDIIOQQfevxy+Nv7KX7HXw5+Jnwx+EHhP4Wy+I/EvxC1GRJraTxJrkK2ej2yE3V4zrcyYKkqqKwAc7hkYzX6aeNPHvwt/Zz+GkWseMdUi8P+GNAt47WAzO80jLCm2KGIEvLNKyqAqjc7H1NAHX+LPHngnwJHp8vjXXrHQk1a7jsLNr64jtxcXc2THBEZCN8jYOFGScdK6yvxy+HvxN+HXx/wDilpv7V37S3i3Q/CvhHw6HbwH4Wv8AUbcSW6ucf2tqKhyv2mQDMcZJEfGPmQO3W/tSft2eDPBl34O+JvwQ+LeheI7DQL9Ytf8AClvdWzyarZXhEXmwSlS4ltyd4BkRNuWY/LggH6wUZHSuK+HXxA8K/FTwNovxF8E3gv8AQ9ftY7u1mAKkpIPusp5V1OVdTyrAg8ivkL4Q+PPiRrP7dPxz8B65rtxd+E/D+m6FPpenvt8m1a7t1MrJgA5aRHJyT1oA+8qKKKACiiigAooooAKKKKACiiigAooooAKKKKACiiigAooooAKKKKACiiigAooooAKKKKACiiigAooooAKKKKACiiigAooooAKKKKACiiigAooooAKKKKACiiigAooooAKKKKACiiigAooooAKKKKACiiigAooooAKKKKACiiigAooooAKKKKACiiigAooooAKKKKACiiigAooooAKKKKACiiigAooooAKKKKACiiigAooooAKKKKACiiigAooooAKKKKACiiigAooooAKKKKACiiigAooooAKKKKACiiigAooooAKKKKACiiigAooooAKKKKACiiigAooooAKKKKACiiigAooooAKKKKACiiigAooooAKKKKACiiigAooooAKKKKACiiigAooooAKKKKACiiigAooooAKKKKACiiigAooooAKKKKACiiigAooooAKKKKACiiigAooooAKKKKACiiigAooooAKKKKACiiigAooooAKKKKACiiigAooooAKhn+4PrU1Qz/cH1oA//9H9/KKKKACiiigAooooAKKKKACiiigAooooAKKKKACiiigAooooAKKKKACiiigAooooAKKKKACiiigAooooAKKKKACiiigAooooAKKKKACiiigAooooAKKKKACiiigAooooAKKKKACiig0AfOUP7LvwvP7Qd5+0pq8VzrHiuS0htLFb6dri10zy1KvJZRPkQvKpAYjheSgUu5b4I/4KG/tHeLvGWleI/wBmP9nGyuPE2p2enzX3jW60xVmbTdJiGZbVWLBRcS/xqNzqmQFLE7fePjhJ+298YPiDrXwb+E+nWnwv8CW/lxXPjO5mF1eXkMyB2+wQRlWRhzG2SGHJEiNg19G/s9fs2fDP9mvwT/wh3gK0aSW6Pm6jqN0RJe6jcH70txJgbiSThRhVHAFAFv8AZo1z4UeIPgV4LvfglLHJ4Nj06CCxRGBeERKFeKbHSZHyJQed+c17pX5i+N/2dfjX+zH441r4z/sYJDq2h6/M134g8A3cnlWtxNjJuNNbpFMcYK8ZBwNwCoPYf2iLT9or4r+A/APw68A6fdeB38e3MaeLdTtriKW40DTlhMs8MUoZSZpW/dLKikDkYBYEAHqnx+/ad+E37Ofh9NT8d6mJdVvlI0zRbPE+qalMSFWO2twdzbnZV3nCKSMkV84fs+/BD4qfFH4pD9rX9quzSw8QQxmLwh4VWQzQeG7KVRukkyqhr2X+NiMjqcHZHD5fpH7HXxL/AGWvjHefE/8AZ28L6N8TNG1O3jiFp4jvWi13SmjCgrZahMJFaJwDkNhgSBnAzXvbftIftUxgo37L+sM44yviDSCp9x+9zigD63+ImuWPhnwD4j8Q6m4itNM067uJWPAVIomZifwFfil8Ov2f/hj4F+HH7HPxL0Hw7b2PjPxTr+kyX+pI0nn3EM2mXdxtbLFcfKh4A6D3z9yfHq4/aO+Nf7KWq+FdJ+H0nhTxZ44vo9Bu7OW8gvH0/SLqfybm9kZGVHBgz8iMWAbd2IrnL/wh8TvGHxz+EXw20D4cXHhv4b/BO/lupdbvJ4ltr5bfT2s7RLGFC0hBMpJ3AABeoxggHxlqvgG2l+DH7RHxY8N6HZS+KfAfxZu9fjuxbp9s+z6TqMd1KiShC5GwM20naTyccmv01/Zg+J3xs+NcGofFTxpoen+FvAGuwQyeGNOSZbvUXtyWIu7maJjEonQqREMlcdfX5I+C/gj9tPQ9b+I/ha1+HHh/TvCXjjxnqWp3l7r2otI0mmXdwFuIo7W3V2bzrcMI2baMsNwwK9t/Zp8B/Hn9m3VvGvwSudH/AOEr+GOh2s+q+DdTW6CXCrNKzJoswmZm3pyFk+4FAP8AGEQA+df2srHVdR/bm8O2+kaX4v1aUeBp2MPgrVV0fUgBfD5pJ2mgDQjPzJv5bacHHFMeFfHGf+RI/aC/8LuP/wCWNcz8YPBXx6+N/wAfdN+Lfjf9nDxIdD03QH0hNPsfFNpp94bl5/O843FrPGTGFyuzdyTkjgVF/wAKV1T/AKNY+IP/AIcdv/k6gD6+/wCCaiSR/s4XEcsV1C6+KPEQaO+l867Qi+fK3EuW3yjo7ZO5snJrxL9pr4u6Xpvj6D4ueLf2erue68AXU+iWXiHxdf2+naEi3Eo23ESBp3lEhUGJxAxAbB2nO3qf2JD+0H8GPD+n/BnxP8D9V0zRrzW9RvG1ibWbG4isrW+madBKokeeV4wQjMMlm+bPOa9v/b18KeOvF/wW0qx+HfhqTxbrNn4n0G+XT0Hyypa3ayP5rYISLAw7kEKpJPFAH5Cy6N4D8T2/i/VZf2ovCXwtk8ZuJbnwz4Sl1H+wSQx5mJlhYvIuDJ5SRKXLEqykqftH9mv9pv4maRoMXwv+Enwr8JeP9I8JQI94/wAPNaSCCFbh22yC11JLclpXVyxE0jlgSc5zXsDar+17uP8Axi/4K6n/AJj9p/8AItXf2VfDHxgt/wBo/wCK3jX4o/DmD4erq+j6Bb20NhKlzp0rWr3W8w3EaorsA6lxtBUnnsSAXf2j5Dqf7SX7LE2qWf2c3Wp6209tNtfy/M0iQvG+MqduSGxwcelfA37M9z8Kvh9+0Z8Q5dV8MhfgP8WrnUfB2gajeusmmo2nsZrizw25Ra3DtN5TEhR5e1cjO39C/wBrn4P+Lvi58Vvg3p+iQalbaPDNr8GqaxppCTaVFe6a8Ec6SHOyTewCHae+a9L8S/sreGJ/2Zo/2afh7qD+DtOtLSO1tb+2giluITv3XEo8wHEtxuk3yKQ+ZGYMDzQB+Jnwd1rwd4T+Hv7SvhK1h1T+zfHHhfW7fwHqWpzmUajpGgm4t2soOoLQM+UCsSynGBsr9nfC3xC8afD39nL4V3/gn4fal8Qp7vRNNjlt9MntYHt0FojCRzdSRKVJ4wpJz2xXgf7YPwms9K+Ceg/AX4XfBC+8drpmiXdj4evrV4Wi0a5aD7Ir3DTurMXWQuSSd5BY8jI++PhF4c1Lwf8ACvwf4V1hQl/o+kWFpcKCCFmhgRHAIyDhgRnvQB82f8NMfHn/AKNp8V/+DHSP/kuu91r42/FjTPAvh3xTYfBPX9S1bWHuVvNHivNOW601YXKxtM73AiYTKA6+WzYBw2DxX01RQB8Uf8NMfHn/AKNp8V/+DHSP/kuuC/bu1jxD42/YW1qO/wBHn8Ma94vm0OwXTLpklnt57zVLaMws0TFGYJuPysR71+ilfE37Uvw/+Inxa+JHwe8Faboklx4C0nWZPEuvX6ThP3ukRl7G02D5yZZn3AnC5UZ6GgD5EuPgl8Mfgf8Athw+HPhh4ct/Dlte/CPXLq8hty5EtwZhGXbezc4UD8K8d8N/Zf2fPgX+yf8AtT+F/DBv/wCz7a70jWbXTobeCTUDrcDpbNcTMoGRcxRAO7ZGSMnOK+vND8PfGz4wfGLx3+0F4m+Gl54Mh07wLP4X0LS9RuIGvr24nkluJmPks6opZgqk9cD148/+D/wD/ah+I37Pfhv9mP44eB/D/hf4cW2jvY31xNftd62ZVjeSzuLeGJGhilhufLZg8g+Xdgk4FAH3h8Iofi54q+FWqS/tV6VosF3rr3Ukui2qfaLey0uZflsruRmeO4kVdwkdAEOcDOMn8trrw18BPix4N/Zj+D/wm07XNH+H3i3xj4k1O3imupor1bbTkuFkmgkDtJDA8kymM/KdrDcN5Yn6XvdK/bT1P9jPxp8G/EHh6K8+IlpMvhay1e3uo0TUdIm8uKTVQGKsrJbu6kD94XXcFzlaoaJ8Kfij8K/jHN450X4d3uu+GPgp4T0zwv4P0y0vLeOXWDfOh1C7R5nIBgVeRIUZsfxE8AHkvwa8X/Br4T/Db4geFPiX4S1T4j6Y3jPxDBpwuNHm8UbItFeKOFLuUxylPLc/uy/YFgc5NdN/wTG1z4Yz2+peILPQNStfiD8RVk1TVLqHQZNM8PW1vbSFYLHTnjUWwhiD5BUs8jFmZjgAep/CrSPjp8Bf2adcu734ZXviXxf4+8Sa5qtxomnXlr5+mx6y0kkbTyO4jfZhQ4jYkFh6HH0x+x/4A8VfC39mX4d+AfG9n/Z+u6NpccV5b70kMMrMzlC0ZZCV3YO0kZ70Afmdf+JfFPhH9iv9oPXfBetXvh7V4virfxw32nzvbXMQn8RW0T7JIyrDcjFWGcMpIOQSK9P+PvwB1/4afs/eM/iZ4d/aJ+Il1rGhaLNf28UniWQxvMkYYBlQhsEn+Egjsele9fs3fAmLWfhr8Vvh/wDHDwiZtH8RePte1JLHUo8RXdpJei5tZwoPKEqrKT3HSuz1f9hn9kTT9Jvb+0+Dmi309tDJJHbxwYeZ0UssaknALEYHuaAPM9Subm9/a0/ZqvL2Z7i4n8E69JJJIxZ3dorEszE8kknJNbf7Wf8Axbv42/AL49QboYbLxBJ4W1OVRuzY69C0casnPAuEQ7gMqcds1x3w7PxV+Lv7Ufw+8dah8JNY+GfhP4eeHNWsd2rvbnzpL02yQwwrC7H5ViJyR0HODjPrPxG8aftlW/jDU9M8E/B/w34j8NWdyrafeX2urbzTKqqyytAY38tgxIHOeM0AfHgyP2e/26lPVdc10H6jS7cGuz+HbXXxm+NP7P3w4hRn8O/BjwXpnirVSVRon1fULJbXTYSGw4aOPzZgy5HTPNeZj4Pft4f8IH8a/Av/AArDw95XxmvL28uJv+EgXdYte20dsVjXZiQKI9wLFck4PFfQvgPX/wBv3wJ4L8P+EbX4KeF7o6Dptppq3DeJAkkqWcQjUtiLjOM4yQCTigD9KMgDJr5s/aD/AGp/hh+zxpMQ8Q3L6x4n1IbdK8PaaPtGq6jMx2okUCZYKWIBcjA7ZPFebftK+Ffjz8YYvh18HvDsNz4Y8O+KJRc+NNa0662SWVraIsr6fDIjLLm5k/diRRtKghuCQfnHwb+yT8Xf2RPi9r/j/wCAvhLRPipoHiDDR/21efZfEmloNga3gv5w6Sw7V+UEqxwoY/LuYA91/Z4+AnxC8SfEOb9qr9qKKJ/iFeRNDoOiRv5tp4W06UHMMX8LXTqSJpRzyyg4Jrof+Civ/JlfxU/7B0P/AKVw1kt+0j+1SqYP7Lus7/bxBpBH/o2qv7SVr8X/AI3fsOeONMu/AF1onjXXbQQw+H4riK+uRtvYtv7yI+WSUXeQCdo7mgDxD46p8YH/AGrPgWvwPl0SHxN/wg+q7W8QJPJY+Rm38zK27I+/pt5x1zWx4Gj/AGho/wBuHwAP2gp/DM96fCPiL7CfDUVzFGIvPsvM84XLuS27G3bgYzX0/wDEb9kj4NfHyz8Kat8WtGu7rVPD2mpZ27QX93YPEkio0iN9mkj3fMozuzjFefWn7L/we/ZSe4+NHwX+Hmt+KvFdjB9ijsbbVrm7uJLe8kjWby1vp2iG0KHPQ4Xg0AQfsQf8hv8AaB/7KZrv80r71r4p/Yk8DfELw34U8eeMviVoUvhbVviD4u1bX00qdkea0t7pwIkkaNmUsVXJ6fQVl3ng744fAX48QeKPh42qfEH4Z/EjVT/bmjXNz9ouvD17cD/j/spLhwRZkj97CWwgwIxjaoAPuqiiigD8tvH3wO+GXx9/bx8Yw/ErQYPE+k+FvAOlIYJy/lw3txeXbxsdjKd3lhsc9Ca+N/gP4Y0fXPh9+wtovijT7fVrO51vxYzwXkS3EToyySqpSQMCAQpAxgEDHQY+w/CUX7QPwquvjB8dLv4S6h4m8e/FTxBNYWWl2V1EFsdJ0m3Ntpsl00jiMI7bmLRE7gwbjOF841j4A/tK/C7w7+yho/w18C2/izWPhjFqd3qxfUI7Wygu7q3SIxSSthsEuxVlDZK4xjmgBnwO8WftC+APiJ49/Y8+CfhqwjvfDni+41m517VsR6fY+HtXmS6iSK1QrLNI+ZUQIdvQ7l/h+zf2qrD4FN4n+D998U9DvdT8TTeK7Kz8Nz6SXivobuQln3Sxsji0AUNOpbbgAnla+cPHvwn/AGw9B8QeGv2t/D2iaJe/FjTppNM17w1o9zILPWPDUsoNvCZbkIv2y13HMvAI+YFggib0X4yeAvjbr37R178a9O8IjVbH4VeDLxvB1mZov+Jh4k1VWSY53jCwxqEKyKCc7kJJGAD4M8X+AtJ8cW/xn/aG87VdP1z/AIW7YeHrMR300Fhc2cV7Y6fM0kCN5cyv+9XLA8cdsV6B+2N8SP2eviBrfhz4cx/DW+0ybW9aGmeINZHgsnVpNO09HPk6XcvCWld3jVQ0JZkiJdMYyO/g+A/x50T4O/CX9lXQ/A9xeQx6ronibxL4rutQhNnFcreNqOoQlH/0iSVZQqqdp3Z7YzX0d8Urb4w/E39qb4X6VZ/Dq+0/wl8N9cudUufEc91bGzuoZdPkhQQxh/N3b5dpUrnIz05oA81/aa1rwVrv7GPg2b4daPe+H/Ddn4l8L2NjY39lLp9xBDZ6pFAqtBOBIownylvvDDc5zV74oeGPFHxZ/bV1/wCHE3xU8U+BPD+l+DdK1KKDQ9WksInupLu5iZiudmSoGSBltoycAV7l+3B4L8W+PPgzYaJ4M0m41nUI/Enh+7aC2TfIILW/jlmkx/dRFJJr0v4j/svfs/fF3xGPFvxM8C6b4j1gQR2wubyIySCGIsUQHOAAWY/jQB8e/DLw14q+Ef7bfh74bQfFXxT478O6z4M1LU5rfXdWfUIkuobyKJGVc7QQpPUZGeOteqf8E9f+SD6pn/obvFH/AKc5qq+J/h18M/2Tde0jxh8A/wBna48SaxqcN3bT3PhtYIpbSJfKYJN58ikrMTxtBxsOcHbln7MfhT45fCn9lC8kg8Iw/wDCwdR1PWNYt9Bv7tYFT+0L+SZIZrhdyqwjbdx04BwcigD4A+KDr4H/AGd/2j/2dGmix4A+IOi39jBGhXydK8Qana39spYkhipd17fd6Cvsj4v+KdK8DftnfDHxtr0og0vw/wDDnxLf3cjdEgthHI7HAJ4A9K88/aD8Mft3fHz4aap8Orv4O+GNE/ta60+6lvIPEKSSsdPuY7lAwMa7s+Xt5PAPFGr+Gv29tX+OXhD42y/CTw2lx4S0W+0ZLL/hIlMc6XpUmRnMeQV24Awc55NAH0N+who2qW/wV1T45+N18jXPi5qd34uu9xDmGyuQBYxblA3KlqiMPlB+Y5Ga8B+NPxQ/4JnfHvxVp3jP4gfE6NtW0m1azt5bHUtRsNkLvvYf6OqZ3Hqe+B6V9efB3xf+1XrXikaT8YfhlofhLw0trIVutO1kX0gmXaI4vI2JhWBbJHTGMc19Ef8ACH+E+v8AYtl/4DRf/E0AfkP4R8Af8EyPHvifTPBng74j6pqut6xMtvaWsPiPWjJNK3RRlgB06kgV7n+w94O074efHT9pLwH4fub6bQvD+raFa2KX15PevEpsnlkUSTszcvISfwHYV6J4t+LfxX8LeLdS0Pwh+zNqOtmwuHjstUgvNLt7ScD/AFcwdiJI1ORn5dy8jmuk/ZF+E/xO8C2Pjz4gfGqOytfGvxL159Yu7Owk86Gyt0hSC2tvN6SMioSzDj5vYkgHn3/BS8SH9mGcQxzyyHxB4e2pauI7hj/aMWBE5ICyHopJABwc181f8Ir44/6Ef9oL/wALuP8A+WNes/tyr8f/AIw+G9W+CXg34K6nrGkQ6ppd3HrcerWMEF3DZyx3UipG0izxs2GiBI4YbumK+e/+FKap/wBGsfEH/wAOO3/ydQB0/wCzVp+rab+3tawavpPjPR5X8C3zLH441ddZvmH22D5reZZpwkPZk3j5sHHevsT9sXUoPEfh+H4Maz8GvEPxU0jxND9slOlTR2dlDJp88cqJc3bzReSS+1gCfnUNjO1sfCXwu8A/HX4OftDRfGTwL+zj4li0b+wJ9Hn0+/8AFVpqV29xNOkonWe7uJNkaqm3YG5Jzjiv2V0fUdZ8QeB7PVda0eTQ9V1HT0luNNkkSeW0nliy9u0keUdo2O0svykjI4oA/n11Txv4A+Meu+FvETeN/h9+zSPB0UdpaSeHbu6ufEccULENaSTQLaQCAAkhWWUB8k5BIPd/Af4vXv7Pvi+90/4Y+JPAf7QXiLxpOsa6iNSutM8V39w7s/kTS3guonjHCxKZY1GMuf4q9k/Zq0D9rr4ffB7R/CcX7N3h/U0s5bwrca1qltZahIstzJIGmgaGUq3zdd5yOa3/AB94X/ag8c/EH4Py+J/gPo/hDSdA8X2eo3V/oOoQ6hMkaQzRnzkihiKQ/vNzPkgEAY5oA/Sb4ReNfHHjrw1PqnxA8C3nw/1S3uWtzYXlzbXbSIqI3nRyWkkiGMlioyQ2VPGME7XxD+JngD4UeF7vxn8RtetPD+jWWPMuLuURruP3UUHl3Y8KigsT0Fcn+0F4g+KHhj4PeJ9X+DGgt4j8aR2pj0y0Vox/pErCNZSJXRWWHd5hXcCwXA54r83tf/4J1+OvCs/gj4veENVtPiZ8RNDZbrXtP8ZzS3Om6teSMHmnti24W0qH5YsqVAVSwyOQDvdM0bxt/wAFCPFuleLvGmlXXhr9nXQbn7Vpuk3mYrrxZcQkeVdXcWAUslYExxk4fqQcgr+okcMNvCkFuixxRhVVVAVVVcAAAcAAcAV8NR/tA/ta6TGlhqf7Mt7czwqqs+neItLe1Jx/yyMjo+0dBlRXsfwW+J/xl+IOpatb/Ez4TXXw4srKOFraa71O0vmupHYhkVLVn2hAASWI6gAHnAB+UniP7X/w7k8U/wBn7PtX/CzbjyvMzs8z/hJV27sfw5xn2r0T9q+H9tZPhPbN8ZrvwFL4U/4SDw79pXQre/jvy/8Aadv5XltPM8YG/G7I+7nFfSP7P37N1h43/Zo174RfHnw5eW1jqXi3WtSNnJLLZTNGdTe6tZVeFldQflcEMM1tQ/8ABNz9k+wubfUoPDmpyz2MsdzCsmu6nIvmwMJIzte4KnDKDyCKALfiv/lIj4B/7J/rf/pwt6+aP2qvButeF/2m/Cmn+G9R8c+IbPxrput6pfaRpnjJ9FRJ7WS2WJ7d7m5gghijErAxK2WyMA7a9u+Fy/GP4wftdWfxo8YfDTUvhx4c8K+E7vR4hq00Ek95d313HKQiwOwCIsZO7Jzx0yK5X9o39nH9ov44/GnTfGcvg/4ea54a8KWupWGmWviS6vp1uY75oWW4nt4rSRUli8rChXI+Y80AfF4/4TCy8XfFS8v7H4kPYeAPDum6ynh1fiDJNeeXNLOLy6N7Z3M8bqkUQYQ7i42thcsAeq8F3d94h8Y/C/w/4l8L/Ebw/pHxYn8vSdTT4ozX6vAIDcNcJDazyOVSMBjuCjrk5GK7b4cfBv8AaT/Zv+M/jLxppXw80TVtMk0PTobnRfB2kfYdO1kyvcRiCCW8nCwvbu6y3LlZC8e1Qi4LVT+DX7Nv7Tn7Lvj3TPjvf+BrXx/b3Ud9ZQ+FtK1WV5/CdrqN2ZRFpwu3FtIoUrG+woFRTycs5APef29vg1pGgfBX4z/GVdSu7rUtb8LaZoZgnKtFDb6fcmVWRsbyzvIS+TjPIr0b42aD8XvhfH4o+Ovwl13wj4Q0h9Dt77XJ9U0qa5vr2fT7corPPHcRLjyljijBXII68gV6B+3F4P8AFvxE/ZT8d+E/BukXGra5qdkiW9lbgPM7+YpKgA4OBnOD24ryz4m/C744/tM/EW1+FfjPTU8H/A/wnPZXOosZUnvPFksKxzR2yqMiGzVuJt3zEgqATyoB+bH7Mvgb9pH4+fBfXv2V9R8R6N4Mjs57PxI2m6rpU7ahdWt/dLqcN7FOlwqNEblSpAQlQAGI3Cv2dn/Z+0v4s/DDQPB/7VOn6R481PR53n320E1pZ+Z88cTxxeczBhCwVsuQTkgDIA5D9pT9nDXvHF5oPxd+BepQ+Eviz4GjZNJu2XFnfWbf6zTL5FHzW8gHynGYycrjJrJ8X/EX9rPxB+zlo194S+HX/CMfFXxNfRaVcQS3Nvd2+hxyStHLqb/OBJEqLvRBvYFlLBgCCAfInw58I/C+P9gyaw8aeM/+FaeHfCnjbWL+11CIRSSQSaVrc0lrFBHOHEj7kUKm1ixGMHNfGPhHxN+1Bf8A7Q+r/FbxBrni3+3m8AzatpSWFlpMniOfwt/aiLbia1kt1tFLAtO6IGmyAFyDg/bj/sj/ABX+C/iPw/JdeCLD9o7wj4ZvLnWtJ+3XUGma1pWqagfM1DEcgW1u4ZpwJow+CjnOMxox6j/hJvjfF+0if2kv+Gb/ABd/bH/CMf8ACMGzGr6ObX7P9rF15oIffv3DH3sY7UAepfCHT/ANv+xH4z1X4a+NJvHel+IrPX9XfU7mKOG4a71ASz3CTRRBVjkWVm3JtXB4xjFfC3jLwn+0TY/sDfDnxDr3xF0u+8DNbeC5LfRodFMF5HFJdWn2ZDe/aG3NCSpZvKG/aRgZFffvw00HxB4n+Hnxk0TSPgbc/CPUfFsNxdhbq9s5V1XU7+CSKR1W3cpFt2IXLbQS+eu4188P+xB+1Drv7NHgz4e6j8VrlrnTrbw+bjwtqMFgmnWh0+SGV7cXtpBJM/2fy8RsHYOyjcxU5oA9s+M0vjT9kXX/AAp8W/hnbGT4MxO1l4q8MWFkhWzOozmU6xarColMgmceapLDZwqjOVj07U4tU/4Keyw2jny/+FStPG+CDifVrfBw2CDhc4Ir7V+JPiTxF4K8C3niDwz4VufGuo2Qi2aVZyxRT3ALqreW0xCZQHdgkZA45r44/Z78JfF/x/8AtSeMP2oPij4Fl+HlnJ4dtfDGkafeXEVxeyxJcfap5pfJZlQbwAB349CSAdZP+yr8ZZp5JV/aV8aRh2Zgqw6bhQTnA/0foOgqL/hlH4z/APRzHjX/AL86b/8AI1fclFAHxLY/ss/GOzvbe7l/aR8ZXSQSJI0MkOnbJAjAlGxbg4YDBwRxW38WPjB4r0nxdd+GD+z54g8e2Gmlfs+p266ZLaTeaisxhFzOsi4PyNlQcr3GCfr+igD8Qf2tfidqus6H8Pobv9nLW/CQg8aaDOstzDpardtFcqws18iVzvuMbF34TJ+YgV9ap8afEcUqyR/skeJEdGDKwg0QEEHIIP2jqK4H43eIPjz+0P4o8B/D3Tfgrrnhyw8PeNtK1a71rUbi1Fl9i0q68x5I9r+YfMVcoCuTnGOcj9R6APzu/br1/WvGX7CmvPcaNc+HNa8XtotimmXpQ3ME99qdtEYZPKZlLqpJO1iOOteBSfA/4Y/A79sHTfD/AMMfDlv4cgvvhPrtzexW5fEtx5qxl23s3Py4r63/AGp/h/8AET4t/EP4QeBtM0WSfwHp2tt4j8QX6TKoD6RGZLO02D58zTMCD93KgE8GvH9B0H42/GH40eM/2gfE/wANL3wVbaR4GuvDOh6ZqNxCb6+ubqR55mIhaREXO1VJ/XJwAfH3hoWX7P3wE/ZR/aq8NeGTf/2VBeaTrVtp0NvBJqA1uF47driZ1GStzFCA7Nxkjviv1v8Ag/F8X/FXwt1Sf9qjStGtrvXXuZH0W1T7RBZaXMvy2d3IzPHcSKu4SOgCHOBnGT8G/Br4C/tRfEL9nzwz+zH8cPA3h/wx8NrbSZLK/nnvmu9bZxG8lpPbwxI0MU0Nz5bMHk+6GAOcV313pf7al7+xn43+DWueHotQ+IllIPC2n6vBeJGmpaTMI4n1T5iHRkt3YMB+8LqWC7uKAPmnUPDXwD+K3gz9mj4P/Caw1rSPAHi3xv4i1GCGW7ljvBbaclysk1tIHZ4oGklUxkbSFI3DeST2Pwe8VfBz4Q+AviN4R+JnhHVPiLpT+M9bg01bjSJ/FOyHRxAIku5Wjl2bJGzGXx/Ew5ya9W0T4T/FH4V/GJvGujfDq913wx8EPCWm+GfCGnWt3bRy61JqDp/aN3G8zkL5CKciQozcY3E8dF8J9J+OnwH/AGbvEOpah8NL7xL4v8f+Jtb1efQ7C8tTcadFq5dojNK7iN/LCqHCMSNw9DgA8m/4Jja58MbqLU/ElpoGpWnxC+I6S6lqdzDoMumeHbW2tZCsFjpzxqLURRh8gqS8jFi7HAx6D8Gfgd8GfjX+0R+0f4r+IfgvSfFsVt4nsrG0uNRtI7kxtb6bAJ40MgO0BiM4r6Z/ZR8D+Ofg/wDsm+CvBniTSSPFWgaM3m6cJoy32nLyrB5oYxhiSFJ3FQe+KwP2H/hN4y+GXwhvNZ+JsRtvG/xC1i+8Ua5bjIS2vdRYfuEUltojjRFK7mAIOCRQB1n/AAxd+yV/0SHwv/4Krf8A+IrpPCP7L/7OvgDxFZ+LvBPw30DQ9b04u1te2enwwTxF0aNikiKCNyMynHUEiveKDQB+cnxd8eftOfED9oDxZ8B/hDZeCLvQfDmkaVqlxH4qsbq581r15gAPKlCHY0IIzHx618233xi+IHgv4S/tA6p478DfD6Txj8Hr/SbSFtP0Fm0+Vb0JJMWjkmWRz5bYQ70w3JBHFfRXjPwJ+1tp37W/jn4gfArSPD6aRrGgaLZveeJJriK3me2e4Ypb/ZYpnLpv+fcFGCME84+bfEvwB/ak8RfCD9qvT/GnhW3ufGPj/U9FnsI9HkL2V8tuiJI1o1x5b7UVefMVDuzxjBoA7jxz4v8A21P2ZvCUfxM1TSPhZZ6Pd32mWN0miaVew3ci31wkKf8ALdFO0vnknHUA113/AAUX+CHg+bwnf/H7UPOvfEcM/hbR7JZWBgsYRrUbzSQL/DJOJAsjZ5VFAxznlv2ivh3/AMFBPiN8LbPwn4o0PwZqmljVdGuJbfQLm+k1ILaXUcu5VubeGLam3MmXBwDtz0r6z/bp8F+LfH37Pd34c8FaTca3qjaxoU4trVN8pittRgmlYDjhERmPsKAOD/bC+LukeBtS8EeF5PiR4m8B6nqNteXMcPhzQodbe+ij8lWMqywTtH5J6bduQ53ZwMfHF18f4rK2lu7z9oH4owQQqXkkk8BWqoijkszHTwAB3Jr66/aI8M/H6P8Aae+EvxB+CnhC28RNoug63Z3UupXElnp8DXXk7RLPGkjK7BDsG05PXHWs74sa1+354h+GHizQpfhf4RnTUNLu4DHZa7dTXTiSJlxDG9sivIc/KpZQTwSBQB9r/DrxnoWufCbw749Gsvd6Rd6PbX51O/RLN5YDAsjXNwmESEsuXcYVU54AFfi3p3wTfQNU8Yf298LfBXj2e5utX8WLfv42ubW6bQry8lmiujaWkUg8hVYASLkMeM5r7b174OfGfxP+wZ4D+AfhG0j0rWdU0XQtC137fIIJ7HTjFHFflVG5WlVAVKbumcbjgHjfGHw0+Jv7PP7Ueh/Fv4W/DO7+IPg1Ph9D4Mjs9KmtLaayazuo5kLpOyLsZEwAoxn06UAfK0/wBvPjJ8G73xJ8NvgH4Ot9I8R6ZM1lrsHjfUJY7ZXQjzzHPAozCQSyShdpBDgYIr9d/wBmCzg0z9m74XaTBqFpqi6Z4Z0iza6sJluLWV7W0jhdoZV4dNyHDDrX53eFPBXxqv8Axb4d8FfCD4QeI/gz4V1XxlH4m8T3F9qtpNp7WawyC5sYbSKVgsN0xUNGikE442jI+hvB/wAFfjH+zJ4Z+NWk/B+O317whewT6t4J0NJDFd2GpXSSNc2iFwIlt1k2vCoOckrjOSQD8vNI8b/DfRND+Mfib4meFviJP4WvviH4k1q213wz9rsdJWK6uPsiJcXkTLGx8xAME4BYDrwfKNL0jwn4f+A2nfBnxT4C+Ktj8W/E+kahFpOn+ZfQaVf3W13UwWJZUlgVSrSosbDGcjmv0x+Lv7OnxC8H/wDBNOw/Zz8A+GLnxN4q1dNLjvobRlWRLiW8j1C8nfzWA4dCh+b7zA9Aa9K1f4MfHv8Aag8NJpXxm8O6d8KG8LxwXvhLUtO1E6lrVhrEGFS4lCKkBhaMESwh/m4GcgOADxf9gfVfBnhrxxo/w+tPBfxK0jxja+HreHWf+Eiku20mxbyo3ybeZ9tuJnUi3+RflDKMcg/THx+l+DnhP4u/Db4f2Pwl8L+LPGHxU1iZbl72wtlmisbeMzXt+8n2aVpWjUZ2sRuPVh1ryD9kXwH8b/2c/iLqXgX4nfDKbxPq3jW+kuNR+JVnqQvBfKnmvGb2OfE0CxqFSONRtye5JY+8eEvgd480D46fE39p/wCI5h8Va+LWXTfB2mWErKlro0SCUQgSqirdXMq4djuAPRgrFQAeKeN/gt8Hbb9vb4Z+GLfwJoMWj3ng/XbieyXTLVbaWaKeIJI8Qj2M6gkKxGRng16D4Dt/gs/7Sniv4DeMvg94U8P6xo8Nrrvhq7t9KtT/AGjp6sMzqxhUpPbzoCQudpwQSVzWJ8O4fjT8Z/2t/Dnxp8W/DDUfhv4d8IeGtQ0w/wBrXVvLNd3N/MjqIkgZuFCkknj8Tivav2ivgD4l+Jfjf4W/Ff4bajaaP4w+HOtLN5955nlXOjXeI9RtCIw2WeMBoyynDAgFNxYAEvx01H9onULzU/BXgT4Z6F4x8Hatp5trmbUtbk0+WT7QrpPEYltpflCkYbdnnpxX5m/tLQftEeAvhp8Evh5c/CzQ/DHh/wAM+M/D8OiR2/iKfUXkuYHb7PbytLbKyo5zulyxXsvav3er4g/be8A+NPH2k/CeDwZot1rL6P4/0PUr0Wyqxt7O2Z2lnkDMvyLwCRk8jg0AecR6J+1PD8Wbj43r8BfCjeNLjTU0hr9/Flw5WyjcyCONGsikeWJ3MgUsPvZr6R8caQfHP7PWoat+0R4B0a/1TSrG81W40JpzqGnrPYrLJABcPChO5FUsfL+UsQNwAJ+lB0rz74t6ff6t8KvGelaXbvd3t5ouowwQxjc8ssltIqIo7szEAD1oA/Jj4WaV4s8a+DND+I3gD9iX4eyaTr9pHeWc76hp6ytDKMqSJLEup9jXpfir4j/tA/B3wPrnjnVP2UfCOkaHoFlPeXj22t2mVt4ULSYSOyy3y54HWrv7PF7+3z8Pvgd4I8EWPwk8Nrb6JpcFog1LXJrW82xDA8+FYGEbnqVDHFT/ALQGo/t9ePPgj458F3/wk8NG21zSLuzk/s7XJrq82zRlT5EJgUSSc/KuRk96APqr9kz4QeE/hN8L1fwS13a6T4wm/wCEgTS5p/OtdLfUEWRrWzGxNkCE8DHJ+bAJNcd8L/Cms6Z+2r8a/FF1ptxDpuraH4YW2u3hdYJ5IvtaypHKRtdk+XcASVyM4yK+kPhNp2oaR8L/AAjperW72l7aaTZRTwyDDxyJCqsjD1UjBrz7wp8H/G3h/wCPfi/4t6l8Q9R1Xw74itYILTw1IrfY7B4kiUyIWkZc5jZh5ccZPmP5hkwmwA+gqKKKACiiigAooooAKKKKACiiigAooooAKKKKACiiigAooooAKKKKACiiigAooooAKKKKACiiigAooooAKKKKACiiigAooooAKKKKACiiigAooooAKKKKACiiigAooooAKKKKACiiigAooooAKKKKACiiigAooooAKKKKACiiigAooooAKKKKACiiigAooooAKKKKACiiigAooooAKKKKACiiigAooooAKKKKACiiigAooooAKKKKACiiigAooooAKKKKACiiigAooooAKKKKACiiigAooooAKKKKACiiigAooooAKKKKACiiigAooooAKKKKACiiigAooooAKKKKACiiigAooooAKKKKACiiigAooooAKKKKACiiigAooooAKKKKACiiigAooooAKKKKACiiigAooooAKKKKACiiigAooooAKKKKACiiigAooooAKKKKACiiigAooooAKKKKACiiigAooooAKKKKACiiigAooooAKKKKACiiigAooooAKhn+4PrU1Qz/AHB9aAP/0v38ooooAKKKKACiiigAooooAKKKKACiiigAooooAKKKKACiiigAooooAKKKKACiiigAooooAKKKKACiiigAooooAKKKKACiiigAooooAKKKKACiiigAooooAKKKKACiiigAooooAKKKKACiiigAooooAKMCiigAoxRRQAUUUUAGBRgUUUAGBRRRQAUUUUAGKKKKAEwD1paKKACiiigAooooATApaKKACjAoooAMDpRRRQAYx0ooooATAHaloooAKKKKACiiigAwKMUUUAFHWiigAooooAKKKKAEwKWiigAooooAMCjA60UUAGM9aKKKAEwD1paKKACiiigAooooATA9KWiigAwKMCiigAwKKKKACiiigAooooAMCiiigAooooATAFLRRQAYFFFFAB1ooooAKMUUUAFJgelLRQAYA6UUUUAFHSiigAooooAKKKKAEwPSloooAKMAUUUAFFFFABijFFFABRRRQAUUUUAFGBRRQAUUUUAGO9FFFABRgHrRRQAmAO1LRRQAYFFFFABRRRQAYA6UUUUAFFFFABRRRQAUUUUAFFFFABRRRQAUUUUAFFFFABRRRQAUUUUAFFFFABRRRQAUUUUAFFFFABRRRQAUUUUAFFFFABRRRQAUUUUAFFFFABRRRQAUUUUAFFFFABRRRQAUUUUAFFFFABRRRQAUUUUAFFFFABRRRQAUUUUAFFFFABRRRQAUUUUAFFFFABRRRQAUUUUAFFFFABRRRQAUUUUAFFFFABRRRQAUUUUAFFFFABRRRQAUUUUAFFFFABRRRQAUUUUAFFFFABRRRQAUUUUAFFFFABRRRQAUUUUAFFFFABRRRQAUUUUAFFFFABRRRQAUUUUAFFFFABRRRQAUUUUAFFFFABRRRQAUUUUAFFFFABRRRQAUUUUAFFFFABRRRQAUUUUAFFFFABRRRQAUUUUAFFFFABRRRQAUUUUAFFFFABRRRQAUUUUAFFFFABRRRQAUUUUAFFFFABRRRQAUUUUAFFFFABRRRQAUUUUAFFFFABRRRQAUUUUAFFFFABRRRQAUUUUAFFFFABRRRQAUUUUAFFFFABUM/wBwfWpqhn+4PrQB/9P9/KKKKACiiigAooooAKKKKACiiigAooooAKKKKACiiigAooooAKKKKACiiigAooooAKKKKACiiigAooooAKKKKACiiigAooooAKKKKACiiigAooooAKKKKACiiigAooooAKKKKACiiigAooprukaNJIwVVBJJOAAOpJoAdRVGy1TTdSUvp91FdKO8UiuP/HSavUAFFFFABRRQeKACioYbiC43eRIsmwlW2sDhh2OOhqagAooooAKKrtd2qXEdo8yLPKCUjLAOwXqQp5IHfFWKACiq8d3ayzy2sUyPNBt8xAwLJuGV3AcjI5GetWKACiiigAooqA3VsLj7KZV87G7ZuG7b67euKAJ6KKKACiiigAopCQoyelVrW+sr4ObOeOcRttby3D7W9DgnB9qALVFFFABRRRQAUUUUAFFFFABRRRQAUUUUAFFFFABRRRQAUUUUAFFFFABRRRQAUUUUAFFFFABRRRQAUUUUAFFFFABRRRQAUUUUAFFFFABRRRQAUUUUAFFFFABRRRQAUUUUAFFFFABRRRQAUUUUAFFFFABRRRQAUUUUAFFFFABRRRQAUUUUAFFFFABRRRQAUUUUAFFFFABRRRQAUUUUAFFFFABRRRQAUUUUAFFFFABRRRQAUUUUAFFFFABRRRQAUUUUAFFFFABRRRQAUUUUAFFFFABRRRQAUUUUAFFFFABRRRQAUUUUAFFFFABRRRQAUUUUAFFFFABRRRQAUUUUAFFFFABRRRQAUUUUAFFFFABRRRQAUUUUAFFFFABRRRQAUUUUAFFFFABRRRQAUUUUAFFFFABRRRQAUUUUAFFFFABRRRQAUUUUAFFFFABRRRQAUUUUAFFFFABRRRQAUUUUAFFFFABRRRQAUUUUAFFFFABRRRQAUUUUAFFFFABRRRQAUUUUAFFFFABRRRQAUUUUAFFFFABRRRQAUUUUAFFFFABRRRQAUUUUAFFFFABRRRQAUUUUAFFFFABRRRQAUUUUAFFFFABRRRQAUUUUAFFFFABRRRQAUUUUAFFFFABRRRQAUUUUAFFFFABRRRQAUUUUAFFFFABRRRQAUUUUAFFFFABRRRQAUUUUAFFFFABRRRQAUUUUAFFFFABRRRQAUUUUAFFFFABRRRQAUUUUAFFFFABRRRQAUUUUAFFFFABRRRQAUUUUAFFFFABRRRQAUUUUAFQz/cH1qaoZ/uD60Af/1P38ooooAKKKKACiiigAooooAKKKKACiiigAooooAKKKKACiiigAooooAKKKKACiiigAooooAKKKKACiiigAooooAKKKKACiiigAooooAKKKKACiiigAooooAKKKKACiiigAooooAKKKKACvz5/4KR/tDWHwP/Z51bRLG/W28UeN4ZdN09FYCVIHAW7uQOflhjfGehd0TO5hX1l8ZPjN8PvgR4FvviF8SNUj0zTLNSEBIM1xMQSkEEfWSV8YVR9TwCa/lt17V/jT/wAFMP2p4LGJlt4r5mjtLcKWtNH0a3kyzuVILhNwMr7h507BFKrs2AHu/wDwS9+L/wAA/gjq/iv4g/FvxrHoF3NBFp2mae8kxj2SETXE/lKNmTiOINjdlHOfmNfsf/w8c/Y0/wCik2X/AH7l/wDiK+V4v+CNfwXgXbH488RJnrti01QT9Pstfj1+2f8ABH4dfBP4zp8JPhR4h1fxHc6bDGmpPdCDct7Kd628C2yRhnEbIGVhku6KDzQB/Wl8NfiV4K+L3gyw+IHw81NNX0DUzMLe6jDKshglaGTAYA/K6Mv4V3dfMv7HPwg1L4E/s1+B/hnrcpm1TT7SS4veQwS6v5pLyeNSOqxyTMinqQATzX01QBymreO/BGg3rabrniDTtOu1VXMNzdwwyBWztJR2BwcHBxzXzH+1PYeCvjj8F9b8FeF/iJZaL4hCi60u5tNZjtT9sg+aOKR4plYxS8xuM9GyCGAYfNH7Yf8AwTi8Q/tQ/GKT4n2Hi/TdGgbTrOxFvd6fLdSA2plJYOk0QAbzOmD90V8rf8OVvFn/AEUXRP8AwT3H/wAl0AeZf8Eu/wBpmX4Z/G3W/hF8Q9VFvpfjN5WaW7uRIsGr2inDPPI5B82JGiZ87SYo8ffFf0L/APC1Phj/ANDdo/8A4MLb/wCLr8L1/wCCJ/ipG3j4j6Rn30u7I/I3mK+Qv2wv2FbT9kzwhp2ra54+0nV9c1mfy7LS7XTZYriWKP8A10xaSeULHHlQSV+ZiFByaAP6qtE8W+FvErSp4c1iy1VoADILW4inKBs43eWzYzg4zXkHx3/ad+Df7NlppN98XtZk0iHW3ljtTHaz3RdoFDvxAjkYB6kV+X//AARn+CPizwx4V8X/ABs18Lbab4sEGn6ZEqqDPHZO7TXGV42eY5jU/wARRiMrtJ+9/wBsr9mD4e/tE+BhqPjm4voZPB1pqN5ZfY5vJBlaAn95wcj5Bx6ZHegD+fM/tR+GPAP7edr8avB/izU/FXgiy8QTXEc959qaVdK1RP8AS4I4bg71WHz5I0QKNwijbBODX7+eBf8AgoV+yn8SP7e/4RTxdJMvhrS7jWL57iwu7SOOztiodvMniRSxLAKgO5j0BwcfgT+wH+zx+z98dNQ8WxfHLxQdAXTLPT5rRv7RisDJLcS3CyjMhG/ascZx23Z71237XX7GVv4H1rT2/ZT1GTxp4W1C2jg1MaXqn9raglwJw8ZurWA/LbghPLk5QSf6wxkKzAHkfh79q+/uf2xLz9oHXrzXNO07U9dj1G/g0aYW1zLZ2oK29lIJJlhcCJIopUlYqFMoQgla/X7/AIfEfA7/AKEjxL/33pX/AMm18U/A66/4JhfBn4Z6doHxhntvij42vC13fXFnYXl5DbF8bbWF8RKUiGAWwN77nAAIA8y+Jf7UP7FS+bb/AAe/Zw0NcLKqX2vyuqK4OEcWlvIxcYyxR5Ym6DPPAB+7/wCy1+2F4K/atXxI/g7QdU0VPDX2Xzm1E2hEpu/MKiP7NPN90R/Nu29RjPOPh79pH/gqxrfwH+N3iz4R2ngGw1OHw1cRW63U+pzQyTeZBHMWMaW0gUZk2/ePSvrT9gSz+EGq/BWz+JPw1+H9v8PtV8RpHFrlnBbywBryzLL8olJYxZdniP8AdfnnNez/AB/sPDnhX4V+OPiRZ+HNHvNd0jSby+hmvtPiuVee3iLIZR8juuQMjepI4yKAPx0/4fa+I/8Aomel/wDg4uP/AJDr87f2mv2zvFPx/wDi5b/FKyspPClxFp9ppxh03U7kAx20k0jETKsDZk84gjaQu0HJ7fSnhz/goL8fvGUk8Pg74S+Ftfe0SN5hp/gyW6MQlHylxFettBwQM4zg4r5h1Z/2jNb+OifHPUvhHeTagmpQ6l9i/wCEYuxppeFURUNoOsW2Nfk83k87uaAP0Q0//gtV4isLC2sV+GumOLeJIwzaxcEnYoXJ/wBD6nFWn/4LbeJFRmHwx0tioJwNYuMnA6DNmBk14xrf7c/7TnhrTZda8SfBLQNK0+AqJLm78DXEEKF2CKGkkvFUFmIAyeSQBzX6if8ABPf4j2P7Unwn1zxz8QfB3hmO8sdYksIVsNGitI/KSGJ/mR5LgltznncBjAxxkgH1t8R/irrXhj9mXxF8bNFtbcatpvhS51+3t590tuLiOyN0iPtMbMm4AHDKSO4NfhF4b/4K4ftm+LvP/wCEb8EeHdUNqEMotNF1S52b87d3lXzYztOM4zg46Gv6BfjN4An+JHwY8afC/R5YbCbxLod/pNu7qfJha7t3gQlUwdq7hwO3Svxb+G03hv8A4JM6N8QI/H3ifSvGnjPxbZ6YNJ0HSzIkyG0a7PnXpkLeTAzTj5zy20hFZqAPlr40/wDBQj9r34y+HLz4LeJvB1jpV3q6RzxnTNM1ix1SMRvuWWAi8Z8ZUg5jZWGVIIzXEfs0ftIftf8A7Ldr4g0/wJ4MfUbPxHPFdXEOq6Jqdyq3MalDKjRPA+912q5ZmB2g4ByT8zeIfiD8YP2h/ju/izV7OfxZ4t167XFksMmJlQb1tY4EZWEAiUqIgwJj3ZbcS9frHqH7aH/BTbQdLudT1T4Uvp+nadC0s003hS7iihiiXJZma8AUADvQByzf8FP/ANvRFLt8M9IAUEknw5rXAH/b3X2D/wAE8v28PjF+1f8AEXxJ4S+JGl6JY2ekaSl/C2mW1zbymRp1iw5murgFdpyMAH3r5e/Zl/4KRftKfHz43+E/hVqtrpM+leIbpra9NrpMsUqWxhdnkDi6l2hcLuYqQAee2fsP9g/9g/4gfsp/ELXPGXi7xDpusQato0OmrHYpMjJJDIjbiZOCCFIyMduBQB+p1FFZ2r6pY6HpV5rWpyrBZ2EMlxNIxwqRxKWZifQAGgDRor4n/ZUl8Q/EzXfFnx/8TXFwE1u5ex0uzaRvIgtICA2I9xXcGAjJxncjkHDcel/GL9pLwv8ACnWLTwhaadd+J/FN6EaPTLBQ0irJkKXY8AtjhRliOcYxkA+jaK+IrD9sO60LWrLTPjF4B1TwTaai+2K9uEZoVHTLhlRsDPzFQdo5IxX0B8XPiq/ww8LWfifTvD174sW9uY4Fh0za7hJEZxLk8bPlxn3FAHrtFfC3/DaGr/8ARIfE/wD3xHXZfCX9q21+KfxHHw2fwZqfh+9FncXkkl7JBiMW5iGx41bzAziUFflxgHJGRkA+t6K+ePjR+0V4a+Ed9YeGoLC58R+KNUANvpdiA0u1iVV3PO0MQdqgFmwSBgE15TaftiXXh3WLLTfjH4B1TwTa6g22O9nBaFfdgyodozlyudoyTwDQB9u0VVe+s47JtSknRbVYzKZSwEYjA3Fy3TbjnPTFfFl1+1/qfiLVb23+D/w81XxnpmnSeXLfwqyxP/1zVVY89V3YJGDjFAH27RXz38FP2ivC3xlnv9EhsrjQvEOlgtc6beACUKG2lkI+8FOAwwCpIyORUnxn/aI8JfBy4stEuLS513xFqYDW2mWIDTMpbaGYnhQxyFHJYg4HBoA+gKK+Hbj9rrxZ4VMWofEr4U634f0WWRUN5tLiMMeN6uqZb0UHJ6Cvsbwz4k0XxhoFj4m8O3S3mm6lEs0EqdGRv5EdCOoPFAG5RRRQAUUUUAFFFFABRRRQAUUV8t/tZ+GdfvfhwPHfhC+nsNc8ETLqkLQyMqvDGQZlkVSAyqo34OeFIHWgD6korzr4T+P7L4n/AA90TxvZAJ/aUAM0YOfKuEJSaI4zykisp57V6LQAUUUUAFFFFABRRRQAUUUUAFFFFABRRRQAUUUUAFFFFABRRRQAUUUUAFFFFABRRRQAUUUUAFFFFABRRRQAUUUUAFFFFABRRRQAUUUUAFFFFABRRRQAUUUUAFFFFABRRRQAUUUUAFFFFABRWXrZI0e+I4Igl/8AQDX8mX7HXwl8QftI/tJ2ngHXdc1JvDltNd3+qol/cxsbC0lIaMMr5Bmdo4uoOwyEEOoNAH9cNFfEH7Qfxx/aU+E3i+x8MfBb4HH4geHf7Pgl+3pqSWSRTl5Ea2EbIf8AVoiNnPO/GODX56fDD4gf8FBvhj8YfHHxItPgnrGs6F41KyDw/qGurcxWEyvvVra5ld3CgtINgjUbXVBhYkyAfvVRX4HeLPHH/BQfxP8AtEaB8fNc+COtWmjeFLJ7e28PW2s/ZLHLgtLPczxkNKC2GZGj2kIgOQvP318Ev2vfG/ifwN41+KXx58CwfD7wd4Ts0vI9TtdQ/taK7ALidEEUYO+PanCg7i4A6UAfe9Ffix8HPjr8S/jl8VPFP7a3iGXXPDPwg8Cabex6FoFtLsk19beNvOX7OH23JjY75HGV83yokb93Lv8AFf2y/wBvG38Yw+BPHvwms/GXhbV/BOsJdTQ30NzY6Te25w2y5RWEbv5iIilxxHJKB8xUUAf0I0V+bPg7/gph8NPF+saDoNt4E8XW9zrt1Z2ivJpbLBHJdyJEHeQnaI0L5LZ+6MjJwK/SagAoor88f2pfiFe+MfFun/CzwVFd6kNFk+16kum7mmaQDaYlMZyDFGxJJ4DsmeVIr6Dhrh+pmWKWHg+VWbcuiS6vVem/U8PiHPIZfh3Xkru6SXVt9Fv6/I/Q6iviLUv2uL/wpZ2w1n4aaxpkDYhhNy6RByi52qXxuIUZwMmvtDTrtr/T7a+eJoGuIkkMbfeQuobafcZwazzfhzF4GMZ4mFlK9neLvbfZs0yvPsLjJShh5XcbXVmrX23SLtFeBfEf9ofwl8M/Ef8AwjOsabqd3ciFJi9pamWPbJnA3DvxyK+O5PjxaaR8c0+JHhuDXJdA1CExahYXMM52lhhjAhJUYZUdRxg7wPvDHs5NwHj8ZTdRQcVyuUXbSXZXvpfozyc340wWEmqbmm+ZRkr6x87dbdUfqDRXybZftg/Du91G00xdK1eKa9mjhjEtpsy0jhB94jIyecV6J8dPiLqHw78L/bbbw9ea3Z3aTx3U1q5jFnGE/wBa7j7g54ORjHWvMnwpj4V6eGq0nGU9r2V7b7tI9GPEuCnRqV6dRSjDe13b7k2e3UV+cHwb+OHi/wCFngOxtPGPhbVb7w7JOZoNZlDbPJujuQb3GJC7nKkHDFuMCovhh4l/aNl1fXvin4Y8Jvr+n+LZDLGLu/S2to1R2CtFE8i5+TagfaAVUYJ5NfR1/DnEU3Wc6sFGLtGTlFKbvtdytF2u2m7ra2tz5+jx/h5qjy0pOUleSUZNxVt7KN5K9kmlZ99LH6SUV4H8IvHvxV8ZapqMPjnwzY6NYWibUns7+K8zchhuicRu20hTk5HpXyTbeIPH3iPW/Gmo6l8VpvCGl6JrD2Mf2hXmRjK0jIibHTbtVOnP+Pm4DgurVq1adSrGPIo3avNe87JLk5rs9DG8XUqdOlUp0pS572TSg/d1d+flt8z9MqK/NT+0tS/6OQh/8Bp//j1ZPiPXfiB4e03SfEuhfGCXxZZT6xaabMlskkIRpWRyGLu+coemOh6168PDmUpKCxCu9rwqr8XBL8Ty58eqMXKWHdlvadJ/gpt/gfqDRXH+JfHvhXwhqOjaT4hvhaXWvzm3s0ZWIkkGMjcAVX7wHzEckAZr58+Juq6pbftN/C/Tbe8nis7mO782BJWWKTEE5G9AdrYIBGR2r5DK8jq4mTT91cs5JtaNQTbt91vJn1WY5xTw8U17z5oRaT252kr/AH39D6zor5G+B+rare/HL4tWN7ez3FtaTWvkxSSs8cW6W4B2KxIXIAzgDoK9/wBB8f8Ahfxnaa0fCt+LuTRZprS62o6+VcRZBXLAA4I6jIqs1yGrharpr3klBtpaLnimr9t7eYsszmniKam/dbc0k3q+STTt91/I7qivzm+Fuk/Gz4qeG77xTB8U7jR4bS7uIGhliM7bYArF8rJH8uHAxt4x15roPAvhD4sfEXw9/wAJR4Y+NNzLp4kliLTafLCwaE4f5WnzgHv0r6LFcD0qDnGrjILkaUvdqNJu9ldQa1s/uPAw/GFWsoOlhJvmV171NXStd2c79V06n3zRX5neD/G3jtPHPw7u7P4j3ninQ/EmqNbSK9rJZjEGQ6MkrOWBOORjGK+8/id8O9B+LHgHWvh94lDiw1q3aFniYpLEx5SWN1IKvG4DKQcgivE4k4bnls4RnNS5k3opK1m4tNSSad0+h6/D/EEMwhOcYOPK0tXF3ulJNOLaaaa6nfUV/Kf+yNo3j34e/wDBQTwr8MfGGq3tzeeGvEN1p06y3MrxyNDZ3a+YFMjriQBXHpnFf1YV82fQBRRRQAUUh6Gv5VP21LDx34x/b38XeAvCOo3qXet67p+n20MVxcJEJLixslUlYjwil2kcgD5VbkdaAP6rKK+LPFNt8Qv2SfgJ4Q8H/s9eAZ/ideabMtndQzX3kTsrRSzT3007I255bgAEYAzJxtAxX5y+OfH3/BQXxR8efB/x08P/AAU1jw6/hqNoLvRl14XOmanC25WEkLSRpExR2XcqN82yQgmMKwB+9tFfg1+0l4//AOCh37Q2haB4ZsfgXrHgrTNM1GLUbv8AsrVlM995BzHD9oQxPCoOTuQkhsHGVFfZX7Pn7U37RXxD+Jtp8NvGnwZj8L6Vp6PHqd7/AG4NQudOMcWYluY9gbfIQBl2yeWJz1AP0bor8bviN8aPGn7avx+0v4S/AjW9R8J/Dj4d6olx4h8U2txLYGe5icxeTG6shwSWjhjY5kdvNZfLjQS0f2tP25vBXjz4S+OvhZ4Z0bx34f163SeKz1OwtZ7ZDc2MhKh7iFgTbTlNkhzgxsT1wQAfs/RX4v8A7Ov/AAVA8PW/wZ8K6b8Q/CnifWvEGn2os7m/0/T2ure7NuTGk3mIAN7qAZFH3XyuTiv1u+HfjSz+I3gLw74/sLO40+28R6fa6hFbXaBLmFLqNZFjmVSwWRQ2GAJAOeaAOyorK12/udK0TUNUs7STUJ7O3lmjtov9ZO8aFljT/acjA9zX5yaP8X/iHefG3U/Hvh/wZrN2kNmljqOjK0k7QSHoxGCsRLIp24H3WxyTX0/D/C1bMIValNpKCvq0rvotWrX77X06nz2ecR0sDOlCcW3N20Tdl1eid7dt+vQ/TCivzU8W/FH4jfHLxn4eb4W6Je+Z4UjS9u7NLlbbF0ZMSRyzFkGwbDF1ywMgAIr3Cw+K37SLa/YaJqvw90y0a7lXcg1a3aYQBh5siR+ZubYpJOB2r08XwDiaMIudSCnZuUXOEXHto5a3WuiPNw3G+GqVJKNObjdJSUJyUu+qjZWemrPruivm/wCK2jfGmw8b6N43+Gep/wBoWcKi2u9FndYrcxE5eUnvngFsF0IBXKl0b5YufjxquofHKx8faN4Y1wJZWDW1/o7EvL8/CyLEp2pjK53AEn8KzyjgirjaftcPUi1ytuz1UltGSbTV+j1RpmnF9LB1PZ16ck+ZJaaNPeSave3VaM/TeivzNm+Mvivxl8bLf4ieDPDWr61Y6NYR276bbeb+7mZX3eeItyEq7uvIO4qCPuivsLwB418a/E3Rdestd8N6h4DuEj8m3nmQ+bmVCPNiEqBSYz0yCM9RWeccFYnBU4VKrVrJy1V4tva13J20d0jTKeLaGLnKnTTvdqOjtJJb3skr6qzZ7hRXwqPEfxX+F9l4n8G6Z4qj+I2tWsdvDYWSDzNQtBcMUNxPk73EeUBXex3OHcxx8jxuHWvjB8Etb0n4b/8ACbWMF3rTJPdGdvtS2MkoCj7RNKCRuxnCgD+I4BzXpYTw9nX5vZ4iN94/F70bczdrXVk1utW7J9/PxPHMKLj7ShLtL4fdd+VK97O7T2ei1a3t+p1FfHXwn8W/Gq6+NGo+BvGmqxarpej2TTTzw2ghheSURmHy3KqW+84OCRlSPSu7+O3h34sSHTfHPwr1icXmgB2fSQAYrxWPzHbx5jY42MeRyhV8GvDrcMuljIYSrXguZJqV3y6q8U9Lq+m60TuezT4hVTCzxVOjJ8racbLm0ettbO2uz1asfRVFfA/x5v8A47eDvC8nxVHi6TQ7adbUNodvGjm1leMeYouWDKwDAn7n8uaPi0/HT4XeIvAj678R5dctPEesWVo8MdqkAEbyxlwxYvkMpK8YNerheBXWpwnDFQvPmSXv7xSclfltonvez6Nnl4rjRUalSM8NO0OVt+5tJtRdua+tnpa66pH6DUUda/mT/wCCn3wY1b4JfHbS/GXhDUdQsvDPxFke6+zxXU0cMGoJKDeogRhtEvmib2Ytjrx8EfbH9NlFfO/7I001x+yx8Ibi4dpZZPCWiM7sSzMxsoiSSeSSa+iKACiiigAooooAKK+Cf+CmM08H7Hfi6S2lkgk+3aEA8TtG4zq1qDhlIYHHcHNfn/8A8Ehfgrqni671f9ofxvfXuoRaLK2m6NFcXEskIuzGftVyFdiNyRyCFeOMuec8AH77UV+QWvfFv4gftUftPSXHwc1rUdC+F3wSh1GTUdTtZHt01XV4UIFsOQJE3Lt2MGBiDuyqHgZvgzSv22vE14/hv4n698TBL48s/h74niknYQoE1ppC2nxtaxxLbGTBAjBiOR97JySAf04UV/PZD+2f4v8ABf7QPgH4weM7LW/GthYfCbRH1qPScJCt/qUf2uS9uYwY7WJQZGUsQuCQBwAB+vng79p3wl4k/Zq/4ad1zTbzwv4eGnXOpm31EILgQQswjI2FlbzwFMWD8wde5xQB9L0V+Bv7Lvxg/bL8H+DtS+Nfh74Z33xUt/i3qF7qpiOrzW9rpXk3UibIoZlkjUTNISjJjdEka8hQTf1b4m/8FAL39o7SPj9pvwL1aytLHTH0268PPrguLC6V8/vY9zKlvJ9wkrE24rzySQAfvHRXwN8C/wBo79qv4h/Eaw8L/E74ATeBvD1xHM0+rnVEu1hdELIpjWNfvsNvXvXjX/BRfxx8QdA+IvwX8J+FfiNffDXR/Et9d2+q6naz+TFBAPL/AH0xJC7YwSfmIAzQB+r1FfiB/wAInB/0f/N/4M7X/wCP11f7F/jP4gR/th+MfhnefGO/+LvhHTvD8V1aX8tyJ7SSeRoy5TYzJujLFCQc8HNAH7KUUUUAFFfEnxt/an8Q/C39qD4U/APT9EtL2w+ISO815LLIs1vsZwdiKpUjCDqw5PSuY+MPxq/bo8L/ABI1rQfhP8B7Txb4TtHiFjqkmsW1s1yrRIzkxSSqy7ZCycgZ2570AfoFRX4k/FH/AIKKftffBbU9M0L4n/BDS9C1TW1ZtPtP7WF5cXO1ggCR2fnNlnKou7buZgq5NfXnxl/a48a/Cj4wfBD4VSeGbSSX4oIv295ppEksZA0ayKihSG27yPmI5HNAH31RRXxn+2F+19pH7LehaJa2GiTeK/GXiu4+zaRpMBYeYQyo0khRXfYHdEVY0Z3d1VV5yAD7Mor8hrj9tn9r74Fy2Hiz9rb4M2+heAdVulifUtLu45ptOWQHak0cc9wHfjd85h3D5FBlwjfUn7Q3xu/aU8JXfhu6/Zu+FkPxO0TWbE3U94L1LdYmYgxBdzAMHQ7sigD7Vor8Wvid+33+2t8GPDD+M/ip8AbHw1oySLCLm51RXDTSZ2RqsW9yWx6YHcgV9jfHH9sOP4D/AAJ8HfEDxJoDX3jXxxFaxaboVuz/ALy+uIRIyFwrPsTcB8qF2JVVUsQKAPt+ivxu1j9tz9tb4Crp/jf9qP4N2Om+A9TuUja4065jFzZJISfLcJcXKtKEBZRIIVkOEGJCEr7n/aR/aw8C/s+fAyP40FP+Ehj1iOEaHa20gX+0ZrqPzYtsmG2xCMGR3AYhASFY4BAPqqivxp179tb9ur4QaVD8Xvjj8FtOsfhpdzQhjbXQjvbKG4cLH5p8+Vtz7gE82GABsLIUJBH2V8ev20fAHwc+AegfG/Srd/Ea+NVt18P2SMYmvJrqEzpvbazIiopLYVmJwiqzMoIB9mUV+QGtftaf8FBvhnoL/F/4q/A/Sofh/GqTXMFpfA6jY2zHBlmKySnBBB5iUR9ZSi5K/Svxq8KaD+3P+x+niL4fT3FhqGs6aNZ8PT+YbaeC/jRisEjrnCuwaCXGRglh0BoA+6qK/mU/4I++I/E2qftT6vaaxql1eQ/8IreSLHNcSypk3NoQcOxGQDjPUc+9f010AFFFFABRRXJeOPG3h/4e+GL7xZ4muVtrGxQsST8zv/DGg/idjwAK1oUJ1Zxp01eTdkl1ZlXrwpQdSo7RSu29kkdbRXhHwIm+IWuaHqPjjx9cyxHxLcm6sdNcALY2ZGIlGRuBdcEg8d8ZJJ5H4beMtY8DfEvW/g78RtRluZdSuZtR0C9u3J+1W07Fjbh2/jiOQq56AgADaK92pw7Pnr04TUpUldpa3X2rd+V7+V2tEeNDP4ctCpODjGo7JvSz+zftzdPOydm7H1LRXDfErxnY/D/wNrPi6/lES6fbuyZx80xG2JAD1LOQAO9fN/wTvP2h9C0LQ9G1rwrHe6ffTLPc6ld6qWuY4bpg7sIHViPLUnbHuHTHBzUYHh+pXws8Upxik7JSajfS7tdq9tNFd6o0xmeU6OJjhnFttXdk5W1sr2TtfWzemjPsmivgvx94q+Jll8JPF/hzxpPc/wBreH9d0+KDVYx9nW+s7m7jaMo0QRdyodrqvQYznJr3vw3q/jvxJ8XtQjBuNN8JeGrGK22SRgLqV5cKshlRmG4pGvAZTyevWu3FcJ1KVGVaVSNlza30aSg1Z9ebnVlZW621tx4bienVqqiqcrvl0tqm3NNPty8ju7tPpfS/vNFQ3MAubeW2Z2jEqMhZGKuu4YyrDkEdiOlfLHw91vX/AIU/E4/Bbxjqc2raVrUcl5oF/dyeZP8AKf3ttK5O4kHkFu/Q8gDycvyp4mnVlTl70FzcvVpfE15x3a7XfQ9PHZksPUpqpH3ZO3N2b+FP1el+9l1Pq2iiuG+Jfi+TwD4C1zxlDbC8fR7V7gQsxQOU/hLAHGfXBrgw2GnWqRpU1eUmkvV6I7cRiIUqcqtR2jFNv0WrO5or5Q0/4r/tG6tYW2q6d8KLee0vIkmhkGtQLvjkUMrYYAjIIOCAfUVc/wCFj/tMnj/hUlv/AODu3r6GXCOJTs6lO/8A19pf/Jnz64swzV1Cp/4Jq/8AyB9R0V5D8FviVqPxR8L3mt6rpiaTd2OoXFhJBHMZ1D2+0N85Vc/MSOmOOCRXrxrw8fgamGrSw9ZWlF2ez/FaHuYLGU8RSjXpO8ZK63X4PUp2mo2F+ZlsbmK4Ns5ilEbq+yQdVbaThh6HmrlfM37OqqurfFPaMZ8W3Z4/64w19M10Zzl6wuIlQTva34pP9TDKsc8TQVZq17/g2v0CivF/ip8a/Dfw2t/7OgU614nugFs9JtcyTyyOcJvCBiiZ6kjJGdoJrxFPhr+0BBYD4ujxA8njnzDO+iFv+Je1lj/jyCZ2hwOQc/e43Z+evSy/hqVSkq2IqKlGWkea/vP9I95PRffbz8dxBGnUdKhTdSUdZcv2V+su0Vq/uv8Aa1FeP/Cz4zeF/idZeRAW0zXrYEXml3QMdzA6nD/K4UsoP8QH+8AeK9L1yeW20W/uYH2SRW8rqw7MqEg/ga8fF5bWoVnh68eWS6P+tvNHrYXH0a9JV6MuaL6o1aK/Ob4f+N7TxH4P03W/Fn7QFzoerXSM1xZGSwHksGIA+eLPIAPPrV3X/HP9hal4Zbwh8brjxbcX2s2VrPZeZZEG3lY72PlRhscBevf1r7Ofh7XVaVD2i5k2vgqW08+S3zvY+Qhx5h3RjX5NGk/ip318ue9/K1z9DKKbk4J69a/PTxP8SrpZvF+pal8RvEfhPU9JnmaLQZrS08xg7EQJbHym8xDxzuJVeWPc/PZBw7VzCUo05WtbpJ7uy0im/nay6s97O89p4GMZVFe9+qWyu9ZNLbpufobRXwVqMvx48D/Drwz8Xr7VZ9Y1fSYruXVdLuJQIzZ3fzRl0j2qXgwuWAyB6ANXefCH4sOlxovhC61q5+IGv+JGfUb64tFUWmkwyrkRnIUqqsMbCdwJ6AYFeniuC6saMq9GpGootp8t943vrayVkmm2r3SV2efhuLaUq0aFWnKDkk1zW+0lbS927tppXtytuytf65or5H+JOt+PNQ+Nk/g7RPGdx4U0ex8OLq0zQ29vONyTTK5ImjY/dUd8cdKqfDb4tfELSPhdoXiDxLoeteOrzxBJd3Ec1hbRs0Nqr7YBKEWNQXXkcVi+D67w8K8Jxbly+7dp+8m1q0o7Rd/e/M0XFdH286MoSSjze9ZNe64p6JuW8l9nufYdFfA3gX44eLrT4k/EC9m8I+JdZhu5bExaZGhlk0sLEwKyRM+2Iy/eAXrjJzX2j4N8RXPivw7a67eaRd6FLcGQGzvk8u4j8t2QF1HTcF3L7EVyZ7wziMBZ1bNNR1TW8oqVrXvptfZ203R05LxFQx11TumnLRp7Rk43va2u9t1ez1TOiuLi3tIJLq6kWGGFS7u7BVVVGSSTwAB1JoguILqFLm1kWaGVQyOhDKynoQRwQfWvPvjCqv8ACfxirgMp0i+BB5BHktSfB4AfCzwoAMAaba/+ixXn/UF9T+tX15uW3yvc9D64/rX1e2nLzX+drHpFFUdS1PT9GsLjVdWuY7OztUMks0rBERF5JZjwBXw/4v1/4j/tFayB8J2TT/CHhy5RxeXs8tmmo3cZyQBEDI0SDjHy5znIO2uzI8hnjJOUpKFOPxTey7Lzb6Lfrsmcec53DCRUVFzqS2it33fkl1b06btH3dRXwzrnxR/aR0LxlpPgTzPDGqa1qhDm2sY7iRoIM8yzs8iCNMA4PJOOAa+4IHLxLvZWcAbthyM45x7VOcZBVwUacpzjJTV1yu+nfpo+nezKynO6eMdSMISi4Oz5lbXtu9uvYmor5R+NnjHWNE8c2Oh6P4y1vSrm7sftC6do+iwaoSkcjK0zF43cZyBjoMe5r5J0jxf42OlePwninxMqSXN35oi0dZo5iYjuN3IUJsWPR0QoIx8wANfR5RwBWxeHWIVVRTSa92fV2/lt9za81ueDmnHFHC13QdNtptP3odFf+a/32frsfrJRX5leDfG/xfi8PeD08L694l1AST2Ec9tJocbWK2byBZSl80LPKoXo5bJGWzxX3r8SvD2s+KPC0ukeHvEU3hjU3kja2u4SoJlRtyxsDyyMRhlUgkccjIPm5zwpLA14Uq1aNpNq9paWdrtWv91/K56GUcTxxtCdWjSleKTteOt09E02unW1up6BRXzXpfxg8XeCfCsT/GTw1fLqiXklksmlQfa0uliTd9oCRnMaN05xk9AOg8ST4/aZo/xybxPZ2evPouvaZ5N1YT2cwmSe2YmOW2gYkspBIfbgDOTV4PgnG1nUUFdRTaa1jJromvK9vNW3IxfF+Eoqm5uzk0mnpKKfVp672v5a7H6A0V5H8P8A4yaB8RtVuNI0nStWsZLaHz2e/sntYyu4LhWfq2T09K8r8e3PjzxL+0Fb/Drw/wCL73wzpp8PJqJ+yRwSZmFzLGciVG+8Nuee3SvPw3DleVedCu/ZuMXJ819EvRN/gd2Jz+jCjCtS/eKUlFcttW/VpfifWFFfA3/Cf/EXT/gv49upfE11c6voXiN9Lt791hEwiiuUhzgRhPmGSRtPWu509fiJ4J+MPgfw9q3jm/8AEen+ILe7mmhuYreNQYYwVA8qNSeWz17V6lXgupBT5q0bx57L3ve5Iqbt7ttn1sedS4tpz5HGlK0uXX3dOeTir+9fddLn2BRQKK+LPrQooooAKKKKACiiigAooooAKKKKACiiigAooooAKKKKACiiigAooooAKKKKACiiigAooooAKKKKACiiigAooooAKKKKACiiigAooooAKKKKACiiigAooooAKKKKACiiigAooooAKKKKACiiigAooooAKKKKACiiigAqGf7g+tTVDP8AcH1oA//V/fyiiigAooooAKKKKACiiigAooooAKKKKACiiigAooooAKKKKACiiigAooooAKKKKACiiigAooooAKKKKACiiigAooooAKKKKACiiigAooooAKKKKACiiigAooooAKKKKACiiigAooooA/Fn/gpV+xF8df2ifid4O8XfDG/fWtPuIxpUtjeXHk2ujMcu12oxgQzAfv2VWl3JGo3KQqffH7Jn7JHw/wD2T/Aa+HvDf/Ez8QagkZ1fWJUCTXkkYO1EXJ8qCMk+XECcZLMWdmZvq6vlv9qH9rb4W/ss+En1jxjdrea9dxudM0WGRRd3rr3wf9XCp+/Kw2qPU4BAOa/bb/au0P8AZU+EN34hSSO48XayslpoNm4Lh7rYSZ5VBB8iAfPIcjPCAgsK/ED/AIJi/BC5/aS/aI1X4v8Ajuf7bpngqdNVu1mZWkvdUvJZJbfzFI5AlV7iQjA8xUAAGAPGtK0j9oP/AIKZftCzTXEwQ3RUz3OxzYaNpaPwEUkERpz5aZDzzcseGaPpNGvfip/wTB/auuLWfdfaapMc0e4xW2taLM5MMoz8qvxkHpFOrITsYMQD+skcUV5R8GvjT8Pfjz4HsvH3w51NNQsLpQJI8gT2s2PmhuI+sciHgqfqOK9XoAKK8r+L3xs+F/wI8Mf8Jf8AFTX4NC0538qHzMvNcS4LeXBCgaSV8Anaik4r81Pj/wD8FePg94M8KsPghZ3Hi7xHdLIsbX9rcadZWjgDa0yzrHNMechIlxx80iZBIB9//tGftI/Dj9mbwBdeN/Ht2DMVZbDTomX7Vf3AGRFEp6AdXkPyxrlmPFfzy/DPwH8a/wDgpx+0nP428YynTfDdg0T6jeRKfK07TgxaGysweksgz5ZPzctcOP8AVrVz4Sfsw/tP/wDBQz4g/wDC2fixql1YeF9QuA11q92hWL7KmGFtpNs42OmQACo8hT87PNICB/SJ8JvhF4A+CPgmx+H/AMN9LTS9JshnA+aWeVvvzTyH5pJXPLO3J+mBQB1fhbwxoXgrw3pnhHwxZx6fpGjW0VpaW8Q2pFDCoREUegArnfizKYPhZ4xnHWPRtRb8raQ16DXyx+2141HgD9lT4meIEvEsrn+xri1tndgN1xdjyIkXPVnZ8AdzxQB/Nn+xf+xH/wANcSeKlHi6PwwfDNlYXR8zTmvxL9sM6BRtubfZt+z5J+bO4DAxk/Q//BH638j4vfEroS3guVsgAYEk8DY4r6u/4I4eELbT/h78U/GEc3mtc3tnpYPbZZ2fnjn/AHrlq+Y/+CQsRPxW+J03ZPBUa/8AfTwn+lAHhf7BX7O3gX9obxf400Lxpa3N4+m+ExdWCW9zLb4u2XZGWMTKWGQPlPynuDXsv/BM3x/+z/8ACq5+I+r/AB4g0bTptDsrSe2utRtklvUlV5obq1twQzOWaJGWKNSzMTjPbr/+CN3/ACW/xX/2LFp/6NFfEn7XfwP0/wCDH7YXiLwX4lubnTPB+o6xFfi8ih82WHR9Uk86R4V/5aGFTNGBxuMRzwaAP6Hf2O/29fh5+1lq/iDwto+kT+GdV0hnuLKzuXR3u9LVljWceX8qOjELLECwTcuGYHNe+/tS/wDJuHxM/wCxd1L/ANENWL+zJ+zb8FP2ePA9vZ/CGySYatBBLc6xKVlvNSULujeSZVUFMMSiIFjUH5VHNbX7Uv8Aybh8TP8AsXdS/wDRDUAfzC/sQad+1jqGqeLx+y/riaNOlrpp1Qve2Np5kZ8z7OB9tilDbT5n3ACM8nkV+hH/AAjf/BWz/oeoP/B1oX/yHX5Ofs5fC/4MfEe/12L4wfE+2+G8Vjb2b2b3Fkt4Lt5NwlQbiNpjAUn13e1fVH/DLf7E/wD0dJpn/gki/wDiqAO8/ah0X/gopZ/BHXrj43+LItS8GrLYi8gXVNJuC7m8hFv+7treOVts/lt8rDGMtlQRX3X/AMEYM/8ADOPifPX/AISW4/8ASeCvyE+NXwD/AGXfBvw31PxF8PPj3Y+M9etntlg0uHSkt5J1lnSOVhIpyPLjZpD6hcd6/Xv/AIIwYH7OHicDkf8ACSz/APpNBQB+tura1o+hWjX+t30Gn2yAky3EixIMc/eYgV/PV+0D8F/2FtQ/aSvPi34p+O1i/hLVLiS+1HRdKll1jVn1Jn/ewxyWwnaKBiN24r5kWCkZRAhj/Y79rf8AZu0j9qX4Nah8Mr65i07UPPgvdNv5YVnFpdwNw+w9Q0ZeNgCMqxGa/n5/bl/YI0r9kf4VeFvGieM7vxXeanq8enS2stuttaon2eWYlBG5brHt6jg9jzQB4X+1z4p/ZU8W+MLTW/2TtD1nw9Db4ivVuYorXS8oP3clqGkaaFi2N4cqpPzqoclm5P4q/HP9p7xt8PPD/g34m+I9b1DwxPCr2NtfM6QXcaFCjI8kUbXu07drvJcbchgd2Gr1f4L/ABg8cfD/AE/TvE3wu/Z48PajOWEsWq3+i6zrc25Pk3288ksixdDxE23OeM5r6b8Vft5/tk+NtCk8NeLPgloGtaXKuxrS/wDC2r3NuV44MbNjHFAHT/8ABP8A/ae/YT/Z70eSTxBb65onxAvrZIdU1bUNPe7hIQlzDZrZmeSKHccndGHcgGRmIBH7KfDr9sL9mT4sarZaB4C+Iuk6nq2pNstrEzeTdzNgttSCYJISACSAucCv5S/HV7pfjPxzpvhvXvhVY/Dy+1W6tPP/ALPXU7LEdzOkRaG0vJWhiBBbbti25BPJzX9DP7Pn/BMz4T/AH4qaP8WPD3ifWdZfSUma2stTMEkcc08RjEqvFHEdyKzAcHgn1NAH6X18y/tg+I5fDf7PviieFtr3iRWmc4+SaRRIPxQMPxr6aHHFfKH7a2iS63+zz4gWFd5tHtpyB/dEoQn8A+aAPU/gP4Zj8IfB3wjoKctBp1u0jYwXklUSOxx3Ytk18p/s8xWGpftTfF3VNe2vrtpOyWwc7mihMmx/LJJI+UIpx0GB0r7A+D+vW3ib4WeE9etDuhvNLtHB6f8ALJQf5V81/Ev4NaB8RPijd+L/AINeOYfDfxE0gKuoRQsJBgDYGljQ7kYjCtnKuAMjPNAHqf7Vlj4dvvgN4rPiJYzHb24lty+CVugwEOzP8RY7eOoJFV/2S/E154q+A3hq7v5muJ7JZrBpGOWb7HK0IyfUBQK+dvij8HviNH4E1zxr+0P8QF1+w8P2c0tjp1jCba2e9ZDHbvN0LFZGHAHPqBkH3/8AY+0C48P/AAA8NR3MZie/+0X21hg4u5nlBI7ZDZoA988U+ItN8IeG9T8UaxIIrLSreW5mYnACRKWPPvjFfGn7Gnh/UvER8W/HrxMh/tLxjeyJBvzlLaJyWAzkY3nZweiAdhUv7a/i3UbnRPD3wX8MNv1jxreRK6DPFukgChtvIV5Su7ggxpJ6V9d+CPCeneBvB+keDtKGLXSLWO3QnqxRcM7erM2WJ7kk0AfnP8OPin4D0L4qfEz49fE29DXMepvomj28SGW4YR54gTPUwrECflUEv8w3kV6X4n/aE/Z7+PGnj4X+P4dW8MR380MkM2oW62mySNwY2EgaTywx+QswCkEqTg8+cfse/D3w/L8YviHda/bJdal4WuWgtEmXcYmlubiOSYK3G4iMKrdQC2Dhq+mP2v8Awd4Y134H+ItY1e1iN9okH2qymKqJBMpAEQbGds2fLK9wfXFAHLftR3cnwr/Zi/4RLw7dSyiRLLRYpZn3zNbHCuS4xlzEp571heHP2hvgx8CPDWmfCzRbXUNfutCt0TUG0i0E8UdyQGnaSQsoLFy2SCwBG0sCMV5N8Zn1jxH+xP4E8R6o0k1xp8tlvdyXaRDvtY5HPU7lKtk+ua+4PgR4K8L+EPhT4btPD1tEEvLC3uZ5goL3E08au8jt1YknjPQYHagDyX4US/Az4x/FCX43eANTuovEtrbiG8sHKwkxuhjEssODuDDgSKxBKgZyuB5h8RL63+E37YVn8UfH9rKvhbWNNW1tdQETzQ2twI1iO4qDtIIOf4tr7hkb8N8R6PpvgD9t3wk3gmJbf/hJbORtStoMJGPMEgdyo4+fYrkf3lB61QutFl/aV/ag8VeDPHN/cp4U8BIFi02CZoo53yq722kcsxJZvvAAKrKM5APavjB+0b8DLn4b69pNh4isPE93q1nNaW9hYSLeSyyzoUQFI920BiDubGMcfNgVv/skeEPEvgn4HaLpHiuCS0v5Zbu68iUFZIormZpI0dTyrBSMjtWZ4x/Y/wDgxrmgT2eg6T/wj+pxoWtb20llWSKVR8jMNxDjOM559CDgjF/Yr+JHiP4gfC67s/E9y99d+G746etzK2+SWIwxzx73PLFBJs3EksACSTQB9gu6opdyFVRkk8ACvhG7/aG+MvxW8Wat4e/Z18O2lxpWiS+TNq2ot+7dwSMqNyqA3JUZLEDcQAa+tvidJqEXw68TyaUoa7XTbsxA/wB7ymr5y/YUg0qL4AafJpm0vJeXRnIxkuCAuf8AtmE/CgCj4N/aC+Jvhj4kaX8LPj94dt9LutdISw1CxcvBJIx2qGGWGGYhSQcqxG4YOR3fx8/aCk+Fd3pPg7wjpB8R+MdeP+i2QJCImdoaQL8xLHIVRjOCSQBz2/xWm+CVveeGpPi6dLW6a826MdR27zecHFvnkvwOBzXzDpKQ3H7fWrHXlX7RDo6mwHX5REMEe+0yUASax8Uv2xvhzpz+M/G/hHSdS0K3w91BZyfv4IyeSTG7nAHVtrKvU8V9FN8atN134F6j8Y/BaLOLbTri6S3uDjZPAp3Qy7DkFWGDg8jkcEV7PqEdjLYXEWpBDaPG4mEmNhjKkPuzxjbnPtX5cfABrj/hl34zwL/yDopL4WnpsNqucdutAHo/hL4/ftN/GfQo774W+EdMtFsBsvb27lPkS3PJMVursuQq43Ek4J5x0o8P/tdfEu++1fDWfwOLj4oRXn2OG1RylphVzJLMSSUEeMkBipDAhgM17d+x5bw2/wCz54ZMKBPNFzI+O7vM5Yn3JryHwha24/bw8XOIwGTSA4OOjPHDuP445oAZdftA/Hv4O+I9Hi+Pnh7Tz4e1qcQC805smEnr0ZwxRcsVIBZQSvIxX3hqNlb6tptzp1wqyQXkTxODyrJIpUj3BBr41/b0jQ/BW3mKgvHq1ntPcbtwOPqK+t/D86xeFdNuZjwllC7E+0QJNAHxz+wneT2fg7xf4FnmMy+GNcnt4y3Xb/q2z/vSROx92NfdFfBv7C8a6jpvxE8ZwZNtruvzSQv0DI5e5BHti4H8u1feVABRRRQAUUUUAFFFFABRRRQAUUUUAFFFFABRRRQAUUUUAFFFFABRRRQAUUUUAFFFFABRRRQAUUUUAFFFFABRRRQAUUUUAFFFFABRRRQAUUUUAFFFFABRRRQAUUUUAFFFFABRRRQAUUUUAZeuf8ga+/64S/8AoBr8EP8AgjhFFJ8Vfi5cSKBLDZ2iIcc7Xvrstg/UAGv3v1z/AJA19/1wl/8AQDX8yX/BMD4y2Pw2/apu/Cmszrb6f46S50re4UKt4ly81mCzMMB282PgHLtGvVuQD7//AOCxYtG+Enw0XUIHurVvF8ImhjUNJJEbO4DpGD1dlyE77sY5r83fGvhP9mnQ/GPw2uvgr8MvG3gnVD4q0lbi58U20kdtLb/a4v3cLSu/77dg8YOzd2r9Lv8Agr3BfXfw0+FNrplx9jvZ/GtpHbz4z5Mz20wjkx32MQ2O+MV8n/tO+Dvjv4E8X/C/RPjR8erX4oSHxlpCx6NFaRW09lMs8TfaZBH8wARtmGwP3gx1oA+5fBfxR+IPiP8Aav8A2mvhvrmvXN74Y8N+Ho5dO0+QoYbZ5oPnMeFDc5PVj1PbAHBf8E+tS+HOjf8ABNm71b4uQR3Xg20fXZdWilhadJLRJ2MimJQWfI4wBzXfDwBP8H/2lP2gvi78Qde0TSNF8e+HQumRS6jGt64t4tjO9u4UqpZWUEFskepwI/8AglfomkeJP2FdN8PeIbKHUtL1O81q2urW4jEsM8E07JJHIjAqyMpIYEYI4oA+Tf2afiNpP7Y37XU/xh8S2R8L+BvgbpD3/hvQ7cDEMBLRxySiMbdxCmZxHwSIkUlFcyJ+3z/wUB/Zr+Pv7M+vfC/4aavfX2v6lc6fLFFLYTwoUt7iOZ8u4CjCqePXivcvhH4s8B/C7/goH+1B4g8Z6jY+GvDWnad4eiknumS2tIVltraKNCThFDMwUDuTjvXP/wDBR74+fsz+P/2TvEvhj4ZeNPDmt+ILi701obXTbm3luXSO7jeQosfzYVQScdgaAPpb4Df8FEP2YfiVqfg/4S+FdavrjxJqUVvYwwyWE8aGaOAlgZGAXACHnp09RXb/ABL+EH7THiH9q7wN8TfBXjuLSvhno8MaappLXEytLtMhnQWyxmGY3AaICSRw0WwlepDP8A/tUfseWnhzw9ar8SPCUWoxWlrHtF7arKswjVSOMENnj1pvxJ+Pnx48LftW+CPg94U+HMms+AdehgfUNcW3uWEBmM3mOLlP9GiFuIlLJJl5PMATHGQD6K+L1r8Rb3wNe2vwtmig12VkVWkIVhExxIYmPyrIAcqzAgY6ZxXI/BX4N6N8F/D13eahcpdazer52o3z8KFXLFFZuRGpJYsxyzEs3oPTPGvjvwp8PNGOveL9QTT7Td5aFslpJCCwjjRcs7kA4UAk4r4j8RePPiL+1Hqsngn4b2sui+DEbZfX0648wdxKQccjlYFO48GQqOK+94ewWNxOClh01Tw17zqNWvbo39q3SK6vXy+Jz3GYPD4yNdp1MRa0IJ3tfql9m/WT6ILHWbT9pj9oa0K3Cnwj4Rj+028Mhw12I3GZFQ4yJJNuTztiUA48w4/Quvh34gfs56h4AsNE8cfAtpYvEXhmMCdOGk1BR992UkK0h5DJwHT5RgqhX1L4QftJeEfiUbfQdVxofihsxtYy5CyyJnf5DMBkjByjYdcYYdz38U4NY3D0sTld5UKUeXl+1CzbcpL+98XN8naxxcN4t4OvUw+ZWjXqPm5vszvZJRf93bl+69z6PwD2rjPHfjzwv8OfD8/iLxRdLb28YIRBgyzSY4jiXqzH0HTqcDmvn/4l/HPx1/wnNx8OfgvosWuano8JuNRkkBdYyAD5KAOg3YIyS3JIUDOSPnH4f6z8OvH3ii48WftIeLy2s2ErRxaPqEbWlpEAc7SHUKRn70Qwe0m7gDlyfgWrKksXi78iSfLD3qjT291fCn3lodObcaUoVPquGtzttc0nywTW+r+Jrqo3Z7b8HPDPiL4w+Pf+GgfH1s1rYQApoNi5yqRjhZh6qOSGx87nePlWM17V+0ZII/gh4xXODLYSRjPrJhR+pqVP2gfgfEipH400lEUAAC4QAAdAAK8f/ap8c6XrPwg03R/Ct5HfTeNrq1SweJsrLGsiyK4PdGcIhPo9dFCnjcZnGFlVoOnBSiopppRjF3td72Sbb66s561TCYXKcSqdZVJuMnJppuUpK3Ta7skuisjxDw1D47gvvhL4B8Z6zHrXg3xxbK6aTJbxlIrOC3DpC7FA+5SyYIbPynn18m1ew1/XPAviLxXqGvahPYaJ4gi0g6eZ5DaCzkxyIgwjGwEKBtxjk819SeJ5dBHx8+C/hnQ7uG6Xw3bXMUwhdZBEPszqAxUkA/uuR2rxn4beM/huvgH4geA/F+om2n8Xau62O2F5cNIqLDMxUYVFlAyWI/Wv03L8fU5I4qnS1ahJqMdbOtUTdkt3BK73dk7n53jcDBTlhatXROcU5S0uqNNpXb2U27LZXsj6g+AGv/BLTfEGrfD74Q295IiQw3c965lmt5mA248xiQGVSADhVbkKTsOPDfBT6NZeHPjvr2s6Na67HompvfR2t4u6FpYvPwT3HHGRXq37KfjHTdLsb34N65Zw6R4q0KeYSRquxrtUb5nY4BeRM/MTyyFZBw3HC/CzwpfeOdH+Pfg/TJY4brV76S2jeXOxWkMwBbGTivlqkFQxON9q5KN6N5Sk25R9pH3+ZW0a1022PpaUnWw+D9mot2q2jGNlF8j93ld9U9Nd97HNWlt4tvvDI8ZWnwP8MSaObdrsT+bjMCKWLbT83QE4xmqnji90TWvgf4C8TaNoNl4eOr+JLWWaCwUrEzxv5YbnBJ2qBzXr9n8Kv2n9P8KDwPZ+KtETRltnsxEbUlxA6lSu/bnO0kZ615H8SNKsPBfwf+H3w+k1mw1TU9N8QQeatlMJAB5/PGdwxkA5717GBx1GtiaapTjJ+005JVH7nLL4uZ2ve2x5uMwVajh6jqQlFezd+aNNe9ePw8iT2vufS37WfhufV/hPN4g05vK1Hwtcw6nBKP8Aln5TYdvfYp3gdNyivMdc8RQ+Lvjv8DfFEAwuq6fLcbT1UyWs5Kn3ByD719H/ABS8d/CzRdOuPB3xG1q301NctJU8uckF4XzGxHBHBr4gPij4S+E/ir8Kh4X8ULqXhrwrFdx3F/cSBzEZo58eYyoo5eQAYXjIr5jhClWq4F03SleMa3K+V2cZ02mk9viSsu7dj6DiqrRpY32iqxSlKjzLmV041E7tf4W7vslc73wZ4stvAvxC+Pniy5IxpyQOgPRpWluVjX/gTkD8a9e/Zj8LXHh34Iw32oKft2vm41GZmzvcSjbEz5x8xiVN3vmvlLS9V+DXjDxz8ULXx/4kGneH/EN1ZXFpPFL5Qufs8074BKsCuHGQR0PHNffnhL4i/DnxrpV9pngDWLfU00m2VXjgYnyoyrLHnI6fKQPpWnGlOrSoOnGlL3vZOcuV8qUacVFX2+Jyv2aSJ4RqUqtdTlVj7vtVGPMrtyqSbdv8KjZ9U2fmjoHh7VND+FFz8ZfDeqPY6jpmrXmlXETNmOe1vFij2qh43BnyQPvcHlkWuoXRNR8F/BTwn8WPh9ruDBaT6Nq1sZCY83bsjBYmO0SKxG4ABiQjgkLhl+EvgPxl8TdJ0DwolsF8Fw6/fX2oXCtndLCkI8p16jch2p1B3M3ylF3emeIv2fLp/i3afDrw/b3dt4E1G4Gu32Ti0TysRmCHbwrKAFXcd2H3LxGc/d5hnOHhiJUMRWV1KU2rJp01dckv72snFbq6PisFlNedCNehSdnGME7tNVHyvnX93SKk9nY43w5pdppTfs5R2cqzC5vLi6kZDuXzrlzJIAf9ljjHav07HQV+YDeDLTwD8b/AGg6R4jt9Z0iTxDNc2NtC4kazikzuWRgT8xbIx327j8xNfptd3dtp9nNfXsqw29tG0kkjnCoiDczE9gAMmvy3xInGcsNUjLmUlOV7NfFUm9U+qvZn6TwBCUIYinKPK4yjG10/hpwW66O10fz7+I7CysP+C0cS2RUCfVdNmkRRjZLJ4eYtn3b75P8AtV/QlX8vfwV+J8Hxn/4Kn2HxNs2Z7PXPE0rWrMck2lvp11b2x445iiUjHUEV/UJX5mfoIUUUUAIehr+eeSztL7/gssYb2cRpFrZuEQ/8tJotCt9g+oyT+Ff0MHoa/l8/aN+JsHwc/wCCnGsfEu6QNB4e8SWN1PkEn7N/ZlpHcY285ELuwA5YqFHJFAH7vfttf8mjfFz/ALFrUf8A0Ua/nJk8I/sxj9niXWX+FvjZPiINNd/7eW1k/wCEbF8Hx5+4v5X2X6pjHav6KP2x9SsdY/Y1+KWraZMtxZ3nhW+mhlQhleOSDcrAjggg5r8XtU8D/tA6R+w9Z+LNT+P1pY+A9Y8OvcWXgyW0hjnuLDeF+xRS/wCsY/MqllzjIHSgD6J+GHxX+IvhDVP2Gfh94Z1640/w74s0J11Wyj2eVdiFQUD7lJ4yehFfQn7Iqp/w3N+1Y+0bjfaUCcc8Rtj+deIfDf4P+INb0T9i345S6ppOkeFvAWjKmoS6leraSO92g8tIFcYdsKTjcOnFesfsUeIdC8U/tpftTaz4cv4dTsJ77TDHcW7iSJwqyRna44OGRhweoNAHyX8YviV8Pv2oPjt4X/Yp+EOnDwn8L5/E041q6toTBJq2oQGa5vDt4IVCjhS/zGV0lICKiyfbnxr/AOChP7J3w10nxl8DJtXvrfWtBsrvRBbRWFw8aTRQmFI1lxtIBwu4nHvXJftIaB4W8Fft3/stw6Dp9roth53im+nW3iSCMyzQ+dPM4QAFndmd2PJJJNe9/Er9qr9jrVvAfimC0+JHhK5v7vTb1Iwt7avJJK8LBQOpLEnjvmgD4A/YT/4KCfs0fAj9mfw18MPiNrV7aa/pcupyzRRWM8qBLi7muI9sijad0bggZ6nHWv0b/bC+Gf7Qnxl+Hvh2z/Zs8YxeEdRhv47y6ea5nsvOt/JcxfvbeOR/klKO0ZG11BDbgNjfG3/BO/4/fsx+A/2TPCXhf4leNfDeja9bXGqtPaajc28Vyiy380kZdJPmAaNlZc9VI7V9Y/tQ/tM/EX4ffCbwr8SP2YvCkXxRt/EF6IvNsobnUYFtBFJIHRLHLnzGTy1k+4jEbuoBAPtLRbbUbPRrCz1i6F9fwQRR3FwE2CaZVAeQKPu7mycds4r80ml+I1l4n+L3jvwD4hGiWmjX5a9jEaSNciN3VVUujgFPm9PvYr9GG8SLpvg0eLPFEP8AZHkWK3l3DIwY27CPfJGWHDFDleOpHFfnZ4Z1aysP2cfiJ4n1y5gtdR8balPcQ27SDzWDyqGCr94qJPMYHGNvNfp3h7CUadafIpKUqcLNJp807vR6aJN+W5+eccTjKpSp8zTjGpO6bTVo2TurNXbt57bXKsei6n4k8SfDbw3o2r3Ph1/HGgRarqk2mubQ3N+6yM00ghKAlioBH3QOgFUPgvrvwY8ErYeLPGEF7qnj1NYmtVitpJZ5UVGMQnMQYbjtLdd0jgMFB5Fb8fiLQ/AnxH+Dl/4kuha22ieE7VbptpYxl0l2gqoJy2RgYqfwv418DeAvjX/wtGCFZ/BHjg3C2t/LblHsLhZMTgBuY8SAmQYBMbK2MRua/SsRKrUw86KhNxlBtcr5edqVS8Oa2t4WduqjofnlBU4VoVnKKmpJPmXNypxp2ny3VrTur9HLU+kfjB8L/EuoeM9B+KPw/wDEi6Jrts8VnIl7K32WS2dssojPfGS8XAkwD8rqrD5g8U+KPiJ4W+NPxU8b+A5LRf7FW3hv3uo/NHkFYsBE3L82/PfpXrH7Qut6d42+KXg74dXFyi6Hoo/4SDV5d37tbeBTKpLcrjZG2D6sPWvCbXXbCb4L/FLxzq88dtqHjjUY/sttIyiZraK4xkJnOIt7Rue3lEmvD4VwlaOEoyxKU+aMYKLivhnVVk39r3Yykk/hVns9PZ4lxVGWLqxw7ceWUpuSk7c0KTu0umsoxbXxO63R1mufD/RPA/witvinpXi/VNEvdWs7a7ubHT59iz398d6ghWBWNWk2jOSqjJO4k19J/BjwZ4vufg7eaJ4t8TXf9sa8skoniujPdWCTqBGokZnwwxkgHAJIHrXy38bPhl8MfC/wo03xXCFh8c3NvpRkRpyZSjhElPkk8DYDzjjFfa/wp+FfgD4S6HLqfhyA6cNTgglvHmmJTKLnJ3nC43H0rzOKMzg8sU1VlKcqjteEfs8uid/hV9HZuW1klr6XDeWzjmLpunGMI01e039rm1a5V7z5dVdKO95N6fB2sz6T8O5NY+Hnw3i19fFNjeiPV9ctYBcy3MJTc8ahNzxIzOGXDKxYEs7Ekl/hfUfhLpWj6rpGrfDvxN4mv9TAW7vLmMvcqwbeCnljdC27nccSEgbicV7lofi/wl8HviV8S/HHijX9Omg8RyW8un2tldC5u5vKDAhoowdnUckkAZJwAa4b4PfFiP4aWurfEb4j6bqrQ+Pb2S8S5hgeW2tbeNiFZpGK5Ds5VNoJcJuxtYE/TSxdaph5yhSlJ2ptNScZVJtKTSaSdoWeibSskkj5xYalTrxjUqxjZzTTipKnBScU2m2vfutbJu7bb67n7NOm6/rWvzXPgnxXq9h4T8PXaQ3ej6qkckpVoSyxIwyI1VioKqqYAPBJzTv2jPAer+BdQsfH+leMNad9b161iayN5KlrEkzglY0Rl+X5cYORgmu6/Zf1Dw0dW8cX9h4hsL9/Emqm+t7eOUrdJEwOBNDIFZW9uah/bR1SGx8H+F4eXum1qCeGMKx8w26lyo2gnJOAAOTngE8V84sdXfE0aEVZSsmuVJtcvM76Jt3vq9dN7Hv/AFKhHh2VaTu43afM7J35VbVpK1tFpd9zz79rTUfi7P4b1vT/ABFpNlb+B0vI/s95FMGumUL8u6PcSMndnj0rN+J198V724+Gl18VNLs9Kkg8U6etoLOUSq8IUO7OQTggqOOOK3PjzqXxA1j9ly61X4k2Safqt3qPmpbqADFbOzNCjqM4ZVO0gknjJ5yK9J/at0q7k+GOh+K7NSzeF9Ss75gBwEI8pmY9gu/JNdWU4yNKGCw0qdO/tKsOaN3rywV07tXk37z2fSxz5rhHVljK6nO3s6c7SstOabs1a/upOy33vc+ua/H7/gsjp9lL8F/hzqkgX7Xb+LoYYzj5vLmsrlpMH0zGmfwr9CvgR8UtW+KmneItVv4Y0s7HVp7awkRGjaW0wHjMgYn5wG2nGOR0zX44f8FjfjDYat42+HnwS0qbzZdCm/tjUQpOEluiIbaM8Y3eWJW68BhkcivxfMsuq4SvLD1l70d/zP1vL8fTxVGNel8L2/I/Xr9kD/k1P4Pf9ijof/pFFX0ZXzn+yB/yan8Hv+xR0P8A9Ioq+jK4TsCiiigAooooA+Bf+Cm3/JnHi7/r+0H/ANO1rWJ/wSnsbS1/Yh8EXNtjzb651iacjqZBqNxEM+p2Iv4Yrb/4Ka/8mceLv+v7Qf8A07WtfM3/AARt+MGm698Ftb+DNzIE1XwnfPfQRkn57DUWLblyoHyTrIrAE4JB6EUAeFeIfip4O/aB/b+8B/Ar4W2y6L4K8Iazr14Utd1qmo68treXd7cXAQqTHLNF5JB+/EZc5R1FcS+p+K7e9Ph0XP7N6ajG/wBk+x/ZYlcTg+X5O3sQ/wAuMfh2r65/aCXwF8If+ChfwP8AExgs/Deg6fpHjDWdSmREhiEk1jdzXFxKQBueSRssTksx9TX5zN4btbX9jfQvjrc+F4r7xt47+LH2jT5Y7ffdraxGR305LhFeTy3uoHZI1UlnPyoz9QCt4j8ZfE74KaN8bR8c/DA8Na18avD8lhplrawmGziOlXklrcJBEdxihVV3RjJV0dHUkMMfpp+2t8D/AIy+KP2Zvhz4E8L3kOn+EvBmhfbvEiybt4fRNPSS2B2n513xsoQf8tCrnKoVb4I/aM+P/wATPj3rPg641bwLa6/r3wKjvPEPi2OwdWs7OH+0YZ006WVm25it7aOK5KGQ+aXCgmNlr9s/HvxT8GfGn9jXxr8SPAV4t5pGr+FdVdOzxSLayLJDKvVJImBR1PIIoA+R/Afhn/hMv+CVPhrwz/whr/EBr7TdOA0OO/8A7Ne78vUIpDtuQVKGIKZcZ+YJt71+fX/DL03/AEZzf/8AhaN/8er2L45lx/wR4+GpQAt9r0nAIBBPmTYyDwfoa8ysfDn/AARjayt2v/FfiAXRiQy4i1TAk2jdjFrj72enHpQB+ov/AAT7+H138OPAHjPTrX4VS/Cy4ub6OaKxudXOrfa2FuAJvMLN5YDfIVzzjNfGP7Wvjb9q/wAN+BYfih+058Efh1ruj6DIttby30n9oSxPeuq7IUWQN85UFsdlyeBXa/8ABKWP4cQfFX49QfCCaS48Fx3enLpEsyOkslmDN5TSCRUctgnl1Detfpb+0f8As0+Bf2ofCFh4H+IeoapZ6TY3q32zTLhLcyyojIglLRyblXcWAAHzYOaAPyR034BftD6pp1rqdv8Asu/CARXkUcyB2hVtsihlyDPwcHpXpXw6+HP7aPww16TxD8Mv2ffhf4b1eWB7drnTbmKCdoXKs0ZZZSdhKqSPUCvVdX/4J1fsreGbyHSte+J3irS7qWPzIobnxNHA7Rg7dyq8a5UEYyOK8V/Yz8EeE9B/b98eaL8IPFOoeKvAvgzw99nN1e6g9/uvbx4BIFk+WNhHJFImVXqCCTjgA+sv2iPg9+2R8aPCnwk1D4feObf4c6/o80F14nsrW6lhga5IjLNHNCkv2iOEiRRbyDypd4L52gV+g8AkSJI5n82RVAZ8bQxA5OO2fSvjH9rr46/H34M3fgaH4KfDo+N4Ndv2h1OXybi4+zxKUCxKtsQYnkDMwnl/coEIbkivlX9oXVPjp+zX+1/ZftI6XoPiHxp8Ndd0tLbUdI06e5vEtLvy9krLbL5kUTqqIyHasTnfukRjlgCD9sD/AJSQ/syf9cLn/wBGS1+iv7Qvx78Ffs4fC7VPib42kLQ2gEVpaRkede3kvENvED/E7dT0RQWPANflz4Fvvif+2l+3D4F+O/8Awr3VfBngH4cWjeTLrVvLbSTb1nx95QjyyyyKQsLSKiR5dgXC14H+1P4l+L/xi/asa/8Ain8LfF3iL4VeAtTntLDRtH0e+cX8NuxR5TM8CxMLuRQZJFY/uAIo8h2cgH0/+w18CvF3x6+IM/7df7Q5lu9T1WaSbwxYzKyQwwfMkVysbgHyYoyY7NSACpa4OXkBWb9u7/k+f9ln/r6uf/R8VegWX/BRfxNaxQWFt+zH8RbW3iVI0VdHlCRooCgBVj4VR2A6dBXg/wC2brnxD8U/Fv8AZq/aH0L4aeI7+30ewl1e+0m2026uLy2aWSJxazeVEyxzDkYk28g0AfuKK/ID/go3p3if4c/Gv4I/tU22i3Ov+GvAF5KmpxQAuIQzpIrtxshVkVwJXIQSBFYqDuHbj/gpD4vJx/wzN8SACf8AoEy//EVr/tD/ABe/asuvhf8ADj4+fArwveppUzO/ifwdqGnLLqH2ZnBQyIymddvltG4iR3AlDhG20AfMH7af7evwa/aC/Z71j4bfAyDVPFOpXjWWo6nKtjPbwaPZaZdRXsstzLIoXJMIjXYWUk8MTtDfpB+wvd6he/sgfCWbU02Sr4fs41HrDEmyI/jGqmvzb+MXx2+I/wC2Z4atf2d/2efg3r3glfEN5bf8JDqmr6eljFaRRTJMRvX92Y1kUSS+YwkkVfLSJjIWT9eLSw0b4BfBK30nQLG5vdN8C6Ilva2tvFLdXMyWMASONEjV5ZHfaBwpYk0AfmL+1BcN+1d+3T8PP2YLDdceFvh1MmueIdv3DNGiXLq2QvCRPBBlS3N2cgGIked/t++PPGGj/t4fBmw8EeFv+El17QdNMmh2MrbLa41C/leNNx/uwlBI/KgALlgK+hf+CZfwh8c2Nj8Qv2ivjBpN3pXjX4kaxO5g1CCS3uobRJGlIeOaNHXfNI4U9DGqdAABu/t4fBz4mDx/8M/2rvg7o/8Awkuu/C2eRrzSVVnkurJzuJjSMGR2XLKQgZgrblRyNjAHi3xy+In/AAUH/Zz0C2+J/wAZY/BvxI8ETXNqmpaVa2roltJIypCm6ZAU3yEKsoWULIVyoU5HnX/BQX4p2mu+MP2XfF/w+0F/EOjXtqmv6No5BggvJ57jT20+Foh8qkFlRhjIR2QYDGt39ov9o74s/tr+CLf9nb4NfBXxLo9zrN7atrF34js3tILM2cqXMaB1ygTzUUyvI6P5YxHE7P8AJ61+1j+yb8Q/DnwT+CfiL4I2h8UeLP2flsNlpna2oW1n9nmkeOLB3yfaLSGQxhgzR71TLFVIBzPxm8Yf8FI/gr4JPxg+Jz+CvFvhOD7M+t6DbWkjrawmRMljIBlQxAeVXk2Y3hGANVP28PiB8HfiX+xx8KvippF7L4Y127vbHV/B1ha20cs7X3lHzLYxI21I4dwZ2XcA6RgJKWET5fx2/bC+K/7TPwq1P9n74WfArxdYeLPFMKWOqtqNk1vaW0T4aZIZ5QgHmgFVkuVgCoS+0vtjJ+0d+xt8TfAHwO/Z/wBX+GmnnxZq/wAC2W51LTrbzHa8cy295LLDECWdfPtyrKqtIUcFFYrtYA86/aK/aV/b18Qfs061o3xF+CZ8M+HNW05bXWPEEQ8+VbOZQk0osRKTCZAed7YjzywA3D9Vv2L4fhza/sv/AA+0/wCFmtHxD4etNOSGO8eIQSyzIzC4EsIJ8uRZdyshJK4xubqfh/x//wAFC/E/xF8Aa18NfAHwF8at441uyfT2i1DSnGn20l2hid3dT5rIu4lPMjiDcb2jGSPc/wBl7wvffsQ/sN/bfjERZXPh211DW762R1keBrhjLHaBwdjzcrH8p2mQ4BI5oA/Pv9gCztdP/wCCk3xXsrGFYLeC28VxxogwoRNeCqAPQAAD6V/QpX8zH/BJTxNqvjL9s/xT4n1uQy3+qeHdUu7hyMbp7m/tp5jjsDI7Ee1f0z0AFFFFABXyj8TfhD4517xTN47lkg8ZjTLmF9F0G7f7JYwAgCWWZh/rJEOSmRz3z0H1dXmnxM+K/hD4WaO2peI7oG5kB+zWcZBuLl+yon16seBXvcOYzF0sSlg4805aWtdtdUmrNX2bTTtfU8XPsLhquHbxcuWEdb3sk1s2tnbdJpq9tLnz/B8Zv2hLjxtcfDy38EaO+tWlmt9LGuov5aQu2xcybdoYnovXHPSue8aS+O/iX4p8OfC34v8AhSw0RtXM9xY6jp980t5ZyWy7vNiIGAQduQ3BHuK9Q+B+hahos2u/E34lTRad4l8cTLcfZpZFRrayhGIIcMRyoPPGRwG5FZt1rGn+M/2p/D8eg3Ed9B4V0W9e6eIh0jlumVVXcMgnGM4PFfe08TQpYuosLQgvZU5Pnjz6TUPsvmatz+6rp3+Z8VPD16uEg8VWk/aTS5JKGsHLZrlTvye89mvkbPirwRodr8JLDS/2gPFv2uLSbuOVtS3fZEaTeUt1kXLCT7wHz5y2D1xXgfwl8deGP+E91J/Enxcv5rXTdUWDSLe4uofK1S3eMBXceUC37xio2FRwOK/Qe7srO/hNtfQR3MRIJSRQ65HIOCCOK+EvAXxB+GHg34hfEPTtVgjvr/UvEgTTbS0tftUzosSozxqinbGjhstwAQe9cvDWPnisHi6bhKcrXtFRsuaSvyrkfL1vayt2tc6s/wAHDDYrC1FOMI3teTld8sXbmfMubpa93fvex5N4TsPhlrC66fHfhvxTr1+ms6ivm6Y9y1qI1uH2JiOZFDL349K9Y+CC+G7T49SWXg7T9Y0jTDojs1trDzNMZfNGXUSySHYRgDnqDVr4JeDvHut6B4h1Dw948m8N2Mevaqpt0s4Z03LcPuffIwIz+Vb3gOw1fTv2l3tdZ8Tf8JZcJ4eJN15UcWxWm4jKxFl4656nNfVZ1mMZ/XKCqt2hL3eabS2+y4qC+UvQ+cyfASgsJWdNK8o+9ywTe/2lJyfzXqfaFfnb4z07XfjJ4h8a/F/wfLJt+H7W9voJQnbdTWDme8ZePuvwqlSdxUV638Tvinq/xD1eX4MfBWb7Rqdyxi1TVY8m20635WT94vV+q8HrlVO7OPobwH4I0X4e+EdO8HaHHi0sI9m4gbpXPLyP6s7Ek/WvgMtqSyWksTUX76drRfSF05OS6c9uVL+VyfY+yzCEc3q/V6b/AHUL3kus7NJJ9eS/M30koruN+HvjXS/iH4M0rxjo8ivb6lCshAIOyTpJGcE4KMCCPauH/aN/5Ib41/7Bk39K8cnub79mHx3d3U8Mk3wx8V3Pml4wz/2TfScEFRkiJz0xx2GCAG9V+POp6drf7Pvi3VdIuY7yzu9JlkimiYOjqwGCGHBFTSylUMzw2Iw+tGc4uL/7eXuv+9HZr57NFVM0dbLsRRr6VoQkpL/t1+8v7st0/lumeifDb/knfhb/ALBVj/6ISu0PSvkbwZ+0/wDCbRfB+haPfXOoLc2FhawShNMvHUSRRKjYZYiGGRwQcHqK6T/hrH4NnA+16j/4Kb3/AONVx47hHNHXnJYWdrv7Mu/od+E4ny1UoJ4mF7L7Ue3qVv2VP+RN8U/9jTq//oxa+nzXyx+yRdRX3gHxBf2+TFdeI9Tmj3AqSkrI65B5B2sMg8joa+pzWHGSazXEJ/zGnCkk8uoNfynzP+zt/wAhb4pf9jZd/wDomGvojVrKXUdMurCC5kspLiJ41ni4kiZhgOue4PIr53/Z2/5C3xS/7Gy7/wDRMNfTFHFk3HMZSXaH/pMQ4ZingYp95f8ApUj89ofCH7NHh60k064+KL2niuG5ZrzWY71F1BpVykkYZ1fYpP3gPmJHzMTnLja/BJeD+0LrY+urw/8Axqu9/aJ8Q+ENPCfDPwtbaXbeK/Eh2TXc0cSpp1tJzJcTOR8rMudg6nk4q3ZeIf2X/CPgyPwfB4p0WK4tbUwC8JhnuRKVwZjuV9z7juwc+nSv0elja9TD08RL20pTeitGWn838N2jfSK8nZW3/P6mBoQxE8OnSjGC1d5R1/l/iK8rayfmr63t5wfCP7NfiC3t9P0z4oNP4wlug1nrRvI31LzpMJHGWRUEi9lyN3zHDc19OfG7xVrXw5+EOq+INEnWa+02GJRJcxiYP8yoxdcqGLDOeRzXh/7Nfj7wh4snl8Da/Bp2o+INHLPZ6pDBGq6nbxNgTLxkSrwX/MchgPbv2g/Dtz4w+Fet+FdOubW3vb9EEX2qdYIztcE5ds44HpXiZzKUc3w+Dxjk4Rmm+dprlbWqtGNotLZ7a6J3PYyiEZZXXxWDUVOUWly3T5kno7yleV+q301aseG6z4N+LHhzw1P4t8Qav4LsdMtYRPNK2gs3locdQpJPXsKpeJfD/wAY/CPgi++I8V/4QubPTbM6gnk6GUkdETzFKFmGGIwRnFa/xl8faZ8RdK0/4CfDy6TW9X1qW3g1F7U+bDa2kLK07SSL8o6DoeOO5UGx8TPi14WuPA3iP4Sa7Y3/AIMury0m0uwutYt2jsZvkKRyfaYvMRVIAPJDAdRnivVwcsbJUHOjFuUryjyRuqd0ua1ubX3teyucWMlhI+2UKrSjGylzyt7SzfLe/Lp7und2PovTdT8V658M7TV9Ga2PiG902OaE3CsLY3MkYYblQ7guT2NfEnivwVqi/EiHSfidpE/xP8Xa5pjXCR2dyum2llbxSYZIRjeSpbhyw4Y4AJJP3H4HudM03wDpJ/tK1ubXT7KJJLqGUNB+6QBmD9MfWvkz9oPW/BMnijw18QNN8QylIj/Zt9Po2oRLd21rO2RIkPlyGQbuX+YYAHB614nB1apHHVaFGFlLms0mnezcVzJqSV1smm9vI9XiyhTlg6derK7jy3Taat9p8rTi3Z7tNLfTc5H/AIU1pRO4fAa9Vj/ENfAYE98g5B963/hR4O1/Urq6+IfwOWPwZ5WotpeqaFqDfa7SQWjKsjpIih1ZcthAcFuQwyc3vGFn4A8K+E9Q8T23xe1/VJLSAyw21vqdu8s8hH7tFVYc8kjJ7DJPSvTv2c7zwj4U8BafpN1rlr/beuTG9ubd72KeUXVyAWUFQmWOMkYJ3E8nrX0OaZvif7PnWV5XajZqq01vK8akpLTTVLR9bngZblGG+vQopKFk5Nr2cWntG0qcYvXXRvVX0aPLPjdoXiDxJ8YfFeh+GpAmpXfgQInB/eD7VMXjXHQuBgHnHTvXonh/xj8RvEPg/wAI3nwiXQrTSbrTYoltdTllS5S4txsliVUB3BNvXr3NY3ja48ZWv7TF1P4AtLS+1pfCtsI4b6RooDGbufeSyAnI4wO/P1rza28OQ/A3xJ8IU+IWpWdr9jutevLq43bbe3N9ExEauwBwGZVzgZJ6YrOnShXwlCi+VzUFKMWuZu1KTd4q3WMVF+btfUt1ZUMTWrLmUXNxlK9kr1Ype81baUm12SvbQs/DuT45J8V/idJoKaGNZE2nnVvtDzC2UiFvJ+zkKWxtzu3Ac19jfDe88dX+hyXfjx9MluZJSbd9KkeWBoNowSzgfNuz04xXyL4H+LHw0034mfGLWb/xNYQWPiA2P9nzPMAlz5VtIj+Wf4trEA+5r3v9lmMxfALwfEV2FLVgVxjBEj5GK8njfD1PYutUoqNvYxT5Wm70ruzb+y48trabPY9Pg3EQ9qqVOq5a1m1zJpWq2Tat9pPmvfXdbndfGD/klPjD/sE3v/olqT4P/wDJLfCn/YNtv/RYpfjB/wAkp8Yf9gm9/wDRLUnwf/5Jb4U/7Btt/wCixXxv/Mp/7if+2n1//My/7c/9uNzxn4J8NfEDRD4d8V2n22waWGYx7mT54XDqcqQcZHI6EcGvzo+HHh39mS5sdbj+J+rW+naraaxqFvDbnUZbXZaRy4hAjjdRgDIBxk1+nN3eWlhbvd30yW8EYy0kjBEUepZsAV8UeO/FGj/Fu6uvhp8CdGtL66u38rU9eFsotLGJ+ZCsu355CDgbT1PGedv0vA+PxCp1MOpTjTbTc4y5VC17tuzWumi1dklc+b4ywOHdSniJRhKdmlGUeZz2skrp6a67K7bsrniHwh0D9mHUvCkt98TdYh07WJb26HkSalLbMlsJCIAyI6gkpg7jye9fSn7KSeGYX+Idv4MnW50KHW1WzkWUzBoRbR4O9iS3OeTzXJ6P4Q8C+AP2itL8J3kdrFo9p4QEMZvNgSW4S4T523/KZWUOc9cZHSvap/iHoWhfEzwt8PPAdrp1zDr6Xc9+bUqGhS3RdjjysqSTkENzjkEY5+h4pzKeLjVpUHUmqsfaLml7kYpuTsraaRtv5HhcNZbDDSp1aypwdKXI+WPvSbSiru+usr7eeh88ftPatpml+LW1WXwvrFvqbxxabb65/adxY2IDK022NLSQtJtBdipAyQQQcAV55pyfs+6d8O9QsJPFmtaj4purSd5pov7at7Oe9kQhDJEFEbJuwGMoO8ZL9cV9f/Hnw9c+JLjwNLZT2aR6D4htdQvPtVzHAFtokcORvPzH5vu968n8XfEnSvGPxZ0ebwSs+q+GPAkU9/q8ulwGcXEzjy4rdFiBMpDEZXGDyQfkNdOQZo6mBoUqamuVNycZ2Xu/DF3jK3M9FFOKbez6ZZ3l/ssbVqzcHzNKKlBNvmtzSVpR+FXbk+ZpLdX1+etPbw9rOg+GPh38P9R1A+LNWtFtZLt9Z1aztLS9xkiO2wsLptBZQmFGMYr9C/Hnwk0X4i+CbLwrrk80d1pqxyWl7E7Ca3uok2rMpzknr15weoPNeA65488A/FL4kfDm+8HapaW0nhvUbme/tb3/AEC7jRoggxDMqljnt+Xavoz4u+P7X4Z/DrWPGExBktYdtupOA9xL8kS55HLEZPTHJ4rxuJsdjKmIwcaEZQqtt2k25KUpNWu0tLJWVkrPre79bh/B4SnhsVLETjOlFJXSSi4Rinsm9bt3d73XSyOT0Tx43w0+HFpd/FnX4tavrK4awnu9NgluC0isQiyJEGbzAo+c7QM9u5+dvE/x1+Heo/HrwT43tbi8bSdH0/UYLlmsblZFe4XCBYmjEjg9yqkDvXs/wmh8H/Bn4c6Rpvj7VbTTtb18SapeG7dY3muJiGkOG5Pl71U9cH61574t+IHw6uf2i/AOu2ut2Emk2Wm6pHcTrIhhjeRfkV2HALHoDTyjCUPrmJkqM5pxq2lG0YtcslaMeRpX1S17adBZpiq31ShF1Yws6V4yvKSfNF3lLmV7aN6a669T6L8FfFvwl8SYtSTwTJPc3OnRqzJc2s9qCZA2wAzImclecZx3r5Fk8QfHNv2h4dSbwnpo8VL4dEX2EX5Nv9iNw5Exmxw+/K7PQZr7P8PfEP4d+IdRGk+GdcsL69dGcQ28qNIUT7x2rzgZ5rxLwVqtlr37RHj/AMXtIiaZodnY6IlxI6on2hWaSVASR0LV5eSVI4aWLksNaPs9p3b1aja65LqTfa+mj0Z6GcU5YhYWLxF5e03hZLROV7Pms0l3trqtj5EvtV+JLfDnx7azaFZppNz4nlk1GcXWZLe/N2C0ESf8tEEmFD9xzXrPiXxB8dJPiv4Du9S8JaZBrdvbXg061S/3RXCMiiQySfwFRggd65Ga5TW/DWr+D9MYT3Xij4lTLbhCCrww3Bnd8j+DaAQelfSnjbUtOv8A9oz4aRWF1FcNFbapuETq+0bAOdpOOlffZjjowqcroRd1Wf2tlSS/m+004vyWlnqfFZbhJTpKSrSSvRX2d3Uenw/ZupLzet1ofSOhzarc6NY3Gu2yWeoyQxtcwxv5iRzFQXRX/iAOQD3rUoHSiv5/qSvJtKx+3wjZJN3CiiioKCiiigAooooAKKKKACiiigAooooAKKKKACiiigAooooAKKKKACiiigAooooAKKKKACiiigAooooAKKKKACiiigAooooAKKKKACiiigAooooAKKKKACiiigAooooAKKKKACiiigAooooAKKKKACiiigAooooAKhn+4PrU1Qz/AHB9aAP/1v38ooooAKKKKACiiigAooooAKKKKACiiigAooooAKKKKACiiigAooooAKKKKACiiigAooooAKKKKACiiigAooooAKKKKACiiigAooooAKKKKACiiigAooooAKKKKACiiigAooooAKKKKAPxi/4KCf8ABQj4yfAHxrffBz4eeF00K5ezhuIfEF7tuWuIbhXUyWUGPJTypAFMk5ba4IMLKVY/mj+z1+x5+0l+3D4pk+I3jm/voNA1CUyXniLWPMcz/wAQW2STDXGM4RV2wR+vBjP9O3j74H/CT4p69oHib4ieFLDxDqPhhpH06W9hWbyGkKsxCtkHlFIDAgEZHNeowwxW8SQQIscUShVVQAqqBgAAcAAdBQB4n+z/APs9/Df9m34f2vw/+HFiYoEw93eTEPeX9xtAae5lAG5zjAAAVBhUVVAFcR+1j+yd8Pv2sfh+PCvisHTtZ01mm0jV4UVp7KdhhgQeJIZAAJYmOGGCMOqsv1PRQB/ILrejftWf8E4/jQsumy3OiS3DIkdzChuNJ1m2jbIjG8bJ1x/yzbbPFnAKnDn+jX9jP9pTxV+0n8HP+FkeMvCp8Ntbu0P2iFzJZ35iX97Naqw80IrAqQwI3AhHcDcfpXx38P8AwT8TvDV14P8AiBolrr+jXgAltbyJZYyRyCAfusDyGGCD0Na/h3w7oXhLQtP8MeGbCHS9J0qCO2tbW3QRwwwxKFREUcAADAoA/l38aax4/wD+Cln7ZkXhrQ5biy0CJ57e0LkmLS9EtZB51w0TbQJpco0ikBjJJHE3EZ3P/a0/4Jw/FX9m/WofHPwqsrnx94OhCSmcWcV3c2bRFWKXtosbI8ZIyHWJomXckygcyf0v6B8LPh14W8Za58QvDnh2y03xH4lSKPUr63hWOa6EOSnmlQMnnk9W4yTgY7+gD+dTwH/wWQ+JfhzQ49C8deA9G1LUrELEZI7qfRjhQBhrbyLlVPrtZR6Ko4Ha/wDD6zWP+iXaZ/4UUn/yDX7j6n8PvAet3L3ms+G9Nv55DlpLizgldj6lnQk1l/8ACo/hV/0Jmi/+C62/+N0Afjp4J/4LA+IvG/jHQfB1j8NdLS517UbLTo8a9K7B724jt1IX7CN20vuIz0BrR/4LH/G3UtB8NeEPgfYW9zDDrrNrV9ciNhBLHYuFht45GTY7JK3nyBH3II4ww2yg1+wll8MPhtpt3DqGneE9Jtbq3YPFLFYW6SI46MrKgII9Qar/ABJ+FXw7+MHh4eFfiZoFp4i0pZo7hbe8iEiLLEcq655B7HHVSVOQSKAPxQ+HX7UHhv8AYU/Zn0f4Oat4T1W8+IPibQj4lG2GGO0jm137SYFnfzPMCw+Sqsu0vggKCQwXx3/glaNa8KeFfj98XRotzqUPh/w1DbRwxKQ1zPEk8rW8bEbTKFiTcucrvXI5FfvH8T/2bfgX8Z9UsNa+KPgrTvEd7pkRht5buLcyRE52cEZXPODXd+E/hz4E8CeFU8D+DNBs9E0FEdBZWkKww7ZBh8qoGSw6k8n1oA/j8/Zr/ag+I/7MXjDVNc+G1hY32p6vp8Gmr9rhkuvkTDiSKCOSF2LnlckADGQelfe3iT4SftI/tsfs1658YPiJol9P8SfBWqGTSzcaUdNl1LQJ4I5prW1jEcQmME4LwN87EqY9zF2z+9XgH4F/Bv4WwR2/w98F6ToCxMXVrSziSQMep34L5/GvV6APwu/4JGftLfEjxIt1+zp4n0271bRfD9m93p+p4LLpsCvsFpM79YmckW4yXUq6Y2plen/aY/4Kb/DO88L/ABM+Cq+DtZ/tIxatoIufPsPIM8ZktjIB5/mbNwzjZux2zX65+Evht4C8B6hr2q+DdBtNHu/E94b/AFOS2iEbXV0VCmWTHUkDJ7ZJbG5iT5Nrv7H/AOy94m1m+8Ra/wDC3w9f6lqUz3FzcS6fE0ks0h3O7nHLMeSe5oA/lB/Zy1n9njQ73XpP2gvCmueIYZobRdPGkahHYGJ03icyl5Yd4YbNoBOMHI5r6o/4Tr/gnD/0S3xx/wCFFb//ACZX9AP/AAxJ+yN/0SLw1/4Lov8ACj/hiT9kf/okXhr/AMF0X+FAH81vxm8U/sUat8OdTsPhL4A8V6P4pke2NrdahrUN3bIqzo0weFLmUsWhDqvynDEMSAM19EfsBft6eBP2WPhRrHgPxV4X1XVrvUNXkv0ls5bONBG8UaBSLiaNtwKHoCPev3L/AOGJP2Rv+iReGv8AwXRf4Un/AAxJ+yN/0SLw1/4Lov8ACgD1n4N/E7TPjP8AC7w18U9Gs5rCx8TWaXsMFwUM0ccmcB9hK547E1+Wv/BaxinwC8COo3FfFUZA9cWVzX68eGPDHh7wXoFj4V8KafDpWkaZEIbW1t0EcMMS9ERRwAOwrzD46fs8/Cn9o/w1Y+E/i3pL6tp2m3a31usdzNauk6xvFuDwOjY2uwwTj8qAPwE/Zw/4Km6h8CPgr4Y+EsfgDT9UXw7DJCLmfV5baSXfK8mWiFnKFPzY4c9M17f/AMPqdU/6JjpP/g9m/wDlfX7I+Av2ePgv8N/COneCfC/hLT10vS0ZIRcwJdTYZi53zTBpHJLHlmJ966//AIVh8Nv+hU0n/wAALf8A+IoA/k9+O37TNx+1P+0d4b+Is+gQ6AU/sWw8m3unvIz9kvi+7zHihOW8/BXbwAOTnj+vKz/49If9xf5CvlH4i/sN/sz/ABQ8bWXxB8T+EgmtaelvHE9jcz2MOLWQyxF4Ld0idlZjyykkYByAMfWqIsaKiDCqAB9BQA6uc8YeGrHxl4V1fwnqefsur2s1rIR1VZUK7h6EZyD2NdHRQB8UfsbeJb7S9G8QfA7xUwi8Q+B72VPKJ5e0mbcHUH+AOTt9I2jzyam+KnwI+JmnfFM/Gz4C6laWutXkYiv7G9ysFxgAFsgEEMFXchwdw3K6knP1onhjw7Fr0nimPTbddYljEL3YiUTtGP4TJjcRx0zW7QB8Aar8Jf2lPj5fafo/xuudN8PeELKYTXFpphPm3bJ0BG6TrzhmfCg8IWww+9bGytdNsoNOsYxDb2saRRIOiogCqB7AACrVFAHyHo/wW8d6z+07qXxi8fLY/wBh6XD5OgxQXDzzDCBFeWNokWJgGkPyyOCW/L68oooA+MPil8CviXpfxOk+NfwD1O2s9bvkCajYXhKwXWAqlsgEEMqKGQ7eVDK6HJPFa78KP2o/j1JY6D8Yb/S/DHhWCUS3EGmFjPM0ZG35C0oJHJRjLtU4JjZgCP0EooA8/wBb+GnhTWvhxP8ACx7UW+gyWI09IouPKhRQqbPQpgEe4r478M+B/wBsf4OWJ8EeBrjRfE/h6FyLKa+3eZBG3OCu+IooJJ27pBn7u0fLX6CUUAfI3wR+APizQfG1/wDGT4yatFrXjS/Roo0gJa3s42G07HKpuO35VARVVSRgsWY5nxS+APxCtPiY3xp+A2sW2m+ILpFS+sr3ItrnoGbcFfhlUbkK8kAqyEk19mUUAfCGtaf+3D4902bwtfp4f8MWd2PJury2eQTGJuHMXzTEAqegCt6Op5r3T4dfBZvhP8IbzwD4M1Py9buoLhzqTx4zfzJtWXZk4RDtCrk4VQMk173RQB88/s8+B/ir4S8E6ho3xm1hddvrq6dola4e98u3ZFUo00qIzBmDHaVwM9eePCbT4J/H74E+I9WuPgBd6bq/hfVpDOdM1MlXgcnhYwuxSVHyh/MX5QAysRmvvyigD4j8JfBP4xeP/ibpPxQ/aCvrGOPw6fM07SdNLGISghlZyeFAYbmBZyxC/MFytdh+0D8Atc8faxpPxJ+Gepx6H430EYhlfKR3CDJRXdVYqykkBirgqzKykYx9WUUAfAOv6F+278SNKl8Ea4dC8OadeDybu+tmdZHiPDbdskjEMOGVRGW5wyjivd4fgdbeEv2fdV+D/glklurrTrmET3B8oXF3cKd0kpRW2hm9FO1QAAcV9D0UAeMfs/eBfEHw2+EuheDfFAgGp6ekgm+zStNDl5GYbXZIyRg91FcBoHwh8Z6b+1F4h+LdyLP/AIR3UtOS2hKzubrzQqAhoTEFC/KcESEn0FfU1FAHzZ+1R8LfF/xd+GSeFfBK2jaiuoWtxi9ne2i8qJjvO9IpjuAOVG3k8EjrWd+0d48b4W/AmXTI5f8AifazbxaPYxxHMjzzII3MfQkqu4qcfe2g9a+pKw9W8M+HddurG+1rTbe+uNNk821kmiWRoX4+ZCwO08DkUAeZfs9/Dh/hX8JdC8J3Shb9YzcXmOgubgmSRR3whO1c9AAK9poooAKKKKACiiigAooooAKKKKACiiigAooooAKKKKACiiigAooooAKKKKACiiigAooooAKKKKACiiigAooooAKKKKACiiigAooooAKKKKACiiigAooooAKKKKACiiigAooooAKKKKACiiigCKeCK5hkt5hujlUqw9Qwwf0r89F/4JbfsdRaodatvDWoW975vnrLFrF9GySb94ZCso2lW5UjoQCORX6IUUAeKfFr9n34Y/HDSPD2ifEywm1a38L30GpWX+kywut3bqUSR2iZS/BOQ2Qc8isXxL+yl+z34w+KcHxq8T+CrPUvGNs1tJHfTGQ4ks8mFzFv8ounZihJwuc7Vx9C0UAeDfFz9mL4DfHfU7DWfi34OtPEl7pkLW9tLO0qtHE7byo8p0yN3POcc46mvSPAPw+8F/C7wnYeBfh9o8GhaDpistvaWy7Y03sXY8kkszEszEkkkknNdjRQB8969+yp+z/4p17xh4k8SeD7fU7/AMfC0GttcSzyJeCx8v7OGjMmxRH5KEBAoyM9SSeE/wCGA/2N/wDok+i/9+3/APi6+v6KAPkFf2Bf2OFYMPhPouQc8xOR+W+vr0AAADtS0UAeI/GT4Mj4wW+n2Nz4ivdHtLIuzwWyxvHO7Y2s6yAjKYO0+5rzfTP2Y/EWiWMOmaN8V/EdhZ242xwwPFHGg9AqgAV9bUV9Hg+LMfQoRw1Oa5FsnGL/ADTPDxPDeDrVniJwfO+qlJfk0fLH/DPHjb/osXin/v8AJXPR/sk3UOuv4oi+JGuJrD53XirALg5G05kC7uRx1r7Iorpp8b5lC/LNK+j9yGq7fCYT4TwErc0G7ar3p7/+BHx7pv7KWp6Ne3mpaR8TtfsrvUWD3U0JhjknYZwZGUAseT1rN1f9jmPxBeHUNd+IGs6jdMADLcJbyOQOBlmUmvtSitI8e5rGftFVSfflhf8A9JMpcG5c48jpu3bmlb/0o+Fh+w7oI5HjLUv+/Ft/8RW837I1w50sv8R9cY6Hj7BlYD9kwAB5Hy/u8AD7uK+y6K0n4hZxL4q1/wDt2Pp/KRDgjK4/DSt/29L17nxTpX7G8Ohamdb0Tx/rGn6gfMJuLeO3ilJmOZDvVQfnPLeveo9M/Yxs9GvV1LSPHerWV2hJEsMVujgnqchc19tUUn4g5u73rb6P3Y6r/wABHHgnLFa1LbX4pb9/iPj9f2VdVTXH8TJ8T/EC6xJEIWvAYftDRDohkxuKj0zTdJ/ZT1TQJry40L4n+INOl1CTzbl7cwxtPJz80hUDc3J5OTzX2FRWT46zNrldRW0Xww2Wy+Hp0NFwfl6fMqbvv8U93v8Aa6nyx/wzx42/6LF4p/7/ACVwR/Yj0Vr99VPjPU/tskvntP5Ft5rTb9/mFtmS2/5s5znnrX3JRTocd5pSv7Kqo37Rgv8A20Vfg7LqtvaU27d5Sf8A7cfGOufshSeJ7iO78SfEXW9VnhUoj3SwTMik5KqXUkDPOKw/+GHNAJ3HxjqWf+uFt/8AEV91UVrS8Q84hFRhWsuyjH/5EzqcEZXOTlOld/4pf5nwqP2HNAByPGOpAn/phbf/ABFb2ifsiz+GjO3hz4j65pZulCzG2EEPmKucBtijIGTjPqa+zKKKviFnE48s6115xj/8iFPgjK4PmhSs/KUv8z5A0T9lbV/DVo9h4c+KHiHS7aSRpWitTFCjSMAGcqgALEAZPtWx/wAM8eNv+ixeKf8Av8lfU9Fc1TjXMZycpzTb/uQ/+ROmnwpgYpRjFpL+/P8A+SPiKz/Yt0/TtVGu2HjnVbbUVlacXMUNskwmbO6TeEzuOTk5zya+i/FPwo0Px78Krj4SeOry91fS9Qsksb6b7Q9vc3cYAD+ZLEQ370DD4PIJB4NepUVw5xxLjceorFz5rbaJfkkdOV8P4TBOTwsOW++rf5tnw/8ADH/gnf8Ast/CDx5pXxJ8CeHruy13Rp2uLaWTUbqZVkaN4iTHI5U/LIw5HevuCiivCPZCiiigAr4k+Kf/AAT1/Ze+Mnj7U/iZ478P3d3r+rypNcTRald26mSOJIVZUjkCqdkaDgDpnrX23RQB4fpf7PXw10n4Iz/s9Q213P4Jns59PNrPeTzSraXBJaFZ2Yyqi7iEAb5Fwq4AAHG+IP2MP2a/Fvgrwj8PvFfguDV9E8CwPbaRHcTTs9vDJjevmiQSMG2gncxyQD1Ar6iooA8h8bfAT4PfEX4f6f8ACvxl4WtNR8JaUbdrXTiHjghNqhSHYImUjYrEDnoec0z4RfAH4OfAaz1Gx+EXhW08MxatIkl39m3s0zRAhN7yM7EKCdozgZJAyTXsNFAHlXjP4J/DH4g+NPDfxC8X6Kuoa/4SS6j0y5aWVPIS9Ty512I6o4dODvU47YrxT/hgP9jf/ok+i/8Aft//AIuvsCigD5A/4YE/Y3/6JPov/ft//i6+l/Bfgrwr8O/C+n+C/BOmxaPoelIY7W0gBEcSElsLkk4ySetdRRQBwXxK8EN8RfCN54S/tW40dL0oJJ7YKZCinLIQ3ylWHBB7V8t3n7FGlajDa21/421S5isYfs1uskNswhgzny0BT5UzztHFfcNFfRZTxXmGBp+zwtTlV77RetrdU3seHmfDeCxk/aYmnzO1t2tN+jsfFWrfscQ69cx3mueP9Y1C4hjWJJJ47eR1jT7qAspIUdh2q9qP7Jd5rGmRaJqvxJ12806BleO2lEDwoyfdZUK4BHY4r7Horv8A9fs29397tt7sNPT3dDj/ANTMt9793vv70tfX3tT4zn/ZFmur+61W6+I2uS3t9A1rcTusBklt2ADROxXLIQoyp44HHFZd1+xTpl9DaW99431W4isIzDbrJDbMsMTHcUQFPlUk5IHGa+4KKqHiDm8bcta1v7sPT+XsTPgnLJX5qV7/AN6X+Z8U61+xvB4kvF1HxD4+1jU7tI1hWa5jt5ZBEpJVAzKTtBYkDpya6S+/Zo8T6nYz6ZqXxZ8S3dndRtFLBK8TxSRuNrIyMCCpHBBGMV9ZUVnLjvNJKKdRe7t7sNPT3dDSPB2XJyapv3t/elr6+9qfCtt+w34es2VrPxfqMBQhlMdvarhhyCMJ1FegH9nPxiU8s/F/xOUxjaZYyuPTGMV9VUU8Rx7mtVp1aql6xg/ziTh+DMtpK1Km4+kpL/24+JbL9jGz03VItc07x5q9rqUDM8dzFFbpMjOCGZXChgSCQSDyCa6a7/Zl8SahJbTX/wAV/ElzJZSCaBpXicxSgFQ6Eg7WwSMjnBr60opVOPM0m1KdVNrTWMNv/AR0+DsugnGFNpPXSUt//Aj5A1z9lfV/E9g2leJPih4h1WyYhjBdGKaMkdCVcEZH0q9dfs1eKb6zk0+9+LXiWe1mQxvDJJG0boRgqykYII4xX1jRUf675lZR9orLb3Iaf+Smn+qWAu3yO7396ev/AJMeL/Br4OxfB3TL7SLTXbvV7S8lEqR3CxokLc7iixgD5zyxxya+dvGv/BN79lf4h+MtS8f+MdE1LU9d1a7kvbi4l1i9JaaRs5A8zAVQAqqBhVVVACgAfeNFfP5hmFbFVpYivK8pbvRfkezgsFSw1KNCirRWy/4c5fwR4O0L4eeDdD8B+F4Wt9H8O2Vvp9nG7tIyW9rGIo1LtlmIVQMnk966iiiuM6gooooAKKKKAPNvi18J/BXxt8C33w4+IVrJe6HqL28k0UUzwOXtZkniIkjIYYkRTwecYPGa+ePg/wDsC/s3/AfxvZfEP4X6VqOkazYrKiuNVvJInjnTZJHLE8hSRG4O1gRuVW6qpH2hRQB4X8Qf2b/g98U/Hui/Efx9oK6zq+g2d3YWwnkc25tr6Nop0kgz5cm5XOCykqcEYIBr03w14M8K+D/DWk+D/DemQWOjaFFFDY2yLlLdIRtjCbskFR0PX3rp6KAPO/C/wl+G3gu48TXXhjw7Z2EnjK7e91gpGD9tnkQI5lDZBUrn5fu5LHGWYmG0+EHw60z4YT/BvRtGi03whPZT6ebG2LRItvcqyyKrA7gW3HnOcnOa9KooA+bdd/ZL+Bnib4I6X+zxrehyXPgbR2ha2s/tdwrq0BYoTOriUkbj1bmu7t/gP8EraCO2i8A6DsiVUXOmWpOFGBkmPJ4Fer0UAeKfDH9nn4R/BzxN4p8W/DjQU0XUPGU6XGpeS7+S7xlivlw58uJQWPyoqjnpXtdFFAHhfxi/Zo+Bvx+m065+LvhK18RXGkpJHaSzNIkkSSkF1DRupIJUHBzjt1Nanwk+APwb+BFle2Hwj8J2XhqPUWV7lrdWMsxQYXfLIWdguTgFsDJwBk17BRQAYpCAetLRQAgAUYHAFGKWigBMUYpaKAExS4oooAaFUZwAM06iigAooooAQKozgYz1paKKAE2rknHJ60tFFADQqglgOT1NeM/HP4BfDr9orwjD4F+KEF3eaJFcpdG3tr2ezWWWMEJ5vkMpkVc5CtkBsNjIBHtFFAHyJ8Cv2G/2dP2cfGU/j34UaFc6brNxZyWDyy39xcqbeV0kddkrsoJaNecZ49zX13RRQAUUUUAFcdffD/wZqfiy18cahpEFzrllD5EN1Iu50TJYYB4yCTtbGRk4PJrsaK2o4ipTbdOTV1bR20e69DKrQhUSU4p2d9ddVs/U868cfCb4d/Ema0uPG+iQ6rLYq6wNIzqUWQgsBsZepA61b8E/DPwH8OYZ4PBOi2+krdEeaYgS77c4BdizEDJwM4GT613VFdLzXFOj9WdWXs/5bvl77bb6nOstwyrfWFTjz/zWV+2++wVz2k+EvC+hXl3qGi6Ta2N1fyNLcTQwokkrudzM7gZJJOeTXQ0VyQrTinGLsnv5nVKlFtSa1WxyWheBvCvhrSb7Q9GsFgsdSmnnuIizuJJLkkyk7iT8xJ4HHpWL4H+Efw4+G89xc+CdDh0ua6RY5ZEZ3dkTkKWkZjjPbNej0V1PM8S1OLqStP4tX71u/f5nMsvw94S9mrx+HRaenb5GFofhjw74ZS6j8PadBp63s73M4gQJ5k0hyztjqST+Hat2iiuWrVlOTlN3fmdNOnGEVGCsinqGnWGrWM+manbpdWlyhjlilUOjo3UMp4IrEm8GeFp/Cp8DyabD/YJgFr9jUbYvJAxswuOK6eiqp4ipBJRk1Z3369/XzJnQhJtyindW26dvTyM+w0rTtMsbfTbC3SG2tI0hiQDhI41CqozzwABVsQQg5CLkewqWis5Tk3ds0UUlZHPeG/Cnh3whaXFj4bsUsILu4lu5Ujzh55jl3OSeWI5roaKKqrWnUk5zbbfV7k06cYRUYKyXY4LwT8P9L8C3XiK602eaY+I9Sk1OYSlSEllRUKpgD5flGM5Nd7RRV4nFVK03Uqu7/wAlb8iMPh4UoclNWX+epweufC74c+JtVfW/Efhqw1O+kVFaW5t0lZgn3Qd4IOO1aWneBfBGjkHSfD+n2RXp5NpFHj6bVFdVRWrzHEOCpupLlXS7t9xnHAUFJzUFd9bK5y9/4K8Kap4g0zxTf6ZDPqujCRbO4ZfnhEow+3HHPbPTJxjJrD8b/Cf4e/Ee5s7vxto0WqyWCukPmM4CrIVLAhGUNyo65x26mvRKKdHMsRTlGdOpJOKsmm00nfRdt3t3Yq2X0KkZQqU01J3aaTTatq++y+5HNeGfBvhPwbafYPCmkWukwHGVtolj3Y6biBlj7kmtfUdM03WLOXTtWtYr21mG14pkWRGB7FWBBq9RWE8TUlP2kpNy731+82hQhGHs4xSj2tp9xw3hv4aeBPCWiX/hvw9o0FppepySSXNsF3RyNKArZVs8EDGOgHQVzyfAb4LxkNH4K0lSO4tIwf5V61RXZHOMWpSmq0ry3fM9fXXU5JZRhJRjGVKLUdvdWnppoeTr8CPgyrmRfBekhj3FpGDz74q1pvwW+Euj38Gq6V4Q0y0vLVxJFNFaxq6OOjKwGQR616dRVSzvGtNOvKz/ALz/AMyI5Lg001Rjdf3V/kct/wAIZ4e/4TE+Pfs3/E7NmLDz97f8e6uZAm3O37zE5xmtDVfDvh/XTGdb0y21Aw52faIUl2Z67d4OM+1bNFcbxdVtScndKy12XZeR2LDU0nFRVm7vTd9zjJPhz8P5Y3ifw1pu2QFTi0iBwRg8hc1p+FfC2heCtAs/C/hq2+yabYJshi3s+1SSfvOWY8k9Sa6CiqqY6tOHs5zbjvZt2v3/ABf3ihg6UZc8YJPa9lez6fgvuMPxNoNt4o8Oan4bvHeKDVLaW2kePG9VmQoSucjIB4pPDGg23hfw9p3hyzkeWDTYI7dHfG5ljXaCcYGa3aKj6zP2fsb+7e9vPa5fsIe09rb3rWv5HNeLfB3hrx3okvhzxZYJqOnTMjvDJkAtG25TlSCMEdjV/RNB0Tw3p8ek+H7GHTrOH7sMEaxoPfCgcnueprWooeKq+z9jzPlve19L97bXEsNT9p7XlXNa17a27X7HA+M/hd8PfiFJbzeNNBttWktVKxPMp3KrHJUEEHGRnHTPNU/CHwe+GHgLUG1Xwf4btNLvHQxmaJDvCNjIBYkjOBnGM16VRXTHNsUqP1dVZcn8vM7fdexzyyvDOr7d0o8/eyv99rnkPiD4DfCTxXr9x4m8SeHINR1C6ZWkeZpChKqFB8vcE6AZ+XnvXo+ieH9C8N2K6Z4e0+3020TpFbRLEgPrhQBn3rXoqa+Z4mrCNKrVlKK2TbaXouhVDLsPSnKpTppSe7SSb9X1OC8a/C/4f/ES0+x+MtCttSABCyOm2ZM/3JVw6/ga0dY8C+ENf0ay8P61pUF5p+nPDJbwyLlYng/1ZXoQQOPcZByCRXWUUo5jiFGMVUlaOq1ejfVdvkOWAoOUpOmry0ei1S2v3+Zy3iDwP4N8WSQTeKNDstWe1Vkia6t45jGrkFgpcHAJUZA64HpXPf8ACmvhJ/0Jukf+AMP/AMTXpVFOlmeJpxUIVZJLom0Krl+HnJynTTfmkcXonw48AeGtQXVvD3hzT9MvVVkE1taxRSBXxuUMqg4OBkVRvPhT8PL/AEHUvDF3oVu+lavdNe3VvhlSS5Zgxk+Ugg7gDwQM16FRQszxPNz+1lfTW7vpqvu6dg/s7D8vJ7ONtdLLrv8Af17nnmifCf4c+HDpDaHoFtZtoLzyWLIp3QtcqVlIJJJ3gnOc/nUHhv4PfDPwh4gn8VeHPD9tZatcmVnuVDNJmZi0mCxO3cSc4x6dK9Koq5Zvi5KSdaXvaP3nqrt2euurb9W+5Ecrwq5WqUfd1Wi0dktNNNEl6JIKKKK847wooooAKKKKACiiigAooooAKKKKACiiigAooooAKKKKACiiigAooooAKKKKACiiigAooooAKKKKACiiigAooooAKKKKACiiigAooooAKKKKACiiigAooooAKKKKACiiigAooooAKKKKACiiigAooooAKKKKACiiigAqGf7g+tTVDP8AcH1oA//X/fyiiigAooooAKKKKACiiigAooooAKKKKACiiigAooooAKKKKACiiigAooooAKKKKACiiigAooooAKKKKACiiigAooooAKKKKACiiigAooooAKKKKACiiigAooooAKKKKACiiigAooooAKKKKACiiigAooooAKKKKACiiigAooooAKKKKACiiigAooooAKKKKACiiigAooooAKKKKACiiigAooooAKKKKACiiigAooooAKKKKACiiigAooooAKKKKACiiigAooooAKKKKACiiigAooooAKKKKACiiigAooooAKKKKACiiigAooooAKKKKACiiigAooooAKKKKACiiigAooooAKKKKACiiigAooooAKKKKACiiigAooooAKKKKACiiigAooooAKKKKACiiigAooooAKKKKACiiigAooooAKKKKACiiigAooooAKKKKACiiigAooooAKKKKACiiigAooooAKKKKACiiigAooooAKKKKACiiigAooooAKKKKACiiigAooooAKKKKACiiigAooooAKKKKACiiigAooooAKKKKACiiigAooooAKKKKACiiigAooooAKKKKACiiigAooooAKKKKACiiigAooooAKKKKACiiigAooooAKKKKACiiigAooooAKKKKACiiigAooooAKKKKACiiigAooooAKKKKACiiigAooooAKKKKACiiigAooooAKKKKACiiigAooooAKKKKACiiigAooooAKKKKACiiigAooooAKKKKACiiigAooooAKKKKACiiigAooooAKKKKACiiigAooooAKKKKACiiigAooooAKKKKACiiigAooooAKKKKACiiigAooooAKKKKACiiigAooooAKKKKACiiigAooooAKKKKACiiigAooooAKKKKACiiigAooooAKKKKACiiigAooooAKKKKACiiigAooooAKKKKACiiigAooooAKKKKACiiigAooooAKKKKACoZ/uD61NUM/3B9aAP/9D9/KKKKACiiigAooooAKKKKACiiigAooooAKKKKACiiigAooooAKKKKACiiigAooooAKKKKACiiigAooooAKKKKACiiigAooooAKKKKACiiigAooooAKKKKACiiigAooooAKKKKACiiigDFsrG1nhMksYZi75OT2Y1b/syw/55D8z/AI0mm/8AHt/wOT/0I1oUAUP7MsP+eQ/M/wCNH9l2H/PIfmf8av0UAUP7MsP+eQ/M/wCNH9l2H/PEfmf8av0UAUP7MsP+eQ/M/wCNH9mWH/PIfmf8av0UAUP7MsP+eQ/M/wCNH9l2H/PIfmf8av0UAUP7LsP+eQ/M/wCNH9mWH/PIfmf8av0UAUP7LsP+eQ/M/wCNH9mWH/PIfmf8av0UAUP7MsP+eQ/M/wCNH9mWH/PIfmf8av0UAUP7LsP+eQ/M/wCNH9l2H/PEfmf8av0UAUP7MsP+eQ/M/wCNH9l2H/PEfmf8av0UAUP7MsP+eQ/M/wCNH9l2H/PIfmf8av0UAUP7MsP+eQ/M/wCNH9mWH/PIfmf8av0UAUP7LsP+eI/M/wCNH9l2H/PIfmf8av0UAUP7LsP+eQ/M/wCNH9l2H/PIfmf8av0UAUP7LsP+eI/M/wCNH9l2H/PIfmf8av0UAUP7LsP+eQ/M/wCNH9l2H/PEfmf8av0UAUP7LsP+eQ/M/wCNH9mWH/PIfmf8av0UAUP7MsP+eQ/M/wCNH9mWH/PIfmf8av0UAUP7MsP+eQ/M/wCNH9mWH/PIfmf8av0UAUP7LsP+eQ/M/wCNH9mWH/PIfmf8av0UAUP7LsP+eQ/M/wCNH9l2H/PIfmf8av0UAUP7LsP+eI/M/wCNH9l2H/PIfmf8av0UAUP7LsP+eQ/M/wCNH9l2H/PEfmf8av0UAUP7LsP+eI/M/wCNH9mWH/PIfmf8av0UAUP7MsP+eQ/M/wCNH9mWH/PIfmf8av0UAUP7MsP+eQ/M/wCNH9l2H/PIfmf8av0UAUP7LsP+eQ/M/wCNH9mWH/PIfmf8av0UAUP7LsP+eQ/M/wCNH9mWH/PIfmf8av0UAUP7LsP+eI/M/wCNH9l2H/PIfmf8av0UAUP7LsP+eQ/M/wCNH9mWH/PIfmf8av0UAUP7LsP+eI/M/wCNH9mWH/PIfmf8av0UAUP7MsP+eQ/M/wCNH9l2H/PIfmf8av0UAUP7LsP+eQ/M/wCNH9l2H/PIfmf8av0UAUP7MsP+eQ/M/wCNH9mWH/PIfmf8av0UAUP7LsP+eQ/M/wCNH9l2H/PIfmf8av0UAUP7LsP+eI/M/wCNH9l2H/PIfmf8av0UAUP7MsP+eQ/M/wCNH9l2H/PIfmf8av0UAUP7LsP+eQ/M/wCNH9mWH/PIfmf8av0UAUP7LsP+eQ/M/wCNH9mWH/PIfmf8av0UAUP7MsP+eQ/M/wCNH9mWH/PIfmf8av0UAUP7LsP+eQ/M/wCNH9l2H/PIfmf8av0UAUP7MsP+eQ/M/wCNH9l2H/PEfmf8av0UAUP7MsP+eQ/M/wCNH9mWH/PIfmf8av0UAUP7LsP+eQ/M/wCNH9mWH/PIfmf8av0UAUP7LsP+eQ/M/wCNH9mWH/PIfmf8av0UAUP7LsP+eQ/M/wCNH9l2H/PIfmf8av0UAUP7MsP+eQ/M/wCNH9mWH/PIfmf8av0UAUP7MsP+eQ/M/wCNH9l2H/PIfmf8av0UAUP7MsP+eQ/M/wCNH9mWH/PIfmf8av0UAUP7MsP+eQ/M/wCNH9mWH/PIfmf8av0UAUP7LsP+eQ/M/wCNH9mWH/PIfmf8av0UAUP7LsP+eQ/M/wCNH9mWH/PIfmf8av0UAUP7LsP+eQ/M/wCNH9mWH/PIfmf8av0UAUP7LsP+eI/M/wCNH9mWH/PIfmf8av0UAUP7MsP+eQ/M/wCNH9l2H/PIfmf8av0UAUP7LsP+eI/M/wCNH9l2H/PEfmf8av0UAUP7LsP+eQ/M/wCNH9l2H/PIfmf8av0UAUP7MsP+eQ/M/wCNH9mWH/PIfmf8av0UAUP7LsP+eQ/M/wCNH9l2H/PEfmf8av0UAUP7MsP+eQ/M/wCNH9mWH/PIfmf8av0UAUP7LsP+eQ/M/wCNH9l2H/PIfmf8av0UAUP7LsP+eQ/M/wCNH9l2H/PIfmf8av0UAUP7MsP+eQ/M/wCNH9mWH/PIfmf8av0UAUP7LsP+eQ/M/wCNH9l2H/PIfmf8av0UAUP7LsP+eI/M/wCNH9l2H/PIfmf8av0UAUP7LsP+eQ/M/wCNH9mWH/PIfmf8av0UAUP7MsP+eQ/M/wCNH9l2H/PIfmf8av0UAUP7MsP+eQ/M/wCNH9l2H/PIfmf8av0UAUP7MsP+eQ/M/wCNH9mWH/PIfmf8av0UAUP7MsP+eQ/M/wCNH9mWH/PIfmf8av0UAUP7LsP+eI/M/wCNH9mWH/PIfmf8av0UAUP7MsP+eQ/M/wCNH9l2H/PEfmf8av0UAUP7LsP+eQ/M/wCNH9l2H/PEfmf8av0UAUP7LsP+eQ/M/wCNH9l2H/PIfmf8av0UAUP7MsP+eQ/M/wCNH9mWH/PIfmf8av0UAUP7LsP+eQ/M/wCNH9l2H/PIfmf8av0UAUP7LsP+eQ/M/wCNH9l2H/PIfmf8av0UAUP7LsP+eI/M/wCNH9l2H/PEfmf8av0UAUP7LsP+eQ/M/wCNH9l2H/PIfmf8av0UAUP7LsP+eI/M/wCNH9l2H/PIfmf8av0UAUP7MsP+eQ/M/wCNH9mWH/PIfmf8av0UAUP7MsP+eQ/M/wCNH9l2H/PEfmf8av0UAUP7MsP+eQ/M/wCNH9l2H/PIfmf8av0UAUP7LsP+eQ/M/wCNH9l2H/PIfmf8av0UAUP7LsP+eQ/M/wCNH9l2H/PIfmf8av0UAUP7LsP+eQ/M/wCNH9mWH/PIfmf8av0UAUP7MsP+eQ/M/wCNH9l2H/PIfmf8av0UAUP7MsP+eQ/M/wCNH9l2H/PEfmf8av0UAUP7MsP+eQ/M/wCNH9mWH/PIfmf8av0UAUP7MsP+eQ/M/wCNH9mWH/PIfmf8av0UAUP7LsP+eQ/M/wCNH9l2H/PIfmf8av0UAUP7MsP+eQ/M/wCNH9l2H/PIfmf8av0UAUP7LsP+eQ/M/wCNH9l2H/PIfmf8av0UAUP7MsP+eQ/M/wCNH9l2H/PEfmf8av0UAUP7MsP+eQ/M/wCNH9mWH/PIfmf8av0UAUP7LsP+eQ/M/wCNH9l2H/PIfmf8av0UAUP7MsP+eQ/M/wCNH9mWH/PIfmf8av0UAUP7MsP+eQ/M/wCNH9mWH/PIfmf8av0UAUP7LsP+eQ/M/wCNH9mWH/PIfmf8av0UAUP7LsP+eQ/M/wCNH9l2H/PIfmf8av0UAUP7MsP+eQ/M/wCNH9mWH/PIfmf8av0UAUP7LsP+eQ/M/wCNH9l2H/PIfmf8av0UAUP7MsP+eQ/M/wCNH9mWH/PIfmf8av0UAUP7MsP+eQ/M/wCNH9l2H/PIfmf8av0UAUP7MsP+eQ/M/wCNH9mWH/PIfmf8av0UAUP7MsP+eQ/M/wCNH9l2H/PIfmf8av0UAUP7LsP+eI/M/wCNH9mWH/PIfmf8av0UAUP7MsP+eQ/M/wCNH9mWH/PIfmf8av0UAUP7MsP+eQ/M/wCNH9l2H/PIfmf8av0UAUP7MsP+eQ/M/wCNH9mWH/PIfmf8av0UAUP7MsP+eQ/M/wCNH9l2H/PIfmf8av0UAUP7LsP+eQ/M/wCNH9l2H/PEfmf8av0UAUP7MsP+eQ/M/wCNH9mWH/PIfmf8av0UAUP7LsP+eI/M/wCNH9l2H/PEfmf8av0UAUP7MsP+eQ/M/wCNH9l2H/PEfmf8av0UAUP7LsP+eI/M/wCNH9mWH/PIfmf8av0UAUP7LsP+eQ/M/wCNH9l2H/PIfmf8av0UAUP7LsP+eQ/M/wCNH9l2H/PIfmf8av0UAUP7MsP+eQ/M/wCNH9l2H/PIfmf8av0UAUP7LsP+eQ/M/wCNH9mWH/PIfmf8av0UAUP7LsP+eQ/M/wCNH9l2H/PIfmf8av0UAUP7MsP+eQ/M/wCNH9l2H/PIfmf8av0UAUP7MsP+eQ/M/wCNH9mWH/PIfmf8av0UAUP7LsP+eI/M/wCNH9mWH/PIfmf8av0UAUP7LsP+eQ/M/wCNH9l2H/PIfmf8av0UAUP7LsP+eQ/M/wCNH9mWH/PIfmf8av0UAUP7LsP+eQ/M/wCNH9mWH/PIfmf8av0UAUP7LsP+eQ/M/wCNH9l2H/PIfmf8av0UAUP7LsP+eI/M/wCNH9mWH/PIfmf8av0GgDP0wAWagdAz/wDoRrQqhpv/AB6L/vP/AOhGr9ABRRRQAUUUUAFFFFABRRRQAUUUUAFFFFABRRRQAUUUUAFFFFABRRRQAUUUUAFFFFABRRRQAUUUUAFFFFABRRRQAUUUUAFFFFABRRRQAUUUUAFFFFABRRRQAUUUUAFFFFABRRRQAUUUUAFFFFABRRRQAUUUUAFFFFABUM/3B9amqGf7g+tAH//Z;" vertex="1" parent="1">
          <mxGeometry x="-1050" y="110" width="2990" height="148" as="geometry" />
        </mxCell>
        <mxCell id="VSkgPnNJodsaqvErD4WI-3" value="" style="rounded=0;whiteSpace=wrap;html=1;fillColor=default;strokeColor=none;" vertex="1" parent="1">
          <mxGeometry x="210" y="180" width="1290" height="60" as="geometry" />
        </mxCell>
        <mxCell id="VSkgPnNJodsaqvErD4WI-6" value="" style="rounded=0;whiteSpace=wrap;html=1;fillColor=default;strokeColor=none;" vertex="1" parent="1">
          <mxGeometry x="-660" y="180" width="1290" height="60" as="geometry" />
        </mxCell>
        <UserObject label="&lt;p class=&quot;MsoNormal&quot;&gt;&lt;font style=&quot;font-size: 36px;&quot;&gt;&lt;b&gt;&lt;span style=&quot;mso-spacerun:&#39;yes&#39;;font-family:宋体;mso-ascii-font-family:Calibri;&lt;br/&gt;mso-hansi-font-family:Calibri;mso-bidi-font-family:&#39;Times New Roman&#39;;font-weight:bold;&lt;br/&gt;font-size:18.0000pt;mso-font-kerning:1.0000pt;&quot;&gt;&lt;font style=&quot;&quot; face=&quot;宋体&quot;&gt;淘游旅行网&lt;/font&gt;&lt;/span&gt;&lt;/b&gt;&lt;b&gt;&lt;span style=&quot;font-family: 宋体; color: rgb(127, 127, 127);&quot;&gt;&lt;font style=&quot;&quot; face=&quot;宋体&quot;&gt;（&lt;/font&gt;&lt;font style=&quot;&quot; face=&quot;Calibri&quot;&gt;59766.com&lt;/font&gt;&lt;font style=&quot;&quot; face=&quot;宋体&quot;&gt;）&lt;/font&gt;&lt;/span&gt;&lt;/b&gt;&lt;/font&gt;&lt;/p&gt;" link="&lt;p class=&quot;MsoNormal&quot;&gt;&lt;b&gt;&lt;span style=&quot;mso-spacerun:&#39;yes&#39;;font-family:宋体;mso-ascii-font-family:Calibri;&#xa;mso-hansi-font-family:Calibri;mso-bidi-font-family:&#39;Times New Roman&#39;;font-weight:bold;&#xa;font-size:18.0000pt;mso-font-kerning:1.0000pt;&quot;&gt;&lt;font face=&quot;宋体&quot;&gt;淘游旅行网&lt;/font&gt;&lt;/span&gt;&lt;/b&gt;&lt;b&gt;&lt;span style=&quot;mso-spacerun:&#39;yes&#39;;font-family:宋体;mso-ascii-font-family:Calibri;&#xa;mso-hansi-font-family:Calibri;mso-bidi-font-family:&#39;Times New Roman&#39;;color:rgb(127,127,127);&#xa;font-weight:bold;font-size:15.0000pt;mso-font-kerning:1.0000pt;&quot;&gt;&lt;font face=&quot;宋体&quot;&gt;（&lt;/font&gt;&lt;font face=&quot;Calibri&quot;&gt;59766.com&lt;/font&gt;&lt;font face=&quot;宋体&quot;&gt;）&lt;/font&gt;&lt;/span&gt;&lt;/b&gt;&lt;/p&gt;" id="VSkgPnNJodsaqvErD4WI-5">
          <mxCell style="text;whiteSpace=wrap;html=1;" vertex="1" parent="1">
            <mxGeometry x="-640" y="175" width="480" height="70" as="geometry" />
          </mxCell>
        </UserObject>
        <mxCell id="VSkgPnNJodsaqvErD4WI-7" value="" style="rounded=0;whiteSpace=wrap;html=1;fillColor=default;strokeColor=none;" vertex="1" parent="1">
          <mxGeometry x="-650" y="115" width="1290" height="60" as="geometry" />
        </mxCell>
        <mxCell id="VSkgPnNJodsaqvErD4WI-8" value="&lt;p class=&quot;MsoNormal&quot;&gt;&lt;font style=&quot;font-size: 24px;&quot;&gt;&lt;span style=&quot;font-family: 宋体; font-weight: normal;&quot;&gt;&lt;font style=&quot;&quot; face=&quot;宋体&quot;&gt;淘精彩、游世界！&lt;/font&gt;&lt;/span&gt;&lt;span style=&quot;font-family: 宋体; font-weight: normal;&quot;&gt;&lt;font face=&quot;宋体&quot;&gt;精彩&lt;/font&gt;&lt;/span&gt;&lt;span style=&quot;font-family: 宋体; font-weight: normal;&quot;&gt;&lt;font face=&quot;宋体&quot;&gt;行程&lt;/font&gt;&lt;/span&gt;&lt;span style=&quot;font-family: 宋体; font-weight: normal;&quot;&gt;&lt;font style=&quot;&quot; face=&quot;宋体&quot;&gt;，尽在&lt;/font&gt;&lt;font style=&quot;&quot; face=&quot;Calibri&quot;&gt;59766&lt;/font&gt;&lt;font style=&quot;&quot; face=&quot;宋体&quot;&gt;淘游旅行网！&lt;/font&gt;&lt;/span&gt;&lt;/font&gt;&lt;/p&gt;" style="text;whiteSpace=wrap;html=1;" vertex="1" parent="1">
          <mxGeometry x="-640" y="130" width="690" height="60" as="geometry" />
        </mxCell>
        <mxCell id="VSkgPnNJodsaqvErD4WI-9" value="&lt;p class=&quot;MsoNormal&quot;&gt;&lt;font style=&quot;font-size: 24px;&quot;&gt;&lt;span style=&quot;font-family: 宋体; color: rgb(12, 12, 12);&quot;&gt;&lt;font style=&quot;&quot; face=&quot;宋体&quot;&gt;【旅游产品】&lt;/font&gt;&amp;nbsp; 【&lt;/span&gt;&lt;span style=&quot;font-family: 宋体; color: rgb(12, 12, 12);&quot;&gt;&lt;font face=&quot;宋体&quot;&gt;服务&lt;/font&gt;&lt;/span&gt;&lt;span style=&quot;font-family: 宋体; color: rgb(12, 12, 12);&quot;&gt;&lt;font face=&quot;宋体&quot;&gt;商】&lt;/font&gt;&lt;/span&gt;&lt;span style=&quot;font-family: 宋体; color: rgb(12, 12, 12);&quot;&gt;&amp;nbsp; 【&lt;font style=&quot;&quot; face=&quot;宋体&quot;&gt;旅游资讯】&lt;/font&gt;&lt;/span&gt;&lt;/font&gt;&lt;/p&gt;" style="text;whiteSpace=wrap;html=1;" vertex="1" parent="1">
          <mxGeometry x="820" y="175" width="520" height="70" as="geometry" />
        </mxCell>
      </root>
    </mxGraphModel>
  </diagram>
</mxfile>
